<svg width="208" height="254" viewBox="0 0 208 254" fill="none" xmlns="http://www.w3.org/2000/svg">
<g clip-path="url(#clip0)">
<path d="M97.7106 195.724L97.7104 195.072C99.0049 195.072 100.319 195.045 101.616 194.993L101.642 195.645C100.336 195.697 99.0136 195.724 97.7106 195.724ZM93.7798 195.649C92.4784 195.598 91.1579 195.52 89.8551 195.417L89.9063 194.767C91.2006 194.869 92.5124 194.947 93.8053 194.997L93.7798 195.649ZM105.567 195.408L105.515 194.758C106.807 194.654 108.115 194.523 109.401 194.367L109.479 195.015C108.184 195.172 106.868 195.304 105.567 195.408V195.408ZM85.9424 195.028C84.6443 194.872 83.3342 194.688 82.0483 194.482L82.1517 193.838C83.4288 194.043 84.7302 194.226 86.0196 194.38L85.9424 195.028ZM113.372 194.464L113.269 193.82C114.545 193.613 115.838 193.377 117.111 193.117L117.24 193.756C115.959 194.018 114.658 194.256 113.372 194.464V194.464ZM78.1796 193.778C76.8984 193.518 75.6074 193.229 74.3422 192.919L74.497 192.285C75.7538 192.593 77.0361 192.881 78.3087 193.139L78.1796 193.778ZM121.077 192.892L120.921 192.259C122.182 191.948 123.451 191.607 124.694 191.246L124.875 191.873C123.624 192.237 122.346 192.579 121.077 192.892V192.892ZM70.5426 191.904C69.2872 191.54 68.0238 191.147 66.7873 190.735L66.993 190.116C68.2212 190.526 69.4762 190.916 70.7231 191.277L70.5426 191.904ZM128.629 190.7L128.423 190.081C129.652 189.67 130.889 189.227 132.101 188.766L132.333 189.375C131.112 189.84 129.866 190.286 128.629 190.7V190.7ZM63.0723 189.411C61.8509 188.947 60.6207 188.451 59.4156 187.937L59.6707 187.337C60.8677 187.848 62.0898 188.34 63.3031 188.8L63.0723 189.411ZM135.969 187.906L135.714 187.306C136.904 186.797 138.099 186.257 139.265 185.701L139.545 186.29C138.371 186.85 137.168 187.393 135.969 187.906V187.906ZM55.8223 186.316C54.6397 185.753 53.4541 185.16 52.2986 184.551L52.6016 183.974C53.7493 184.578 54.9268 185.168 56.1014 185.727L55.8223 186.316ZM143.054 184.53L142.751 183.953C143.898 183.348 145.046 182.713 146.165 182.064L146.491 182.629C145.365 183.282 144.209 183.921 143.054 184.53V184.53ZM48.8501 182.645C47.7156 181.988 46.5824 181.3 45.4821 180.602L45.8305 180.051C46.9234 180.744 48.049 181.427 49.176 182.08L48.8501 182.645ZM149.849 180.59L149.501 180.039C150.592 179.346 151.687 178.62 152.754 177.881L153.124 178.417C152.05 179.162 150.948 179.893 149.849 180.59L149.849 180.59ZM42.1997 178.425C41.1231 177.679 40.0493 176.903 39.0079 176.118L39.3992 175.597C40.4338 176.377 41.5005 177.148 42.5697 177.888L42.1997 178.425ZM156.31 176.114L155.918 175.593C156.951 174.815 157.984 174.003 158.99 173.179L159.402 173.684C158.389 174.514 157.349 175.331 156.31 176.114V176.114ZM35.9116 173.685C34.9009 172.857 33.893 171.998 32.916 171.13L33.3477 170.642C34.3183 171.504 35.3195 172.358 36.3236 173.18L35.9116 173.685ZM162.396 171.132L161.964 170.644C162.934 169.782 163.899 168.889 164.834 167.99L165.285 168.461C164.344 169.366 163.372 170.265 162.396 171.132L162.396 171.132ZM30.0252 168.458C29.0862 167.554 28.1504 166.617 27.2443 165.673L27.7135 165.22C28.6138 166.158 29.5433 167.09 30.4763 167.987L30.0252 168.458ZM168.066 165.675L167.597 165.223C168.494 164.287 169.386 163.32 170.247 162.347L170.734 162.78C169.867 163.759 168.969 164.733 168.066 165.675V165.675ZM24.5772 162.779C23.7092 161.798 22.8517 160.789 22.0282 159.78L22.5323 159.367C23.3501 160.37 24.2021 161.372 25.0642 162.346L24.5772 162.779ZM173.286 159.779L172.781 159.367C173.604 158.359 174.416 157.322 175.195 156.286L175.715 156.678C174.931 157.722 174.113 158.765 173.286 159.779ZM19.6017 156.683C18.8171 155.639 18.0432 154.566 17.3016 153.492L17.8369 153.12C18.5736 154.187 19.3423 155.254 20.1217 156.291L19.6017 156.683ZM178.019 153.481L177.483 153.11C178.223 152.038 178.949 150.939 179.643 149.844L180.193 150.193C179.495 151.296 178.763 152.402 178.019 153.481ZM15.1315 150.211C14.4339 149.109 13.7488 147.977 13.0952 146.847L13.6585 146.52C14.3077 147.643 14.9883 148.767 15.6811 149.862L15.1315 150.211ZM182.234 146.819L181.671 146.492C182.322 145.363 182.958 144.208 183.561 143.06L184.137 143.364C183.531 144.52 182.89 145.682 182.234 146.819ZM11.1965 143.403C10.5899 142.249 9.99833 141.066 9.43821 139.888L10.026 139.607C10.5825 140.778 11.1701 141.953 11.7725 143.1L11.1965 143.403ZM185.901 139.834L185.313 139.554C185.87 138.379 186.411 137.176 186.921 135.978L187.52 136.234C187.007 137.44 186.462 138.651 185.901 139.834ZM7.82348 136.306C7.31072 135.104 6.81671 133.878 6.35497 132.662L6.96342 132.43C7.42214 133.638 7.91281 134.856 8.42209 136.049L7.82348 136.306ZM188.993 132.57L188.384 132.339C188.846 131.118 189.289 129.874 189.699 128.642L190.316 128.848C189.903 130.089 189.458 131.341 188.993 132.57ZM5.03127 128.952C4.61674 127.711 4.22224 126.446 3.85873 125.19L4.48402 125.009C4.84515 126.256 5.23695 127.513 5.64862 128.745L5.03127 128.952ZM191.485 125.085L190.859 124.904C191.218 123.659 191.558 122.387 191.868 121.123L192.5 121.278C192.188 122.551 191.846 123.832 191.485 125.085ZM2.83958 121.384C2.52677 120.114 2.23605 118.821 1.97506 117.541L2.61309 117.41C2.87217 118.682 3.16098 119.967 3.47156 121.228L2.83958 121.384ZM193.36 117.434L192.721 117.304C192.979 116.033 193.214 114.738 193.421 113.454L194.064 113.557C193.856 114.85 193.619 116.154 193.36 117.434ZM1.26664 113.665C1.05795 112.377 0.872296 111.064 0.714939 109.764L1.36121 109.685C1.51762 110.977 1.702 112.281 1.90942 113.56L1.26664 113.665ZM194.611 109.655L193.964 109.577C194.119 108.285 194.25 106.975 194.352 105.683L195.001 105.734C194.898 107.036 194.767 108.355 194.611 109.655V109.655ZM0.320276 105.844C0.215211 104.541 0.135105 103.217 0.082175 101.91L0.732582 101.884C0.785192 103.182 0.864825 104.497 0.969093 105.791L0.320276 105.844ZM195.235 101.802L194.585 101.776C194.636 100.476 194.662 99.1592 194.662 97.8625L194.662 97.6463H195.313L195.313 97.861C195.313 99.1676 195.287 100.493 195.235 101.802ZM0.651042 97.9706H0L0.000158946 97.861C0.000158946 96.5884 0.024803 95.2995 0.0736019 94.0317L0.723989 94.0569C0.675668 95.3163 0.651191 96.5967 0.651191 97.8625L0.651042 97.9706ZM194.576 93.7339C194.522 92.4385 194.441 91.1239 194.335 89.827L194.984 89.7738C195.091 91.0795 195.172 92.4026 195.226 93.7068L194.576 93.7339ZM0.952086 90.1496L0.302951 90.0986C0.405314 88.7922 0.535329 87.473 0.689189 86.1774L1.33578 86.2545C1.18287 87.5415 1.05381 88.8521 0.952086 90.1496ZM193.939 85.9333C193.782 84.6466 193.596 83.343 193.386 82.0589L194.029 81.9536C194.24 83.2464 194.427 84.5587 194.585 85.8543L193.939 85.9333ZM1.87495 82.3783L1.23217 82.2751C1.43848 80.9833 1.67388 79.6786 1.93217 78.3977L2.57018 78.5267C2.31378 79.7992 2.07995 81.0949 1.87493 82.3783L1.87495 82.3783ZM192.678 78.2097C192.417 76.9348 192.127 75.6507 191.815 74.3926L192.447 74.2355C192.761 75.5021 193.053 76.7952 193.316 78.0785L192.678 78.2097ZM3.42004 74.7066L2.78759 74.5518C3.09722 73.282 3.43736 72.0008 3.79849 70.7434L4.4241 70.9239C4.06536 72.1728 3.7276 73.4455 3.42004 74.7066ZM190.799 70.6134C190.437 69.3674 190.044 68.1108 189.631 66.8788L190.248 66.6711C190.664 67.9114 191.059 69.1764 191.424 70.4309L190.799 70.6134ZM5.58028 67.1854L4.96244 66.9796C5.37443 65.7374 5.81821 64.4846 6.28154 63.2562L6.89061 63.4869C6.43032 64.7071 5.9894 65.9514 5.58028 67.1854ZM188.311 63.1946C187.849 61.981 187.357 60.764 186.849 59.577L187.447 59.3199C187.958 60.5149 188.454 61.7401 188.92 62.9617L188.311 63.1946ZM8.34959 59.8459L7.75036 59.5904C8.26201 58.3851 8.8056 57.1733 9.36589 55.9891L9.95415 56.2684C9.39752 57.4449 8.85774 58.6486 8.34959 59.8459ZM185.241 56.0203C184.684 54.8508 184.095 53.6766 183.491 52.5303L184.066 52.2256C184.675 53.3797 185.268 54.5617 185.828 55.7393L185.241 56.0203ZM11.7019 52.7599L11.1253 52.457C11.7321 51.2979 12.3714 50.1348 13.0251 49L13.5891 49.3262C12.9396 50.4534 12.3046 51.6088 11.7019 52.7599ZM181.601 49.1127C180.95 47.9896 180.268 46.8661 179.574 45.7729L180.124 45.4228C180.822 46.5233 181.508 47.6545 182.164 48.7849L181.601 49.1127ZM15.6126 45.9725L15.0624 45.6237C15.7608 44.5171 16.4911 43.41 17.2329 42.3331L17.7686 42.7037C17.0317 43.7735 16.3064 44.8731 15.6126 45.9725ZM177.415 42.5164C176.676 41.45 175.907 40.3841 175.127 39.3488L175.646 38.9557C176.431 39.998 177.206 41.0709 177.95 42.1447L177.415 42.5164ZM20.0536 39.5251L19.5332 39.1333C20.3177 38.0868 21.1339 37.0426 21.959 36.0292L22.4635 36.4418C21.6438 37.4482 20.833 38.4856 20.0536 39.5251V39.5251ZM172.713 36.2747C171.892 35.2707 171.039 34.2696 170.178 33.2993L170.664 32.8657C171.531 33.8426 172.39 34.8504 173.217 35.8612L172.713 36.2747ZM24.9944 33.4581L24.5071 33.0258C25.3714 32.0472 26.268 31.0721 27.1721 30.1275L27.642 30.5793C26.7439 31.5174 25.8532 32.4862 24.9944 33.4581L24.9944 33.4581ZM167.525 30.427C166.624 29.4903 165.694 28.5604 164.759 27.663L165.21 27.1918C166.15 28.0953 167.087 29.0314 167.994 29.9743L167.525 30.427ZM30.4016 27.8092L29.9502 27.339C30.8896 26.4332 31.8609 25.5335 32.8368 24.6648L33.2691 25.1525C32.2996 26.0155 31.3348 26.9094 30.4016 27.8092ZM161.885 25.0114C160.913 24.1496 159.91 23.2968 158.907 22.4769L159.318 21.9712C160.328 22.7966 161.337 23.655 162.316 24.5227L161.885 25.0114ZM36.2398 22.6136L35.8272 22.109C36.8373 21.2799 37.8768 20.4614 38.9166 19.6758L39.3086 20.1967C38.2756 20.977 37.2431 21.7903 36.2398 22.6136ZM155.828 20.0637C154.789 19.2826 153.721 18.5128 152.655 17.7756L153.024 17.2385C154.098 17.9806 155.173 18.7555 156.219 19.5419L155.828 20.0637ZM42.4713 17.9048L42.1003 17.3686C43.1735 16.6234 44.2745 15.8911 45.3728 15.1922L45.7219 15.743C44.6309 16.4372 43.5372 17.1644 42.4713 17.9048H42.4713ZM149.392 15.6165C148.294 14.9218 147.168 14.2402 146.044 13.5908L146.369 13.0257C147.5 13.6794 148.634 14.3655 149.74 15.0649L149.392 15.6165ZM49.0556 13.7146L48.729 13.1501C49.8546 12.4959 51.0102 11.855 52.1632 11.2454L52.4671 11.8223C51.3216 12.4279 50.1738 13.0645 49.0556 13.7146ZM142.617 11.7014C141.467 11.0977 140.289 10.5092 139.115 9.95218L139.393 9.36252C140.575 9.92319 141.761 10.5157 142.919 11.1235L142.617 11.7014ZM55.9506 10.0704L55.6703 9.48135C56.8443 8.92052 58.0467 8.37546 59.2444 7.8613L59.5006 8.46099C58.3111 8.97165 57.1166 9.51305 55.9505 10.0704L55.9506 10.0704ZM135.544 8.34616C134.347 7.83695 133.125 7.34587 131.91 6.88619L132.14 6.27583C133.363 6.73854 134.594 7.2331 135.798 7.74567L135.544 8.34616ZM63.1115 6.9972L62.8796 6.38748C64.0978 5.92206 65.3433 5.47511 66.5815 5.05891L66.7884 5.67756C65.5587 6.0909 64.3216 6.53497 63.1115 6.9972ZM128.218 5.57498C126.988 5.16611 125.732 4.77698 124.487 4.41844L124.667 3.79151C125.921 4.15244 127.184 4.54412 128.423 4.9557L128.218 5.57498ZM70.5162 4.50812L70.3344 3.88182C71.5864 3.51675 72.864 3.17238 74.1316 2.85812L74.288 3.49143C73.0288 3.80362 71.7598 4.14575 70.5162 4.50812ZM120.711 3.41465C119.455 3.1074 118.172 2.82149 116.899 2.56488L117.027 1.92521C118.309 2.18356 119.6 2.47154 120.866 2.78071L120.711 3.41465ZM78.0974 2.62924L77.9668 1.9902C79.2431 1.72834 80.5443 1.48878 81.8341 1.27805L81.939 1.92186C80.6576 2.13132 79.3652 2.36929 78.0974 2.62924ZM113.055 1.87042C111.775 1.66589 110.473 1.48464 109.186 1.33205L109.263 0.684096C110.558 0.837802 111.869 1.02018 113.158 1.22629L113.055 1.87042ZM85.8055 1.37044L85.7267 0.7228C87.0218 0.564795 88.3378 0.430845 89.6383 0.325075L89.6911 0.975262C88.3992 1.08054 87.0919 1.21339 85.8055 1.37044ZM105.3 0.949776C104.009 0.848952 102.697 0.772815 101.4 0.723597L101.425 0.0715073C102.73 0.121202 104.051 0.197819 105.35 0.299279L105.3 0.949776ZM93.5899 0.736181L93.5632 0.084419C94.865 0.0305947 96.1876 0.00221495 97.4943 0L97.4952 0.652415C96.1973 0.65463 94.8832 0.68282 93.5899 0.736181Z" fill="#3F3D56"/>
<path d="M208 66.886V49.1272C202.495 47.8603 197.312 45.4608 192.781 42.0809C188.25 38.701 184.469 34.4145 181.679 29.4932L181.678 29.4935C180.339 30.4883 178.716 31.0237 177.049 31.0201H162.978C166.732 40.3986 172.858 48.6367 180.751 54.925C188.645 61.2132 198.035 65.3352 208 66.886Z" fill="#3F3D56"/>
<path d="M208 48.1095V31.0496C208 29.8016 207.755 28.5657 207.279 27.4127C206.803 26.2596 206.104 25.2119 205.224 24.3295C204.343 23.447 203.297 22.7471 202.147 22.2697C200.996 21.7923 199.763 21.5467 198.518 21.5471H184.855V23.1945C184.857 24.251 184.644 25.2969 184.23 26.2686C183.816 27.2403 183.21 28.1176 182.447 28.8473C185.146 33.6536 188.811 37.8468 193.209 41.1623C197.607 44.4777 202.643 46.8432 208 48.1095Z" fill="#3F3D56"/>
<path d="M142.281 31.0201H133.482C131.411 31.0195 129.425 30.1947 127.962 28.7271C126.498 27.2595 125.675 25.2694 125.676 23.1943V21.547H112.857C111.611 21.5469 110.378 21.7926 109.228 22.2701C108.077 22.7476 107.032 23.4476 106.151 24.33C105.271 25.2124 104.572 26.2599 104.096 27.4129C103.619 28.5658 103.374 29.8015 103.374 31.0494V242.497C103.373 243.745 103.617 244.981 104.094 246.134C104.57 247.287 105.268 248.335 106.149 249.217C107.03 250.099 108.076 250.799 109.227 251.275C110.378 251.751 111.611 251.995 112.857 251.993H198.518C198.908 251.994 199.299 251.97 199.686 251.921C201.98 251.635 204.09 250.519 205.621 248.784C207.151 247.049 207.997 244.813 208 242.497V86.84C176.845 83.2223 150.885 60.946 142.281 31.0201Z" fill="#3F3D56"/>
<path d="M161.91 31.0201H143.31C151.871 60.3915 177.385 82.2438 208 85.8452V67.8972C197.769 66.3296 188.128 62.0988 180.04 55.6275C171.952 49.1562 165.7 40.6711 161.91 31.0201Z" fill="#3F3D56"/>
<path opacity="0.1" d="M134.393 248.724C134.629 248.489 140.229 242.806 144.976 229.322C149.331 216.95 153.725 195.376 149.928 162.853C142.734 101.24 179.624 61.9742 179.998 61.5847L178.906 60.5338C178.812 60.6326 169.327 70.6245 160.888 88.1656C149.717 111.426 145.394 137.395 148.424 163.029C155.606 224.537 133.548 247.425 133.325 247.65L134.393 248.724Z" fill="black"/>
<path opacity="0.1" d="M191.326 60.5522C196.759 60.5522 201.164 56.1383 201.164 50.6935C201.164 45.2486 196.759 40.8347 191.326 40.8347C185.893 40.8347 181.488 45.2486 181.488 50.6935C181.488 56.1383 185.893 60.5522 191.326 60.5522Z" fill="black"/>
<path opacity="0.1" d="M152.568 88.5399C158.001 88.5399 162.406 84.126 162.406 78.6811C162.406 73.2363 158.001 68.8224 152.568 68.8224C147.135 68.8224 142.73 73.2363 142.73 78.6811C142.73 84.126 147.135 88.5399 152.568 88.5399Z" fill="black"/>
<path opacity="0.1" d="M167.409 117.152C172.842 117.152 177.247 112.738 177.247 107.293C177.247 101.848 172.842 97.4341 167.409 97.4341C161.975 97.4341 157.571 101.848 157.571 107.293C157.571 112.738 161.975 117.152 167.409 117.152Z" fill="black"/>
<path opacity="0.1" d="M137.566 130.927C143 130.927 147.404 126.513 147.404 121.068C147.404 115.623 143 111.21 137.566 111.21C132.133 111.21 127.728 115.623 127.728 121.068C127.728 126.513 132.133 130.927 137.566 130.927Z" fill="black"/>
<path opacity="0.1" d="M162.375 169.784C167.808 169.784 172.213 165.37 172.213 159.926C172.213 154.481 167.808 150.067 162.375 150.067C156.941 150.067 152.537 154.481 152.537 159.926C152.537 165.37 156.941 169.784 162.375 169.784Z" fill="black"/>
<path opacity="0.1" d="M128.533 247.664C128.533 247.664 143.835 226.428 119.471 201.731L128.533 247.664Z" fill="black"/>
<path opacity="0.1" d="M140.391 250.112C140.391 250.112 150.849 226.107 184.462 234.559L140.391 250.112Z" fill="black"/>
<path d="M197.178 165.04H114.496V181.35H197.178V165.04Z" fill="#E9663A"/>
<path d="M139.749 130.471C136.433 125.531 134.993 119.565 135.69 113.652C136.388 107.74 139.177 102.274 143.551 98.246C147.925 94.2176 153.595 91.8933 159.532 91.6948C165.469 91.4962 171.281 93.4364 175.914 97.1637C180.546 100.891 183.692 106.158 184.781 112.011C185.871 117.863 184.831 123.913 181.851 129.063C178.871 134.213 174.148 138.122 168.538 140.082C162.929 142.042 156.804 141.922 151.275 139.745C150.916 141.027 150.246 142.2 149.324 143.159C148.403 144.118 147.258 144.833 145.993 145.24C144.728 145.647 143.382 145.733 142.075 145.491C140.768 145.248 139.542 144.685 138.506 143.852C137.47 143.018 136.656 141.94 136.138 140.714C135.62 139.488 135.413 138.152 135.536 136.826C135.659 135.501 136.108 134.226 136.844 133.117C137.579 132.008 138.577 131.099 139.749 130.471Z" fill="#F2F2F2"/>
<path d="M165.626 107.672C165.035 107.33 162.794 110.074 160.32 114.068C157.847 110.074 155.606 107.33 155.014 107.672C154.357 108.052 155.974 112.103 158.66 116.881C155.974 121.66 154.357 125.711 155.014 126.091C155.606 126.433 157.847 123.689 160.32 119.695C162.794 123.689 165.035 126.433 165.626 126.091C166.283 125.711 164.667 121.66 161.98 116.881C164.667 112.103 166.283 108.052 165.626 107.672Z" fill="#E9663A"/>
<path d="M46.5995 149.942C46.5995 149.942 43.9515 161.315 46.2212 161.315C48.4909 161.315 53.0303 156.008 53.0303 156.008V152.975L46.5995 149.942Z" fill="#A0616A"/>
<path d="M52.0846 139.897L45.2754 150.511H50.193L52.0846 139.897Z" fill="#D0CDE1"/>
<path d="M57.0024 232.392H47.9236V239.974H57.0024V232.392Z" fill="#A0616A"/>
<path d="M77.0513 231.255L78.9429 239.974L88.3999 237.699L86.1301 230.118L77.0513 231.255Z" fill="#A0616A"/>
<path d="M48.6801 152.786C48.6801 152.786 45.6538 154.302 45.2756 161.125C44.8973 167.949 46.4104 185.766 46.4104 185.766C46.4104 185.766 44.8973 193.726 46.4104 200.929C47.9235 208.131 44.8973 234.288 46.7887 234.288C48.6801 234.288 58.5155 235.425 58.8937 234.288C59.272 233.151 59.6503 216.092 59.6503 216.092C59.6503 216.092 62.6766 207.373 59.6503 202.066C59.6503 202.066 66.4594 207.752 66.4594 209.269C66.4594 210.785 73.6468 234.288 77.0513 234.667C80.4559 235.046 89.9129 234.288 88.0215 230.876C86.1301 227.464 81.5907 211.922 81.5907 211.922C81.5907 211.922 78.1861 200.55 72.1336 195.622L75.1599 171.36C75.1599 171.36 81.5907 155.06 77.8079 152.786C74.0251 150.511 48.6801 152.786 48.6801 152.786Z" fill="#2F2E41"/>
<path d="M60.0287 90.9954C65.4606 90.9954 69.8641 86.5827 69.8641 81.1393C69.8641 75.6959 65.4606 71.2832 60.0287 71.2832C54.5968 71.2832 50.1934 75.6959 50.1934 81.1393C50.1934 86.5827 54.5968 90.9954 60.0287 90.9954Z" fill="#A0616A"/>
<path d="M55.1108 87.2046C55.1108 87.2046 58.8937 99.7143 57.7588 101.231C56.624 102.747 69.8639 92.8908 69.8639 92.8908C69.8639 92.8908 64.9462 89.4791 66.8376 84.551L55.1108 87.2046Z" fill="#A0616A"/>
<path d="M70.9988 91.7535C70.9988 91.7535 66.4594 93.2699 64.1897 95.9234C61.92 98.577 56.6241 98.9561 56.6241 98.9561C56.6241 98.9561 51.9424 101.598 50.1933 106.159C48.3291 111.019 49.4126 117.862 50.1933 119.426C51.7064 122.459 51.7064 130.041 51.7064 130.041L49.815 147.478C49.815 147.478 43.0059 153.923 48.3019 154.681C53.5978 155.439 63.0549 154.302 68.7291 154.681C74.4034 155.06 80.8342 155.818 78.9428 152.027C77.0513 148.237 74.7817 145.583 77.0514 138.001C78.8275 132.069 78.7504 109.886 78.6329 100.519C78.6168 99.2327 78.2725 97.9717 77.6328 96.8563C76.9931 95.7408 76.0793 94.8078 74.9782 94.1462L70.9988 91.7535Z" fill="#D0CDE1"/>
<path d="M56.2457 149.753C56.2457 149.753 54.5247 153.55 54.3543 155.818C53.0303 173.445 62.6765 155.818 62.6765 155.818V152.785L56.2457 149.753Z" fill="#A0616A"/>
<path d="M82.7257 236.941C82.7257 236.941 77.0514 232.771 77.0514 235.046C77.0514 237.32 70.6206 246.418 70.6206 246.418C70.6206 246.418 60.0287 254 68.7292 254C77.4297 254 81.2125 252.484 81.2125 252.484L90.2913 246.418C90.2913 246.418 92.561 243.765 91.8044 240.732C91.0479 237.699 88.3999 233.53 88.3999 233.53C88.3999 233.53 85.3736 237.699 82.7257 236.941Z" fill="#2F2E41"/>
<path d="M49.4368 238.079C49.4368 238.079 48.6802 234.288 46.0322 236.183C43.3842 238.079 36.1969 243.765 36.1969 243.765C36.1969 243.765 22.957 246.797 31.2792 250.588C39.6014 254.379 58.5155 249.072 58.5155 249.072C58.5155 249.072 59.2721 236.941 58.5155 237.32C57.759 237.7 49.815 238.837 49.4368 238.079Z" fill="#2F2E41"/>
<path opacity="0.1" d="M65.5138 103.695L66.6485 126.818L55.6521 149.137L53.7869 148.426L65.1355 127.577L65.5138 103.695Z" fill="black"/>
<path d="M74.4033 96.6815L77.2404 96.1129C77.2404 96.1129 85.7518 102.368 83.1038 114.877C80.4558 127.387 68.7291 146.341 68.7291 146.341C68.7291 146.341 66.0811 149.753 65.3245 150.511C64.5679 151.269 63.0548 150.511 63.8114 151.648C64.568 152.785 62.6765 153.544 62.6765 153.544C62.6765 153.544 54.3543 153.544 55.1109 150.511C55.8674 147.478 68.7291 125.871 68.7291 125.871L66.8376 105.779C66.8376 105.779 65.3245 95.9234 74.4033 96.6815Z" fill="#D0CDE1"/>
<path opacity="0.1" d="M77.9972 131.746V129.093L65.1355 150.321L77.9972 131.746Z" fill="black"/>
<path d="M53.0496 72.009L51.4236 71.3566C51.4236 71.3566 54.8233 67.6058 59.5534 67.932L58.2231 66.4643C58.2231 66.4643 61.475 65.1597 64.4313 68.5843C65.9853 70.3846 67.7834 72.5007 68.9043 74.8844H70.6456L69.9189 76.488L72.4625 78.0916L69.8517 77.8036C70.099 79.188 70.0144 80.6115 69.6048 81.9567L69.6747 83.2242C69.6747 83.2242 66.6485 78.5321 66.6485 77.8798V79.5106C66.6485 79.5106 65.0225 78.0429 65.0225 77.0644L64.1356 78.2059L63.6922 76.4121L58.2231 78.2059L59.1099 76.7382L55.7102 77.2275L57.0406 75.4336C57.0406 75.4336 53.1974 77.5536 53.0496 79.3475C52.9017 81.1414 50.9802 83.4244 50.9802 83.4244L50.0933 81.7936C50.0933 81.7936 48.763 74.4551 53.0496 72.009Z" fill="#2F2E41"/>
</g>
<defs>
<clipPath id="clip0">
<rect width="208" height="254" fill="white"/>
</clipPath>
</defs>
</svg>
