<svg width="243" height="218" viewBox="0 0 243 218" fill="none" xmlns="http://www.w3.org/2000/svg">
<path d="M121.98 3.05127L45.7207 50.1759C45.7207 50.1759 45.7207 147.371 121.98 200.386C198.24 147.371 198.24 50.1759 198.24 50.1759L121.98 3.05127Z" fill="#3F3D56"/>
<path opacity="0.04" d="M122.436 3.05127L121.132 3.85682V199.467C121.565 199.774 121.998 200.081 122.436 200.386C198.696 147.371 198.696 50.1759 198.696 50.1759L122.436 3.05127Z" fill="#E9663A"/>
<g opacity="0.7">
<path opacity="0.7" d="M103.518 98.5443L117.895 111.777L135.716 85.9609L142.904 91.9761L117.895 123.808L97.5283 100.95L103.518 98.5443Z" fill="url(#paint0_linear)"/>
</g>
<path d="M106.912 99.3393L118.574 110.074L135.094 85.677L140.925 90.5564L118.574 119.833L102.053 101.291L106.912 99.3393Z" fill="#3AD29F"/>
<path opacity="0.5" d="M46.7364 13.6164C46.5026 13.5142 46.3144 13.3292 46.2077 13.0967C46.1009 12.8642 46.083 12.6004 46.1574 12.3555C46.1695 12.3179 46.177 12.2791 46.18 12.2398C46.1868 12.1276 46.1574 12.0162 46.0963 11.922C46.0351 11.8279 45.9453 11.756 45.8403 11.7171C45.7353 11.6782 45.6206 11.6743 45.5131 11.706C45.4057 11.7377 45.3113 11.8033 45.244 11.893C45.2208 11.9249 45.2014 11.9594 45.1863 11.9958C45.0845 12.2305 44.9003 12.4195 44.6687 12.5267C44.4372 12.6339 44.1745 12.6518 43.9306 12.5771C43.8932 12.565 43.8545 12.5574 43.8154 12.5544C43.7036 12.5476 43.5927 12.5771 43.4989 12.6385C43.4052 12.7 43.3336 12.7901 43.2949 12.8956C43.2562 13.001 43.2523 13.1162 43.2838 13.2241C43.3154 13.3319 43.3807 13.4267 43.4701 13.4944C43.5018 13.5176 43.5361 13.5371 43.5724 13.5523C43.8061 13.6545 43.9943 13.8395 44.101 14.072C44.2078 14.3045 44.2257 14.5683 44.1513 14.8132C44.1393 14.8508 44.1317 14.8896 44.1287 14.9289C44.1219 15.0411 44.1513 15.1526 44.2125 15.2467C44.2736 15.3408 44.3634 15.4127 44.4684 15.4516C44.5734 15.4905 44.6882 15.4944 44.7956 15.4627C44.903 15.431 44.9974 15.3654 45.0648 15.2757C45.0879 15.2438 45.1073 15.2093 45.1224 15.1729C45.2242 14.9382 45.4084 14.7493 45.64 14.6421C45.8715 14.5349 46.1342 14.5169 46.3781 14.5916C46.4155 14.6037 46.4542 14.6113 46.4934 14.6143C46.6051 14.6211 46.7161 14.5916 46.8098 14.5302C46.9035 14.4687 46.9751 14.3786 47.0138 14.2731C47.0526 14.1677 47.0564 14.0525 47.0249 13.9446C46.9933 13.8368 46.928 13.742 46.8387 13.6743C46.8069 13.6511 46.7726 13.6316 46.7364 13.6164Z" fill="#4D8AF0"/>
<path opacity="0.5" d="M5.45412 105.895C5.22036 105.793 5.03219 105.608 4.92544 105.375C4.81869 105.143 4.8008 104.879 4.87519 104.634C4.88723 104.597 4.89481 104.558 4.89778 104.518C4.90458 104.406 4.87521 104.295 4.81403 104.201C4.75284 104.106 4.66308 104.035 4.55806 103.996C4.45303 103.957 4.33832 103.953 4.23092 103.985C4.12351 104.016 4.02912 104.082 3.96173 104.172C3.93856 104.203 3.91921 104.238 3.90408 104.274C3.80227 104.509 3.61805 104.698 3.38651 104.805C3.15496 104.912 2.89224 104.93 2.64836 104.856C2.61097 104.844 2.57229 104.836 2.53313 104.833C2.42139 104.826 2.31043 104.856 2.21669 104.917C2.12295 104.979 2.05141 105.069 2.01267 105.174C1.97392 105.28 1.97004 105.395 2.00159 105.503C2.03314 105.611 2.09844 105.705 2.18783 105.773C2.21954 105.796 2.25388 105.816 2.29013 105.831C2.52389 105.933 2.71206 106.118 2.81882 106.351C2.92557 106.583 2.94345 106.847 2.86906 107.092C2.85703 107.129 2.84944 107.168 2.84647 107.208C2.83967 107.32 2.86904 107.431 2.93022 107.525C2.99141 107.619 3.08117 107.691 3.18619 107.73C3.29122 107.769 3.40593 107.773 3.51333 107.741C3.62074 107.71 3.71513 107.644 3.78252 107.554C3.8057 107.522 3.82505 107.488 3.84018 107.452C3.94199 107.217 4.1262 107.028 4.35774 106.921C4.58929 106.813 4.85201 106.795 5.09589 106.87C5.13328 106.882 5.17196 106.89 5.21112 106.893C5.32286 106.9 5.43382 106.87 5.52756 106.809C5.6213 106.747 5.69284 106.657 5.73158 106.552C5.77032 106.446 5.77421 106.331 5.74266 106.223C5.71111 106.115 5.64581 106.021 5.55642 105.953C5.52471 105.93 5.49037 105.91 5.45412 105.895Z" fill="#4D8AF0"/>
<path opacity="0.5" d="M211.614 73.823C212.551 73.823 213.311 73.0603 213.311 72.1194C213.311 71.1785 212.551 70.4158 211.614 70.4158C210.677 70.4158 209.917 71.1785 209.917 72.1194C209.917 73.0603 210.677 73.823 211.614 73.823Z" fill="#F55F44"/>
<path opacity="0.5" d="M34.3259 195.631C35.2629 195.631 36.0225 194.868 36.0225 193.927C36.0225 192.986 35.2629 192.223 34.3259 192.223C33.389 192.223 32.6294 192.986 32.6294 193.927C32.6294 194.868 33.389 195.631 34.3259 195.631Z" fill="#F55F44"/>
<path opacity="0.5" d="M240.455 139.412C241.392 139.412 242.151 138.649 242.151 137.708C242.151 136.767 241.392 136.004 240.455 136.004C239.518 136.004 238.758 136.767 238.758 137.708C238.758 138.649 239.518 139.412 240.455 139.412Z" fill="#F55F44"/>
<path opacity="0.5" d="M199.142 21.8506C198.908 21.7483 198.72 21.5634 198.613 21.3308C198.506 21.0983 198.488 20.8345 198.563 20.5896C198.575 20.5521 198.582 20.5132 198.585 20.4739C198.592 20.3617 198.563 20.2503 198.502 20.1562C198.44 20.062 198.351 19.9902 198.246 19.9513C198.141 19.9124 198.026 19.9085 197.918 19.9402C197.811 19.9718 197.717 20.0374 197.649 20.1272C197.626 20.159 197.607 20.1935 197.592 20.2299C197.49 20.4646 197.306 20.6536 197.074 20.7608C196.842 20.868 196.58 20.8859 196.336 20.8112C196.298 20.7992 196.26 20.7915 196.221 20.7886C196.109 20.7817 195.998 20.8112 195.904 20.8727C195.81 20.9341 195.739 21.0242 195.7 21.1297C195.661 21.2352 195.658 21.3503 195.689 21.4582C195.721 21.5661 195.786 21.6608 195.875 21.7285C195.907 21.7518 195.941 21.7712 195.978 21.7864C196.211 21.8886 196.4 22.0736 196.506 22.3061C196.613 22.5386 196.631 22.8025 196.557 23.0474C196.545 23.0849 196.537 23.1237 196.534 23.1631C196.527 23.2753 196.557 23.3867 196.618 23.4808C196.679 23.575 196.769 23.6468 196.874 23.6857C196.979 23.7246 197.093 23.7285 197.201 23.6968C197.308 23.6651 197.403 23.5996 197.47 23.5098C197.493 23.478 197.513 23.4435 197.528 23.4071C197.629 23.1723 197.814 22.9834 198.045 22.8762C198.277 22.769 198.54 22.751 198.783 22.8257C198.821 22.8378 198.859 22.8454 198.899 22.8484C199.01 22.8552 199.121 22.8258 199.215 22.7643C199.309 22.7029 199.38 22.6127 199.419 22.5073C199.458 22.4018 199.462 22.2866 199.43 22.1788C199.399 22.0709 199.333 21.9761 199.244 21.9085C199.212 21.8852 199.178 21.8658 199.142 21.8506Z" fill="#4D8AF0"/>
<path opacity="0.5" d="M227.418 200.161C227.184 200.059 226.996 199.874 226.889 199.641C226.782 199.409 226.764 199.145 226.839 198.9C226.851 198.863 226.858 198.824 226.861 198.784C226.868 198.672 226.839 198.561 226.777 198.467C226.716 198.373 226.626 198.301 226.521 198.262C226.416 198.223 226.302 198.219 226.194 198.251C226.087 198.282 225.993 198.348 225.925 198.438C225.902 198.47 225.883 198.504 225.867 198.54C225.766 198.775 225.581 198.964 225.35 199.071C225.118 199.179 224.856 199.196 224.612 199.122C224.574 199.11 224.536 199.102 224.496 199.099C224.385 199.092 224.274 199.122 224.18 199.183C224.086 199.245 224.015 199.335 223.976 199.44C223.937 199.546 223.933 199.661 223.965 199.769C223.997 199.877 224.062 199.971 224.151 200.039C224.183 200.062 224.217 200.082 224.254 200.097C224.487 200.199 224.675 200.384 224.782 200.617C224.889 200.849 224.907 201.113 224.832 201.358C224.82 201.395 224.813 201.434 224.81 201.474C224.803 201.586 224.832 201.697 224.894 201.791C224.955 201.885 225.045 201.957 225.15 201.996C225.255 202.035 225.369 202.039 225.477 202.007C225.584 201.976 225.679 201.91 225.746 201.82C225.769 201.788 225.788 201.754 225.804 201.718C225.905 201.483 226.09 201.294 226.321 201.187C226.553 201.08 226.815 201.062 227.059 201.136C227.097 201.148 227.135 201.156 227.175 201.159C227.286 201.166 227.397 201.136 227.491 201.075C227.585 201.013 227.656 200.923 227.695 200.818C227.734 200.712 227.738 200.597 227.706 200.489C227.674 200.381 227.609 200.287 227.52 200.219C227.488 200.196 227.454 200.176 227.418 200.161Z" fill="#4D8AF0"/>
<path opacity="0.5" d="M3.47463 51.9475C3.24086 51.8453 3.0527 51.6603 2.94595 51.4278C2.83919 51.1953 2.82131 50.9314 2.8957 50.6865C2.90773 50.649 2.91531 50.6102 2.91829 50.5708C2.92509 50.4586 2.89572 50.3472 2.83453 50.2531C2.77334 50.1589 2.68359 50.0871 2.57857 50.0482C2.47354 50.0093 2.35883 50.0054 2.25142 50.0371C2.14402 50.0688 2.04963 50.1343 1.98224 50.2241C1.95907 50.2559 1.93971 50.2904 1.92459 50.3268C1.82278 50.5616 1.63856 50.7505 1.40701 50.8577C1.17546 50.9649 0.912746 50.9829 0.668865 50.9082C0.631476 50.8961 0.5928 50.8885 0.553633 50.8855C0.441897 50.8787 0.33094 50.9081 0.237199 50.9696C0.143458 51.031 0.071917 51.1212 0.0331742 51.2266C-0.00556859 51.3321 -0.00945388 51.4473 0.0220945 51.5551C0.053643 51.663 0.118948 51.7578 0.208335 51.8254C0.240048 51.8487 0.274386 51.8681 0.310636 51.8833C0.544401 51.9856 0.73257 52.1705 0.839323 52.4031C0.946076 52.6356 0.963958 52.8994 0.88957 53.1443C0.877533 53.1818 0.869951 53.2207 0.866979 53.26C0.860177 53.3722 0.889544 53.4836 0.950732 53.5777C1.01192 53.6719 1.10167 53.7437 1.2067 53.7826C1.31172 53.8215 1.42644 53.8254 1.53384 53.7938C1.64125 53.7621 1.73564 53.6965 1.80303 53.6067C1.8262 53.5749 1.84556 53.5404 1.86068 53.504C1.96249 53.2693 2.1467 53.0803 2.37825 52.9731C2.6098 52.8659 2.87252 52.848 3.1164 52.9227C3.15379 52.9347 3.19247 52.9424 3.23163 52.9453C3.34337 52.9522 3.45433 52.9227 3.54807 52.8612C3.64181 52.7998 3.71334 52.7097 3.75209 52.6042C3.79083 52.4987 3.79471 52.3836 3.76317 52.2757C3.73162 52.1678 3.66632 52.0731 3.57693 52.0054C3.54522 51.9821 3.51088 51.9627 3.47463 51.9475Z" fill="#4D8AF0"/>
<path opacity="0.5" d="M22.4504 82.3408C23.3874 82.3408 24.147 81.5781 24.147 80.6372C24.147 79.6963 23.3874 78.9336 22.4504 78.9336C21.5135 78.9336 20.7539 79.6963 20.7539 80.6372C20.7539 81.5781 21.5135 82.3408 22.4504 82.3408Z" fill="#47E6B1"/>
<path opacity="0.5" d="M241.303 95.9697C242.24 95.9697 243 95.207 243 94.2661C243 93.3252 242.24 92.5625 241.303 92.5625C240.367 92.5625 239.607 93.3252 239.607 94.2661C239.607 95.207 240.367 95.9697 241.303 95.9697Z" fill="#47E6B1"/>
<g opacity="0.5">
<path opacity="0.5" d="M165.808 0H164.959V4.82688H165.808V0Z" fill="#47E6B1"/>
<path opacity="0.5" d="M167.787 2.83935V1.98755L162.98 1.98755V2.83935L167.787 2.83935Z" fill="#47E6B1"/>
</g>
<g opacity="0.5">
<path opacity="0.5" d="M168.918 189.1H168.07V193.927H168.918V189.1Z" fill="#47E6B1"/>
<path opacity="0.5" d="M170.897 191.939V191.088H166.09V191.939H170.897Z" fill="#47E6B1"/>
</g>
<g opacity="0.5">
<path opacity="0.5" d="M8.31262 199.322H7.46436V204.149H8.31262V199.322Z" fill="#47E6B1"/>
<path opacity="0.5" d="M10.2915 202.161V201.309H5.48466V202.161H10.2915Z" fill="#47E6B1"/>
</g>
<g opacity="0.5">
<path opacity="0.5" d="M201.435 112.438H200.587V117.265H201.435V112.438Z" fill="#47E6B1"/>
<path opacity="0.5" d="M203.414 115.277V114.426H198.607V115.277H203.414Z" fill="#47E6B1"/>
</g>
<path opacity="0.5" d="M224.962 34.9291L226.784 36.606L229.365 32.7944L230.276 33.5568L226.784 38.1307L224.203 35.234L224.962 34.9291Z" fill="#47E6B1"/>
<path d="M172.953 67.9374L166.669 68.1821L166.982 76.2958L173.267 76.0511L172.953 67.9374Z" fill="#E9663A"/>
<path d="M144.604 96.3531C144.604 96.3531 135.901 92.1777 136.04 95.7837C136.179 99.3898 144.813 101.762 144.813 101.762L144.604 96.3531Z" fill="#FFB9B9"/>
<path d="M149.379 126.865C149.379 126.865 145.273 136.956 143.756 144.238C142.239 151.52 139.928 161.542 142.9 168.649C145.872 175.756 154.321 196.645 154.408 198.899C154.495 201.152 153.685 203.441 155.48 203.371C157.276 203.301 167.047 200.212 167.443 198.842C167.84 197.473 164.11 194.006 164.11 194.006L154.898 165.022L164.509 146.139L171.441 174.309L172.799 209.468C172.799 209.468 179.463 207.403 180.43 209.171C180.43 209.171 183.416 204.992 183.795 203.171C184.174 201.351 182.385 166.66 182.385 166.66C182.385 166.66 188.502 127.147 183.564 127.339C178.626 127.532 159.285 115.645 149.379 126.865Z" fill="#E9663A"/>
<path d="M155.411 201.568C155.411 201.568 150.856 211.677 150.425 212.145C149.993 212.614 147.025 217.244 149.27 217.156C151.514 217.069 156.814 214.605 160.714 210.842C164.615 207.079 169.758 200.558 169.292 200.125C168.825 199.692 165.631 198.462 165.631 198.462L155.411 201.568Z" fill="#575A89"/>
<path d="M173.61 207.18C173.61 207.18 173.335 211.705 172.507 213.543C171.679 215.381 171.784 218.085 174.028 217.998C176.272 217.911 182.073 216.782 182.073 216.782C182.073 216.782 182.418 214.06 181.951 213.626C181.485 213.193 179.498 208.305 180.344 206.918C181.189 205.53 173.61 207.18 173.61 207.18Z" fill="#575A89"/>
<path d="M176.93 60.3337C176.93 60.3337 181.715 67.8218 183.58 69.5549C185.445 71.2881 180.198 75.1039 180.198 75.1039L170.806 76.3725C170.806 76.3725 170.924 67.7906 170.441 66.9065C169.957 66.0225 176.93 60.3337 176.93 60.3337Z" fill="#FFB9B9"/>
<path d="M168.767 70.1317C168.767 70.1317 170.702 73.6679 172.497 73.5979C174.293 73.528 183.58 69.5549 183.977 68.1852C184.373 66.8154 187.053 77.9969 187.053 77.9969L164.327 118.157L158.784 114.31L161.47 90.7305L163.676 78.0044L168.767 70.1317Z" fill="#E9663A"/>
<path d="M184.815 106.073C183.909 107.978 183.342 109.963 183.421 111.996C183.424 112.086 183.428 112.177 183.436 112.267C183.651 116.438 185.181 121.263 185.731 124.772C186.129 127.289 186.016 129.126 184.549 129.558C180.992 130.6 185.067 131.344 171.308 135.943C157.55 140.541 155.148 136.572 155.114 135.67C155.079 134.769 157.062 127.92 156.596 127.487C156.13 127.053 150.071 133.158 148.241 132.326C146.411 131.495 148.032 126.917 148.032 126.917C148.032 126.917 152.155 117.277 152.068 115.023C151.981 112.769 158.314 102.139 158.314 102.139L162.622 73.9827C162.622 73.9827 164.278 70.3067 166.505 69.7686C168.732 69.2304 170.58 70.5127 170.58 70.5127L166.853 78.7837L162.921 93.3827L163.579 98.7744C163.579 98.7744 168.151 89.1162 171.154 85.3878C174.157 81.6593 180.56 72.8328 180.56 72.8328C180.56 72.8328 182.055 67.7681 180.926 66.2546C179.798 64.7366 185.633 64.5094 188.121 70.7326C189.44 74.0309 191.581 78.9494 192.922 83.5289C194.117 87.5859 194.682 91.3785 193.498 93.5464C191.688 96.8582 187.136 101.211 184.815 106.073Z" fill="#575A89"/>
<path opacity="0.1" d="M193.498 93.5465C191.688 96.8583 187.136 101.211 184.815 106.073C184.209 103.88 183.469 101.611 183.469 101.611C183.469 101.611 180.633 86.373 189.023 82.4349C190.413 82.2999 191.803 82.69 192.922 83.529C194.117 87.586 194.682 91.3786 193.498 93.5465Z" fill="black"/>
<path d="M160.194 92.5859L153.081 94.6686L143.205 95.0532L142.189 103.67L158.419 104.844C158.419 104.844 162.473 93.4001 160.194 92.5859Z" fill="#575A89"/>
<path d="M171.791 121.559C171.791 121.559 162.276 123.144 164.447 126.019C166.619 128.894 175.048 125.872 175.048 125.872L171.791 121.559Z" fill="#FFB9B9"/>
<path opacity="0.1" d="M183.436 112.266C183.651 116.438 185.181 121.263 185.73 124.772C182.699 127.653 179.817 130.194 178.731 130.236C176.486 130.324 172.878 130.013 171.548 130.516C170.219 131.019 169.439 122.472 169.439 122.472C169.439 122.472 170.233 119.733 173.772 118.24C176.16 117.231 180.739 114.493 183.436 112.266Z" fill="black"/>
<path d="M188.918 79.7301C188.918 79.7301 196.515 78.5314 196.104 91.1876C195.694 103.844 196.905 111.922 193.85 114.299C190.795 116.675 180.87 127.444 178.626 127.532C176.382 127.619 172.773 127.308 171.444 127.811C170.115 128.314 169.335 119.768 169.335 119.768C169.335 119.768 170.128 117.028 173.667 115.536C177.206 114.044 185.543 108.753 185.474 106.95C185.404 105.147 183.365 98.9066 183.365 98.9066C183.365 98.9066 180.529 83.6683 188.918 79.7301Z" fill="#575A89"/>
<path d="M170.232 71.4217C175.69 71.4217 180.114 66.9786 180.114 61.4976C180.114 56.0167 175.69 51.5735 170.232 51.5735C164.773 51.5735 160.349 56.0167 160.349 61.4976C160.349 66.9786 164.773 71.4217 170.232 71.4217Z" fill="#FFB9B9"/>
<path d="M163.577 47.2733C163.339 47.4795 163.054 47.6234 162.746 47.692C162.592 47.7196 162.433 47.6849 162.305 47.5953C162.176 47.5058 162.088 47.3687 162.059 47.2141C161.833 47.6849 161.578 48.1868 161.116 48.4284C160.655 48.67 159.941 48.4674 159.874 47.9489C159.807 48.3426 159.633 48.7102 159.373 49.012C159.086 49.2862 158.567 49.3554 158.317 49.0474C158.519 50.1569 158.394 51.2978 158.458 52.4239C158.521 53.55 158.82 54.7438 159.668 55.4843C160.903 56.5642 162.761 56.2976 164.387 56.0931C164.632 56.0413 164.887 56.0553 165.126 56.1337C165.735 56.394 165.707 57.2447 165.715 57.9089C165.765 59.0744 166.224 60.1844 167.012 61.042C167.799 61.8996 168.864 62.4492 170.017 62.5932C170.662 62.6931 171.32 62.5318 171.847 62.1446C172.308 61.7519 172.544 61.1117 173.073 60.8166C173.933 60.3366 174.976 61.0366 175.605 61.7966C176.234 62.5566 176.854 63.4915 177.828 63.6306C179.116 63.8146 180.098 62.4961 180.579 61.2819C181.243 59.5802 181.562 57.7621 181.515 55.9349C181.469 54.1077 181.058 52.3084 180.308 50.643C177.618 44.7539 168.427 43.8224 163.577 47.2733Z" fill="#2F2E41"/>
<defs>
<linearGradient id="paint0_linear" x1="97.5283" y1="104.884" x2="142.904" y2="104.884" gradientUnits="userSpaceOnUse">
<stop stop-color="#808080" stop-opacity="0.25"/>
<stop offset="0.53514" stop-color="#808080" stop-opacity="0.12"/>
<stop offset="1" stop-color="#808080" stop-opacity="0.1"/>
</linearGradient>
</defs>
</svg>
