<svg width="236" height="128" viewBox="0 0 236 128" fill="none" xmlns="http://www.w3.org/2000/svg">
<g clip-path="url(#clip0)">
<path opacity="0.1" d="M236 82.2113C236.004 85.6793 235.528 89.1348 234.583 92.5012C234.265 93.6355 233.896 94.7462 233.475 95.8334C232.96 97.1753 232.363 98.4918 231.688 99.7769C231.347 100.427 230.987 101.064 230.608 101.689C230.614 105.245 229.784 108.764 228.169 112.023C225.251 117.87 220.047 122.598 213.506 125.344C209.416 127.065 204.947 127.97 200.416 127.995H44.8004C37.8767 128.008 31.0727 126.404 25.0799 123.346L24.9878 123.3C24.1342 122.86 23.302 122.393 22.4912 121.901C20.6668 120.79 18.9528 119.544 17.3677 118.176C15.2222 116.328 13.3317 114.262 11.7353 112.023C7.98595 106.773 5.99975 100.694 6.00671 94.4907C2.2097 88.616 -0.00439453 81.5788 -0.00439453 74.0169C-0.00439453 64.4761 3.51411 55.7728 9.29479 49.1844C10.4999 47.8079 11.8201 46.5128 13.2441 45.3098C14.6491 44.1193 16.1594 43.0293 17.7604 42.05C19.0414 41.2656 20.3802 40.5574 21.7678 39.9298C22.3469 39.6701 22.928 39.4245 23.5191 39.1966C24.038 38.9934 24.563 38.8044 25.094 38.6259C25.7312 38.4127 26.3763 38.2166 27.0296 38.0376C27.6828 37.8585 28.3273 37.7019 28.9631 37.5676C29.8982 37.3662 30.8493 37.2025 31.8164 37.0764C32.6179 36.9722 33.4194 36.8997 34.2208 36.845C34.858 36.8026 35.5012 36.7796 36.1484 36.7725H36.499C37.2124 36.7725 37.9217 36.7973 38.625 36.8397C38.6991 36.7089 38.7793 36.5764 38.8534 36.4474C39.1339 35.9757 39.4244 35.5057 39.717 35.0464C39.7163 35.0423 39.7163 35.0381 39.717 35.034C39.7671 34.9527 39.8172 34.8732 39.8693 34.7955C40.1057 34.4192 40.3522 34.0464 40.6046 33.6771C40.7208 33.5004 40.8351 33.3343 40.9533 33.1682C40.9783 33.127 41.0057 33.0869 41.0354 33.0481C41.1556 32.8714 41.2779 32.6947 41.4021 32.5181C42.0206 31.6464 42.6638 30.7901 43.3317 29.9491L43.502 29.7336C43.6062 29.6028 43.7024 29.4756 43.8186 29.3449C44.0951 29.0039 44.3796 28.6611 44.6661 28.3254C44.8665 28.0851 45.0669 27.8466 45.2833 27.6187C45.8042 27.0298 46.3386 26.4408 46.8862 25.8519C47.4339 25.263 48.003 24.6817 48.5934 24.1081C48.6735 24.0285 48.7537 23.9508 48.8378 23.8731L49.6934 23.0497C49.7355 23.0109 49.7716 22.9755 49.8116 22.9402C49.9138 22.843 50.012 22.7458 50.1222 22.6522C50.5811 22.2229 51.0519 21.8024 51.5248 21.3836C53.9313 19.2701 56.4951 17.3004 59.199 15.4878C59.3052 15.4136 59.4134 15.3429 59.5196 15.2722C60.0285 14.9348 60.5455 14.6009 61.0624 14.2722C63.9059 12.4735 66.8782 10.8388 69.9609 9.37817C70.1733 9.27039 70.3897 9.16969 70.6081 9.07075C73.3717 7.78153 76.2139 6.62781 79.1218 5.61487C80.7067 5.06186 82.3277 4.54241 83.9587 4.06714C85.0447 3.75265 86.1347 3.45406 87.2388 3.17314C88.9646 2.73497 90.7025 2.34215 92.4524 1.99468C97.6078 0.974672 102.852 0.344578 108.129 0.111258C109.732 0.0394082 111.353 0.00230567 112.992 -5.00722e-05C120.901 -0.00928234 128.779 0.869408 136.436 2.61483C136.515 2.72032 136.623 2.80632 136.75 2.86474C136.878 2.92316 137.02 2.95207 137.163 2.94875H137.836C138.129 3.01943 138.419 3.0901 138.712 3.1643C140.346 3.57891 141.956 4.03181 143.543 4.52298L143.944 4.65019C147.86 5.87829 151.671 7.35448 155.347 9.06721C158.66 10.6074 161.85 12.3453 164.894 14.2687C165.363 14.5655 165.825 14.8647 166.281 15.1662C166.834 14.8541 167.396 14.5549 167.968 14.2687C170.176 13.1599 172.521 12.2784 174.957 11.6415C180.05 10.3125 185.439 10.1266 190.634 11.1008C197.296 12.3464 203.327 15.4383 208.198 19.8359C210.182 21.6352 211.947 23.6117 213.466 25.7335C213.576 25.8855 213.686 26.0392 213.793 26.1947C215.098 28.0726 216.22 30.045 217.147 32.0905C217.181 32.1665 217.215 32.2371 217.245 32.3114C218.1 34.2268 218.79 36.1965 219.309 38.2037C219.333 38.3061 219.361 38.4068 219.385 38.5093C219.87 40.4518 220.199 42.4219 220.371 44.4052C220.371 44.4758 220.371 44.5483 220.387 44.6225C220.471 45.6484 220.514 46.6849 220.515 47.7321C220.515 48.6685 220.479 49.5978 220.413 50.5201C220.413 50.6208 220.397 50.725 220.387 50.8293C220.369 51.0961 220.343 51.3593 220.317 51.6279C221.847 52.7163 223.279 53.9078 224.601 55.1915C225.184 55.7534 225.749 56.3364 226.296 56.9407C227.96 58.7798 229.422 60.7539 230.664 62.8365C234.052 68.4762 236 75.1105 236 82.2113Z" fill="#523AE9"/>
<path opacity="0.1" d="M213.358 124.691C213.358 125.897 208.644 127.028 200.416 128H44.8009C37.8772 128.013 31.0732 126.409 25.0804 123.351L24.9883 123.306C27.3526 122.546 31.6205 121.837 37.4293 121.198L37.6897 121.169C40.2946 120.889 43.2059 120.622 46.3878 120.369C46.468 120.369 46.5501 120.358 46.6303 120.35C49.1549 120.152 51.8406 119.966 54.6871 119.793C54.7773 119.793 54.8655 119.779 54.9556 119.775C56.0537 119.706 57.1744 119.64 58.3179 119.578L58.7587 119.553C67.0841 119.097 76.5475 118.733 86.8105 118.493H86.8225C88.2598 118.457 89.7125 118.426 91.1806 118.399C92.8129 118.365 94.4653 118.335 96.1377 118.309C97.4141 118.284 98.7065 118.267 100.003 118.249H100.033C105.882 118.171 111.925 118.132 118.104 118.132C133.385 118.132 147.827 118.378 160.625 118.82H160.661C162.629 118.887 164.56 118.961 166.444 119.037L168.047 119.104C170.172 119.194 172.242 119.29 174.258 119.392C197.962 120.581 213.358 122.512 213.358 124.691Z" fill="#E9663A"/>
<g opacity="0.2">
<path opacity="0.2" d="M136.308 117.321C136.301 117.512 136.277 117.702 136.234 117.889C134.839 117.693 133.436 117.516 132.026 117.359C132.026 117.309 132.026 117.258 132.026 117.207C132.039 116.677 132.212 116.16 132.527 115.708C132.94 115.132 133.567 114.772 134.258 114.791C134.949 114.811 135.548 115.205 135.919 115.8C136.199 116.268 136.334 116.793 136.308 117.321Z" fill="#3F3D56"/>
<path opacity="0.2" d="M136.423 114.302C136.472 112.936 135.552 111.802 134.369 111.769C133.185 111.736 132.186 112.817 132.137 114.183C132.088 115.549 133.008 116.684 134.191 116.717C135.375 116.75 136.374 115.669 136.423 114.302Z" fill="#3F3D56"/>
<path opacity="0.2" d="M136.532 111.277C136.581 109.911 135.661 108.777 134.478 108.744C133.294 108.711 132.295 109.792 132.246 111.158C132.197 112.524 133.117 113.659 134.301 113.692C135.484 113.725 136.483 112.644 136.532 111.277Z" fill="#3F3D56"/>
<path opacity="0.2" d="M136.64 108.253C136.689 106.886 135.769 105.752 134.585 105.719C133.402 105.686 132.403 106.767 132.354 108.133C132.305 109.5 133.225 110.634 134.408 110.667C135.592 110.7 136.591 109.619 136.64 108.253Z" fill="#3F3D56"/>
<path opacity="0.2" d="M136.747 105.228C136.796 103.861 135.876 102.727 134.693 102.694C133.509 102.661 132.51 103.742 132.461 105.108C132.412 106.475 133.332 107.609 134.515 107.642C135.699 107.675 136.698 106.594 136.747 105.228Z" fill="#3F3D56"/>
<path opacity="0.2" d="M127.311 84.2397C127.029 83.9028 126.774 83.5486 126.55 83.1796L132.212 82.5206L126.117 82.3916C125.573 81.254 125.298 80.0304 125.309 78.7958C125.319 77.5612 125.615 76.3415 126.179 75.2113L134.218 79.1778L126.854 74.0823C127.597 73.0229 128.58 72.1099 129.741 71.4004C130.902 70.6909 132.216 70.2001 133.602 69.9586C134.987 69.7172 136.415 69.7302 137.795 69.997C139.174 70.2638 140.477 70.7786 141.621 71.5092C142.765 72.2398 143.726 73.1706 144.443 74.2434C145.161 75.3162 145.62 76.5079 145.792 77.7442C145.964 78.9805 145.845 80.2348 145.443 81.4287C145.04 82.6226 144.363 83.7305 143.453 84.6832C143.892 85.2072 144.265 85.7718 144.565 86.367L137.133 89.5119L145.014 87.4217C145.51 88.8657 145.59 90.3959 145.246 91.874C144.903 93.352 144.147 94.7312 143.046 95.8865C144.19 97.2553 144.874 98.8804 145.02 100.576C145.167 102.271 144.768 103.969 143.872 105.474C142.975 106.98 141.616 108.233 139.95 109.089C138.284 109.945 136.379 110.371 134.451 110.318C132.524 110.264 130.652 109.733 129.051 108.786C127.449 107.839 126.183 106.513 125.395 104.961C124.608 103.409 124.332 101.692 124.599 100.008C124.866 98.3241 125.665 96.7403 126.904 95.4377C125.537 93.8019 124.834 91.8084 124.906 89.7776C124.979 87.7467 125.824 85.7963 127.305 84.2397H127.311Z" fill="#E9663A"/>
<path opacity="0.1" d="M145.451 90.3494C145.38 92.3814 144.533 94.3329 143.046 95.8866C144.19 97.2554 144.874 98.8805 145.02 100.576C145.166 102.272 144.768 103.969 143.872 105.475C142.975 106.98 141.616 108.233 139.95 109.089C138.284 109.946 136.379 110.371 134.451 110.318C132.524 110.264 130.652 109.733 129.051 108.786C127.449 107.839 126.183 106.513 125.395 104.961C124.608 103.409 124.332 101.692 124.599 100.008C124.866 98.3242 125.665 96.7403 126.904 95.4378C125.588 93.86 145.487 89.3335 145.451 90.3494Z" fill="black"/>
</g>
<g opacity="0.2">
<path opacity="0.2" d="M105.852 117.321C105.845 117.512 105.821 117.702 105.778 117.889C104.383 117.693 102.98 117.516 101.57 117.359C101.57 117.309 101.57 117.258 101.57 117.207C101.583 116.677 101.756 116.16 102.071 115.708C102.484 115.132 103.111 114.772 103.802 114.791C104.493 114.811 105.092 115.205 105.463 115.8C105.743 116.268 105.878 116.793 105.852 117.321Z" fill="#3F3D56"/>
<path opacity="0.2" d="M105.965 114.303C106.014 112.937 105.094 111.802 103.91 111.769C102.727 111.736 101.728 112.817 101.679 114.184C101.63 115.55 102.549 116.684 103.733 116.717C104.916 116.75 105.916 115.669 105.965 114.303Z" fill="#3F3D56"/>
<path opacity="0.2" d="M106.074 111.278C106.123 109.912 105.203 108.777 104.02 108.744C102.836 108.711 101.837 109.792 101.788 111.159C101.739 112.525 102.659 113.66 103.842 113.693C105.026 113.726 106.025 112.645 106.074 111.278Z" fill="#3F3D56"/>
<path opacity="0.2" d="M106.181 108.253C106.23 106.887 105.31 105.752 104.127 105.719C102.943 105.687 101.944 106.767 101.895 108.134C101.846 109.5 102.766 110.635 103.95 110.668C105.133 110.701 106.132 109.62 106.181 108.253Z" fill="#3F3D56"/>
<path opacity="0.2" d="M106.289 105.228C106.337 103.862 105.418 102.728 104.234 102.695C103.051 102.662 102.052 103.743 102.003 105.109C101.954 106.475 102.873 107.61 104.057 107.643C105.24 107.676 106.24 106.595 106.289 105.228Z" fill="#3F3D56"/>
<path opacity="0.2" d="M96.855 84.2397C96.5728 83.9028 96.3184 83.5486 96.0936 83.1796L101.756 82.5206L95.6608 82.3916C95.1169 81.254 94.8418 80.0304 94.8525 78.7958C94.8632 77.5612 95.1594 76.3415 95.7229 75.2113L103.762 79.1778L96.3982 74.0823C97.141 73.0229 98.1236 72.1099 99.2845 71.4004C100.445 70.6909 101.76 70.2001 103.146 69.9586C104.531 69.7172 105.959 69.7302 107.338 69.997C108.718 70.2638 110.021 70.7786 111.165 71.5092C112.309 72.2398 113.27 73.1706 113.987 74.2434C114.705 75.3162 115.164 76.5079 115.336 77.7442C115.508 78.9805 115.389 80.2348 114.987 81.4287C114.584 82.6226 113.907 83.7305 112.997 84.6832C113.436 85.2072 113.809 85.7718 114.109 86.367L106.677 89.5119L114.558 87.4217C115.054 88.8657 115.134 90.3959 114.79 91.874C114.447 93.352 113.691 94.7312 112.59 95.8865C113.734 97.2553 114.418 98.8804 114.564 100.576C114.71 102.271 114.312 103.969 113.416 105.474C112.519 106.98 111.16 108.233 109.494 109.089C107.828 109.945 105.923 110.371 103.995 110.318C102.068 110.264 100.196 109.733 98.5948 108.786C96.9933 107.839 95.7265 106.513 94.9392 104.961C94.1519 103.409 93.8759 101.692 94.1428 100.008C94.4097 98.3241 95.2086 96.7403 96.4483 95.4377C95.0813 93.8019 94.3777 91.8084 94.4504 89.7776C94.5231 87.7467 95.3678 85.7963 96.849 84.2397H96.855Z" fill="#E9663A"/>
<path opacity="0.1" d="M114.995 90.3494C114.924 92.3814 114.077 94.3329 112.59 95.8866C113.734 97.2554 114.418 98.8805 114.564 100.576C114.71 102.272 114.312 103.969 113.416 105.475C112.519 106.98 111.16 108.233 109.494 109.089C107.828 109.946 105.923 110.371 103.995 110.318C102.068 110.264 100.196 109.733 98.5948 108.786C96.9933 107.839 95.7265 106.513 94.9392 104.961C94.1519 103.409 93.8759 101.692 94.1428 100.008C94.4097 98.3242 95.2086 96.7403 96.4483 95.4378C95.1318 93.86 115.031 89.3335 114.995 90.3494Z" fill="black"/>
</g>
<g opacity="0.2">
<path opacity="0.2" d="M192.326 118.977C192.337 119.338 192.314 119.7 192.258 120.059C189.553 119.877 186.831 119.737 184.093 119.638C184.086 119.543 184.079 119.446 184.072 119.347C184.023 118.327 184.283 117.31 184.825 116.399C185.544 115.236 186.693 114.456 188.02 114.395C189.348 114.333 190.556 115.009 191.359 116.1C191.967 116.961 192.301 117.955 192.326 118.977Z" fill="#3F3D56"/>
<path opacity="0.2" d="M192.12 113.16C192.023 110.529 190.097 108.479 187.819 108.581C185.541 108.683 183.773 110.899 183.87 113.531C183.968 116.162 185.893 118.212 188.171 118.11C190.45 118.007 192.218 115.791 192.12 113.16Z" fill="#3F3D56"/>
<path opacity="0.2" d="M191.905 107.337C191.808 104.705 189.882 102.655 187.604 102.758C185.325 102.86 183.557 105.076 183.655 107.707C183.752 110.339 185.678 112.389 187.956 112.286C190.234 112.184 192.002 109.968 191.905 107.337Z" fill="#3F3D56"/>
<path opacity="0.2" d="M191.691 101.513C191.594 98.882 189.668 96.832 187.39 96.9344C185.112 97.0367 183.344 99.2528 183.441 101.884C183.538 104.515 185.464 106.565 187.742 106.463C190.02 106.361 191.788 104.145 191.691 101.513Z" fill="#3F3D56"/>
<path opacity="0.2" d="M191.222 95.4429C191.12 92.8107 189.189 90.7625 186.91 90.8681C184.631 90.9738 182.866 93.1932 182.968 95.8254C183.07 98.4576 185.001 100.506 187.28 100.4C189.559 100.295 191.324 98.0751 191.222 95.4429Z" fill="#3F3D56"/>
<path opacity="0.2" d="M170.42 56.7187C169.833 56.1112 169.296 55.4679 168.811 54.7935L179.59 52.7358L167.871 53.3403C166.667 51.2323 165.967 48.9216 165.814 46.5495C165.661 44.1775 166.058 41.794 166.982 39.5449L182.975 46.0338L168.125 37.2809C169.406 35.1474 171.167 33.2618 173.297 31.7417C175.427 30.2215 177.881 29.0994 180.506 28.4452C183.13 27.791 185.87 27.6187 188.553 27.9391C191.236 28.2595 193.806 29.0658 196.102 30.3076C198.398 31.5494 200.371 33.2002 201.898 35.157C203.425 37.1139 204.473 39.3349 204.977 41.6816C205.482 44.0283 205.431 46.4505 204.829 48.7971C204.227 51.1437 203.086 53.3645 201.478 55.3211C202.393 56.2667 203.188 57.2986 203.85 58.3989L190.019 65.4814L204.856 60.3609C206.012 63.0605 206.381 65.9842 205.931 68.8674C205.48 71.7506 204.225 74.5023 202.277 76.8733C204.665 79.3414 206.206 82.3658 206.723 85.6007C207.24 88.8357 206.714 92.1506 205.203 95.1663C203.692 98.1821 201.258 100.777 198.179 102.655C195.1 104.532 191.501 105.616 187.793 105.783C184.085 105.95 180.418 105.193 177.21 103.598C174.003 102.004 171.385 99.636 169.656 96.766C167.927 93.896 167.157 90.6395 167.433 87.3689C167.71 84.0982 169.022 80.9454 171.219 78.2709C168.367 75.3214 166.738 71.5931 166.593 67.6844C166.448 63.7756 167.795 59.9132 170.419 56.717L170.42 56.7187Z" fill="#E9663A"/>
<path opacity="0.1" d="M206.107 65.9085C206.26 69.8175 204.913 73.6818 202.285 76.8763C204.673 79.3444 206.214 82.3688 206.731 85.6038C207.249 88.8387 206.722 92.1536 205.211 95.1693C203.7 98.1851 201.266 100.78 198.187 102.658C195.108 104.535 191.509 105.619 187.801 105.786C184.093 105.953 180.426 105.196 177.218 103.601C174.011 102.007 171.393 99.639 169.664 96.769C167.935 93.899 167.165 90.6425 167.441 87.3719C167.718 84.1012 169.03 80.9484 171.227 78.274C168.46 75.4269 206.034 63.9527 206.107 65.9085Z" fill="black"/>
</g>
<path d="M31.6223 119.565L33.7242 119.56H36.6877L40.4346 65.8879L77.5411 11.2882L75.9282 9.76165V5.89587L35.798 64.6228L31.6223 119.565Z" fill="#F1C0C0"/>
<path opacity="0.1" d="M33.9487 119.56H36.6878L40.4347 65.8878L77.5413 11.2881L75.9283 9.7616L37.6536 65.0698L33.9487 119.56Z" fill="black"/>
<path d="M25.429 120.012L121.577 126.5L121.659 126.505L214.709 121.459L214.779 121.456V117.991L112.249 116.332L26.7093 116.26H26.0842L26.016 116.648L25.429 120.012Z" fill="#F1C0C0"/>
<path opacity="0.1" d="M25.429 120.012L121.577 126.5L121.659 126.505L214.709 121.459L214.779 121.392V118.063H214.697L121.577 120.806L26.7093 116.26H26.6953L26.527 116.357L26.016 116.648L25.429 120.012Z" fill="black"/>
<path opacity="0.1" d="M25.429 120.012L121.577 126.5V120.806L26.527 116.357L26.016 116.648L25.429 120.012Z" fill="black"/>
<path d="M75.9163 9.68923L118.305 49.8064L116.994 120.373L120.595 120.756L120.655 120.763H124.256L124.686 52.8365L204.059 76.2149L205.397 117.841L208.295 118.127L209.277 118.224L207.004 73.3279L124.031 47.642L78.5351 5.93652H75.9163V9.68923Z" fill="#F1C0C0"/>
<path opacity="0.1" d="M124.36 51.5378L124.686 52.8364L204.059 76.2149L205.398 117.841L208.295 118.127L206.023 75.3491L124.36 51.5378Z" fill="black"/>
<path opacity="0.1" d="M75.9163 9.68923L118.305 49.8064L116.994 120.373L120.595 120.756L121.577 47.4972L75.9163 5.93652V9.68923Z" fill="black"/>
<path d="M124.514 79.858L153.626 84.9128L153.636 84.9146L204.624 93.7716L206.958 92.9465L206.95 92.8016L206.798 89.9306L124.544 75.2749L124.514 79.858Z" fill="#F1C0C0"/>
<path opacity="0.1" d="M153.636 84.9146L204.624 93.7716L206.958 92.9465L206.95 92.8016L153.636 84.9146Z" fill="black"/>
<path d="M155.585 61.9373L156.373 100.16L156.78 119.77L160.364 119.664L162.62 119.597L161.919 62.4903L160.364 62.0344L160.024 61.9373H155.585Z" fill="#F1C0C0"/>
<path opacity="0.1" d="M155.617 61.9285V61.9373L156.373 100.16L156.78 119.77L160.364 119.664V61.9285H155.617Z" fill="black"/>
<path d="M99.4357 71.6988C99.646 71.7996 99.847 71.9148 100.037 72.0434C100.261 72.2166 100.463 72.4116 100.638 72.6247C101.498 73.6052 102.291 74.7448 102.207 75.9816C102.209 76.1615 102.17 76.34 102.093 76.5068C102.017 76.6735 101.903 76.8253 101.76 76.9533C101.405 77.2201 100.896 77.2325 100.432 77.2325C99.9266 77.2325 99.3956 77.2325 98.9588 77.0028C98.522 76.7731 98.1574 76.3261 97.6404 76.3367C97.5674 76.3474 97.493 76.3474 97.42 76.3367C97.2417 76.2855 97.2056 76.0788 97.0894 75.948C96.889 75.713 96.4662 75.7713 96.1517 75.8738C95.8371 75.9763 95.4884 76.13 95.1779 76.0116C94.9976 75.9277 94.8502 75.7978 94.7551 75.6388C94.0117 74.5787 93.8534 73.3049 93.7132 72.0734C93.627 71.3243 92.9698 68.7695 94.7831 69.3507C95.5846 69.6052 96.334 70.114 97.0633 70.4868L99.4357 71.6988Z" fill="#3F3D56"/>
<path d="M97.6444 71.9516C97.8064 72.0543 98.0027 72.1063 98.202 72.0992C98.4014 72.0922 98.5923 72.0265 98.7444 71.9127C99.0428 71.675 99.2329 71.3497 99.2794 70.9975C99.4798 70.9427 99.582 71.1742 99.7102 71.3155C99.9346 71.5558 100.391 71.5523 100.596 71.8084C100.738 71.9851 100.706 72.2307 100.806 72.4304C100.936 72.6883 101.259 72.8226 101.479 73.0311C101.688 73.2589 101.838 73.5234 101.92 73.8067L102.249 74.676C102.406 75.0375 102.507 75.4161 102.549 75.8014C102.57 75.9941 102.547 76.1885 102.482 76.3732C102.416 76.5579 102.31 76.7293 102.169 76.8774C101.728 77.2962 101.005 77.3403 100.365 77.328C100.152 77.332 99.9389 77.31 99.7323 77.2626C99.1652 77.1071 98.8026 76.6036 98.6523 76.0965C98.502 75.5894 98.518 75.0576 98.4299 74.5382C98.3346 74.0279 98.1663 73.5304 97.9289 73.0576C97.7526 72.6901 97.2677 72.1424 97.2757 71.7519C97.42 71.7519 97.5242 71.8685 97.6444 71.9516Z" fill="#3F3D56"/>
<path d="M98.3638 70.1618C98.2702 69.9109 98.2156 69.65 98.2015 69.3862C98.2015 68.8561 98.476 68.3579 98.7526 67.8844L96.4623 68.1583C96.1858 68.1918 95.8773 68.2413 95.721 68.4445C95.6616 68.5452 95.6306 68.657 95.6306 68.7704C95.6306 68.8839 95.6616 68.9957 95.721 69.0964C95.8358 69.298 95.9271 69.5093 95.9935 69.7272C95.9987 69.9178 96.0235 70.1076 96.0676 70.2943C96.1389 70.4315 96.2388 70.5555 96.3622 70.66C97.0174 71.2996 97.5083 72.0541 97.9972 72.8014C97.9831 72.7802 99.3777 71.8279 99.3216 71.5169C99.2895 71.3403 98.8868 71.1283 98.7586 70.9586C98.5814 70.7124 98.4483 70.4437 98.3638 70.1618Z" fill="#BE6F72"/>
<path d="M118 63.2588V64.9991L84.2035 70.8119L82.4503 71.7483H76.4011V70.7677L109.606 63.6934L118 63.2588Z" fill="#F1C0C0"/>
<path opacity="0.1" d="M118 64.9991L84.2035 70.8119L82.4503 71.7483H76.4011L109.853 65.4355L118 64.9991Z" fill="black"/>
<path d="M90.8659 112.662C90.4894 112.26 89.9696 111.982 89.3911 111.874C88.8126 111.765 88.2096 111.833 87.6801 112.065C87.5667 112.112 87.4668 112.181 87.3875 112.267C87.1872 112.514 87.3154 112.855 87.3334 113.161C87.3795 113.906 86.7063 114.512 86.1011 115.033C85.7765 115.313 85.4459 115.611 85.2997 115.991C85.1534 116.371 85.2616 116.853 85.6543 117.051C85.8257 117.127 86.0122 117.172 86.2033 117.185C86.8438 117.295 87.5005 117.312 88.1469 117.233C88.7861 117.125 89.4133 116.805 89.6898 116.286C89.7431 116.145 89.8314 116.017 89.9483 115.91C90.3009 115.664 90.8419 115.952 91.2426 115.777C91.5733 115.632 91.5873 115.404 91.5913 115.104C91.6033 114.274 91.4631 113.334 90.8659 112.662Z" fill="#E9663A"/>
<path d="M95.6747 112.631C95.9211 113.203 95.9552 113.827 95.9873 114.438C96.0053 114.791 96.0173 115.169 95.8009 115.468C95.5845 115.767 95.1617 115.924 94.757 115.998C93.9214 116.15 92.9536 116.007 92.4146 115.422C92.0019 114.975 91.9157 114.362 91.9919 113.783C92.056 113.307 92.1922 112.751 91.8055 112.413C91.7053 112.323 91.5751 112.26 91.4829 112.162C91.2826 111.947 91.3146 111.622 91.4228 111.357C91.5637 111.103 91.6694 110.836 91.7374 110.56C91.7534 110.429 94.4504 110.652 94.6989 110.76C95.0375 110.906 94.9854 111.152 95.0876 111.449C95.2299 111.862 95.5024 112.235 95.6747 112.631Z" fill="#E9663A"/>
<path d="M96.1697 87.2485C96.6986 87.5507 96.903 88.1443 96.9852 88.6956C97.2116 90.2062 96.8149 91.7327 96.7848 93.2575C96.7567 95.3935 97.458 97.5685 96.8589 99.6374C96.5003 100.874 96.8048 102.288 96.4682 103.537C96.368 103.908 96.1837 104.258 96.0875 104.629C95.8871 105.433 96.0975 106.274 96.3801 107.06C96.4703 107.272 96.5275 107.493 96.5504 107.719C96.5368 108.066 96.4369 108.406 96.2578 108.715L95.0556 111.222C94.9214 111.503 94.3924 111.549 94.0538 111.586C93.4166 111.653 92.7053 111.701 92.1983 111.353C91.6914 111.005 91.5692 110.422 91.491 109.878C91.3411 108.833 91.2742 107.781 91.2907 106.728C91.3127 106.453 91.2849 106.177 91.2085 105.91C91.0983 105.607 90.8559 105.346 90.7897 105.026C90.7056 104.613 90.944 104.206 91.0322 103.789C91.0926 103.409 91.0859 103.022 91.0121 102.643C90.934 102.077 90.8438 101.512 90.7416 100.95C90.5974 100.164 90.8038 99.3883 90.942 98.6003C91.0722 97.86 90.9059 97.1056 90.7416 96.3706C90.7558 96.9671 90.6715 97.5623 90.4912 98.1374C90.385 98.4183 90.2327 98.6869 90.1405 98.9731C89.7298 100.258 90.6054 101.606 90.4812 102.936C90.423 103.558 90.1465 104.173 90.2247 104.786C90.2788 105.235 90.5152 105.646 90.6775 106.074C90.8398 106.501 90.924 106.991 90.6775 107.39C90.0263 108.475 90.5132 109.95 91.0963 111.063C91.2146 111.261 91.3177 111.465 91.4049 111.675C91.5772 112.176 91.4329 112.715 91.479 113.238C91.3112 113.263 91.1393 113.253 90.9765 113.21C90.8136 113.166 90.6641 113.091 90.5393 112.989C90.4511 112.908 90.379 112.813 90.2928 112.728C90.0521 112.525 89.7671 112.368 89.4553 112.267C89.2722 112.176 89.0636 112.134 88.8542 112.145C88.6339 112.199 88.4359 112.307 88.2831 112.457C88.0849 112.611 87.8747 112.752 87.6539 112.88C87.5599 112.943 87.45 112.986 87.3333 113.005C87.2747 113.013 87.2147 113.005 87.1618 112.981C87.1089 112.957 87.0659 112.919 87.0388 112.873C87.0263 112.843 87.0188 112.812 87.0168 112.781C86.9423 112.247 86.9029 111.71 86.8985 111.173C86.8985 110.249 85.6442 109.613 85.4859 108.699C85.3597 107.963 85.5941 107.212 85.516 106.47C85.4779 106.088 85.3577 105.713 85.3657 105.332C85.3657 105.084 85.4298 104.842 85.4519 104.597C85.4702 104.324 85.4655 104.051 85.4378 103.779L85.3757 102.925C85.3156 102.083 85.2495 101.222 84.8728 100.452C84.4261 99.5524 84.1616 98.5909 84.0913 97.6109C84.0513 96.9925 84.0773 96.3741 83.9972 95.754C83.925 95.1939 83.7647 94.6373 83.8108 94.0755C83.8489 93.6408 84.0112 93.2203 84.0493 92.7857C84.1274 91.95 83.7667 91.1373 83.4842 90.3369C83.2017 89.5366 82.9933 88.6496 83.364 87.8775C83.417 87.7508 83.5052 87.6378 83.6205 87.5489C83.7626 87.466 83.9244 87.4128 84.0934 87.3934C87.5312 86.7566 91.055 86.5585 94.5567 86.8051C95.1275 86.8336 95.6816 86.9859 96.1697 87.2485Z" fill="#3F3D56"/>
<path d="M84.7946 68.4832C86.5674 68.4832 88.0046 67.216 88.0046 65.6528C88.0046 64.0896 86.5674 62.8224 84.7946 62.8224C83.0218 62.8224 81.5847 64.0896 81.5847 65.6528C81.5847 67.216 83.0218 68.4832 84.7946 68.4832Z" fill="#BE6F72"/>
<path d="M84.1736 69.1882C84.2197 69.35 84.2197 69.5193 84.1736 69.6811C84.1231 69.7942 84.052 69.8992 83.9632 69.9921C83.6525 70.3455 83.3086 70.6753 82.9353 70.978C83.1255 71.3525 83.4679 71.6507 83.8951 71.8137C84.3192 71.9729 84.7641 72.085 85.2195 72.1476C85.4468 72.2003 85.6834 72.2147 85.9168 72.19C86.1319 72.1423 86.3355 72.0609 86.5179 71.9497L88.3012 71.008C88.5703 70.8795 88.8195 70.7209 89.0426 70.5363C89.3696 70.2398 89.5548 69.8438 89.5595 69.4303C89.5678 69.3562 89.545 69.282 89.4954 69.2218C89.4271 69.1693 89.3413 69.1377 89.251 69.1317C88.6238 69.0098 88.1289 68.561 87.8484 68.0521C87.5948 67.5305 87.4307 66.9785 87.3615 66.4143L85.46 67.2977C85.1774 67.4302 84.8969 67.5627 84.6044 67.6776C84.418 67.7518 84.0413 67.8136 83.9091 67.9638C83.6566 68.2412 84.1075 68.8543 84.1736 69.1882Z" fill="#BE6F72"/>
<path d="M82.9472 70.4638C82.6764 70.6596 82.4651 70.9115 82.332 71.1971C82.2078 71.5504 82.332 71.9232 82.4442 72.273C82.9701 73.7641 83.3719 75.287 83.6465 76.8296C83.8148 77.8897 83.8769 78.9657 83.959 80.0382C84.1274 82.2255 84.3718 85.7132 84.6984 87.8863C85.9006 87.9341 87.0728 87.6249 88.265 87.5118C90.4931 87.3033 92.7874 87.7803 94.9694 87.3351C94.4404 85.4923 93.9114 82.3456 93.3825 80.5046C93.1484 79.7793 92.9861 79.0374 92.8976 78.2873C92.8515 77.7484 92.8795 77.2077 92.8875 76.6653C92.9056 75.6052 92.8395 74.5452 92.7733 73.4851C92.6972 72.2483 92.621 71.0115 92.2884 69.8013C92.2653 69.6471 92.1833 69.5044 92.056 69.3967C91.8556 69.2677 91.5952 69.3136 91.3567 69.3419C90.6266 69.4237 89.8877 69.2692 89.2769 68.9073C89.0124 68.7483 88.6577 68.5539 88.4113 68.7306C88.3061 68.8372 88.2367 68.9675 88.2109 69.1069C88.1018 69.3569 87.9335 69.5834 87.7172 69.7714C87.5009 69.9594 87.2416 70.1045 86.9566 70.197C86.3856 70.3794 85.7876 70.4877 85.1813 70.5186C84.9958 70.5537 84.8023 70.5345 84.6303 70.4638C84.3458 70.3101 84.3257 69.7571 83.9671 69.72C83.6525 69.6882 83.1596 70.2854 82.9472 70.4638Z" fill="#3F3D56"/>
<path d="M87.6881 74.7784C86.9487 74.1547 86.6241 73.2501 86.0851 72.4816C85.7181 71.9648 85.2492 71.51 84.7005 71.1388C84.4247 70.9782 84.1718 70.789 83.9472 70.5752C83.7568 70.3685 83.6125 70.0928 83.324 70.0133C83.2048 69.9905 83.081 69.9935 82.9634 70.0221C82.8458 70.0507 82.7378 70.1041 82.6488 70.1776C82.4721 70.3261 82.3049 70.483 82.1478 70.6476C81.2983 71.4232 79.8055 71.531 79.1323 72.4286C78.9506 72.6189 78.8272 72.8469 78.7736 73.0911C78.5798 74.3974 78.9628 75.7195 79.8436 76.7837C80.0141 77.0304 80.276 77.2176 80.5849 77.3138C80.543 77.6432 80.5925 77.9767 80.7292 78.2855C81.1002 79.4037 81.5561 80.4987 82.0937 81.563C81.9652 81.9793 81.8754 82.4041 81.8252 82.8333C81.685 83.9128 81.8152 85.0082 81.683 86.0895C81.5748 86.9729 81.2822 87.8334 81.2722 88.7185C81.2722 88.8599 81.2862 89.0277 81.4245 89.1002C81.498 89.1335 81.5804 89.1487 81.6629 89.1443L84.1275 89.2097C85.5581 89.2468 87.0028 89.2839 88.4114 89.0507C88.599 89.0262 88.7809 88.9755 88.9504 88.9005C89.4273 88.6655 89.5856 88.1355 89.6617 87.6637C89.7612 87.0518 89.8007 86.4335 89.7799 85.8157C90.0785 86.6478 90.4331 87.5083 91.3348 87.8687C91.8117 88.0595 92.3567 88.0454 92.8797 88.033C94.0068 87.9888 95.1302 87.8867 96.2439 87.7274C96.3125 87.7349 96.3822 87.7281 96.4473 87.7076C96.5125 87.6871 96.5712 87.6534 96.619 87.6093C96.6667 87.5651 96.702 87.5118 96.7221 87.4534C96.7423 87.3951 96.7466 87.3334 96.7348 87.2733L96.7468 86.3086C96.7709 84.3492 96.2198 82.4764 96.0054 80.5258C95.9373 79.911 95.9433 79.2891 95.773 78.6866C95.7029 78.4339 95.6007 78.1866 95.5386 77.9322C95.4851 77.6831 95.4516 77.431 95.4384 77.1777L95.2821 75.2343C95.208 74.3349 95.1018 73.4674 95.0236 72.5699C94.9807 71.6959 94.837 70.8281 94.5948 69.9798C94.4205 69.4497 94.0578 68.849 93.4307 68.7836C93.0961 68.7501 92.7715 68.879 92.4529 68.9691C91.6698 69.1865 90.8294 69.1834 90.0484 68.9603C89.8071 68.8763 89.5557 68.817 89.299 68.7836C89.1699 68.7681 89.0383 68.7832 88.9179 68.8273C88.7975 68.8714 88.6925 68.9429 88.6138 69.0345C88.536 69.1726 88.4995 69.3258 88.5076 69.4798C88.4134 71.2448 88.2391 73.0628 87.6881 74.7784Z" fill="#E9663A"/>
<path d="M84.464 74.8314C83.5403 73.9728 82.5925 73.0982 81.4023 72.5523C80.9334 72.3367 80.4005 72.1742 79.8815 72.2554C79.3625 72.3367 78.8796 72.7342 78.9037 73.1989C78.9197 73.4869 79.1181 73.7413 79.1802 74.024C79.2523 74.342 79.1481 74.6813 79.2604 74.9887C79.3515 75.1913 79.4878 75.3757 79.6611 75.5311L81.0797 77.0135C81.6808 77.6318 82.2819 78.2591 83.0554 78.6866C83.8288 79.1142 84.8306 79.3138 85.6802 79.0099C86.2847 78.7622 86.7872 78.3555 87.1189 77.8456C87.4715 77.3509 87.72 76.8103 88.0506 76.2997C88.5652 75.4838 89.2442 74.7575 90.0543 74.1565C89.6375 74.0611 89.1146 73.9268 88.8521 73.6265C88.7774 73.531 88.7136 73.4292 88.6617 73.3226L88.3371 72.7042C88.2267 72.6991 88.1163 72.7142 88.0129 72.7486C87.9094 72.783 87.8152 72.8358 87.736 72.9039C87.5968 73.0457 87.4476 73.1797 87.2892 73.3049C87.0067 73.4922 86.624 73.5434 86.3675 73.7572C86.2682 73.849 86.1784 73.9483 86.099 74.054C85.905 74.2789 85.6588 74.4645 85.3768 74.5986C85.0948 74.7327 84.7836 74.8121 84.464 74.8314Z" fill="#3F3D56"/>
<path d="M90.1285 71.137C90.8238 70.0186 90.7917 68.6776 90.9901 67.4144C91.0116 67.0798 91.1447 66.7583 91.3728 66.4903C91.7736 66.091 92.4809 66.0857 93.086 66.137C93.2643 66.1546 93.4867 66.2288 93.4767 66.3861C93.4627 66.4424 93.4315 66.4943 93.3865 66.5363C92.8 67.2037 92.4551 68.0115 92.3967 68.8543C92.7113 69.0469 93.1982 68.6511 93.5008 68.8543C93.7011 69.0027 93.609 69.296 93.4887 69.508C93.2095 69.9992 92.9217 70.4868 92.6251 70.9709C92.3884 71.3976 92.0797 71.7902 91.7094 72.1353C91.455 72.3508 91.1564 72.5204 90.8979 72.7325C90.2968 73.2289 89.9341 73.9304 89.313 74.4145C89.2605 74.4646 89.1895 74.4966 89.1126 74.5046C89.0336 74.4996 88.9591 74.4702 88.9022 74.4215C88.5919 74.199 88.3346 73.9246 88.1448 73.6141C87.9084 73.2289 87.9445 73.1159 88.3172 72.8438C89.0144 72.3579 89.6937 71.8367 90.1285 71.137Z" fill="#BE6F72"/>
<path d="M83.3019 74.0717C83.4221 74.1371 83.5704 74.2113 83.7026 74.1565C83.7566 74.1277 83.8026 74.0884 83.8369 74.0417C84.0659 73.7721 84.257 73.479 84.4059 73.1688C84.4315 73.125 84.4459 73.0768 84.448 73.0275C84.448 72.9144 84.3338 72.8314 84.2276 72.766C83.6585 72.4462 83.0468 72.1898 82.4062 72.0027C81.8772 71.8261 81.3242 71.6723 80.7632 71.7165C80.5524 71.729 80.3466 71.7789 80.1583 71.8634C79.9699 71.9478 79.8029 72.0649 79.6672 72.2077C79.2664 72.6618 79.9377 72.7996 80.3584 72.9639C81.3322 73.3544 82.3862 73.5805 83.3019 74.0717Z" fill="#E9663A"/>
<path opacity="0.1" d="M82.6707 77.0753C82.6639 77.1156 82.668 77.1568 82.6826 77.1954C82.6972 77.2341 82.722 77.2692 82.7548 77.2979C82.8129 77.047 82.7368 76.782 82.7969 76.5293C82.8851 76.1495 83.3038 75.8632 83.3399 75.4816C82.5725 75.3491 82.6767 76.6654 82.6707 77.0753Z" fill="black"/>
<path opacity="0.2" d="M118 63.2588V64.9991L109.853 65.4355L109.606 63.6934L118 63.2588Z" fill="black"/>
<path d="M81.9053 66.0734C82.4142 65.7077 82.1197 64.9409 82.4643 64.4497C82.6647 64.1812 83.0033 64.0398 83.3359 63.9197C83.7374 63.7541 84.1675 63.6489 84.6083 63.6087C84.8291 63.59 85.0518 63.6154 85.2599 63.683C85.4681 63.7506 85.6562 63.8587 85.8105 63.9992C85.9408 64.1299 86.0289 64.2889 86.1511 64.425C86.3025 64.5837 86.4998 64.7033 86.722 64.7711C86.9443 64.8389 87.1832 64.8524 87.4135 64.8101C87.68 64.7571 87.9565 64.5787 87.9384 64.3384C87.9084 64.1923 87.8237 64.0592 87.698 63.9603L87.1249 63.4002C86.4737 62.7642 85.7504 62.0893 84.7946 61.9303C84.1294 61.8189 83.4481 61.9762 82.807 62.1652C82.5485 62.2412 82.258 62.3543 82.1858 62.5857C82.1377 62.7447 82.2099 62.9179 82.1678 63.0787C82.0856 63.3985 81.6208 63.5062 81.4044 63.7748C81.188 64.0434 81.2541 64.3614 81.192 64.6582C81.1299 64.955 80.9495 65.2448 80.9275 65.5522C80.9135 65.7377 81.0197 66.0822 81.2561 66.1494C81.4925 66.2165 81.759 65.8526 81.9053 66.0734Z" fill="#3F3D56"/>
<path d="M87.7442 64.0839C87.5752 63.3066 87.211 62.5725 86.6782 61.9355C86.2045 61.3403 85.5454 60.8789 84.7807 60.6068C84.3984 60.4751 83.9873 60.4215 83.5781 60.4499C83.169 60.4784 82.7725 60.5882 82.4183 60.7711C81.8926 61.102 81.4835 61.5571 81.2382 62.0839C80.7192 63.0698 80.5268 64.2747 81.1299 65.2217C81.3704 64.9638 81.7832 65.0804 82.1478 64.9867C82.6047 64.8719 82.9914 64.6034 83.4262 64.4355C84.7386 63.9249 86.3416 64.3383 87.7442 64.0839Z" fill="#FED253"/>
<path opacity="0.1" d="M81.4365 64.0292C81.3904 63.7111 81.3603 63.3419 81.6168 63.1157C81.6296 63.1019 81.6458 63.0908 81.6642 63.0835C81.6827 63.0761 81.7028 63.0726 81.723 63.0733C81.7409 63.0784 81.7574 63.0867 81.7715 63.0977C81.7856 63.1086 81.7971 63.122 81.8052 63.1369C81.9532 63.343 82.0793 63.5606 82.1818 63.7871C82.0325 63.7568 81.8763 63.7666 81.7334 63.8155C81.5905 63.8643 81.4675 63.9498 81.3804 64.061" fill="black"/>
<path opacity="0.1" d="M86.1191 63.1315L86.0469 62.5008C86.0353 62.4488 86.0402 62.395 86.061 62.3453C86.0912 62.3037 86.1378 62.2734 86.1918 62.2604C86.2459 62.2473 86.3035 62.2524 86.3535 62.2746C86.4521 62.3228 86.5333 62.3944 86.5879 62.4813C86.7547 62.7071 86.8931 62.9482 87.0007 63.2004C86.678 63.1456 86.346 63.1492 86.0249 63.211" fill="black"/>
<path opacity="0.1" d="M87.9125 88.731V90.1727L86.5319 90.2539H79.2705V88.731H87.9125Z" fill="black"/>
<path d="M87.9124 88.7309V90.2539H79.2704L56.312 64.8949V63.697H61.1249L87.9124 88.7309Z" fill="#F1C0C0"/>
<path opacity="0.1" d="M87.9124 88.7309V90.2539H79.2704L56.312 64.8949V63.697H61.1249L87.9124 88.7309Z" fill="black"/>
<path opacity="0.1" d="M87.9124 88.7309V90.2539H79.2704L56.312 64.8949V63.697L79.3946 88.7309H87.9124Z" fill="black"/>
<path d="M59.3216 114.148C59.3367 114.22 59.3348 114.294 59.3162 114.365C59.2976 114.436 59.2625 114.502 59.2133 114.561C59.164 114.62 59.1016 114.668 59.0299 114.705C58.9582 114.741 58.8788 114.764 58.7966 114.772C58.2396 114.938 57.6485 115.102 57.2537 115.479C56.859 115.855 56.7809 116.553 57.2537 116.859C57.4955 116.987 57.773 117.054 58.0552 117.051C58.9629 117.106 59.9087 117.095 60.7322 116.756C61.3213 116.516 61.8763 116.106 62.5235 116.143C62.8581 116.161 63.2148 116.298 63.5133 116.164C63.8119 116.03 63.896 115.655 63.898 115.343C63.9056 114.69 63.794 114.04 63.5674 113.419C63.5374 113.334 62.263 113.268 62.1107 113.242L60.5659 113.065C60.2733 113.032 59.6422 112.837 59.4117 113.053C59.1813 113.268 59.3216 113.892 59.3216 114.148Z" fill="#E9663A"/>
<path d="M68.5406 109.738C68.606 110.056 68.7122 110.367 68.8572 110.664C69.0716 111.145 69.3461 111.655 69.8711 111.888C70.348 112.099 70.933 112.023 71.4179 111.823C71.6203 111.749 71.7977 111.63 71.9329 111.479C72.0893 111.238 72.1592 110.961 72.1333 110.685C72.1333 110.001 72.0872 109.295 71.7325 108.687C71.428 108.157 70.897 107.701 70.889 107.115L69.0636 107.425C68.9659 107.434 68.8728 107.466 68.7951 107.519C68.7373 107.573 68.6971 107.639 68.6789 107.712C68.484 108.373 68.437 109.061 68.5406 109.738Z" fill="#E9663A"/>
<path d="M46.7425 92.9536C46.6663 93.5225 46.6984 94.132 47.035 94.6232C47.3716 95.1144 48.0809 95.4395 48.6941 95.2434C48.7255 95.2363 48.755 95.2237 48.7808 95.2064C48.8066 95.1891 48.8282 95.1675 48.8443 95.1427C48.8606 95.0829 48.8514 95.02 48.8183 94.966C48.5476 94.329 48.5699 93.624 48.8804 93.0013C48.9205 92.92 49.0066 92.8246 49.1008 92.8564C49.1402 92.874 49.1719 92.9026 49.191 92.9377C49.288 93.0857 49.3365 93.2545 49.3312 93.4253C49.3029 93.5801 49.2976 93.7375 49.3152 93.8935C49.3533 94.0455 49.5376 94.1886 49.6979 94.1232C49.7442 94.0981 49.7843 94.065 49.8157 94.0258C49.847 93.9866 49.869 93.9422 49.8802 93.8953C50.3271 92.7557 50.1247 91.5101 49.9203 90.3175C49.922 90.2901 49.9169 90.2627 49.9053 90.2373C49.8937 90.2119 49.8759 90.189 49.8531 90.1703C49.8304 90.1516 49.8032 90.1375 49.7737 90.129C49.7441 90.1206 49.7127 90.118 49.6819 90.1214C48.7361 90.0384 48.2192 89.8387 47.6782 90.6143C47.2133 91.268 46.7425 92.1674 46.7425 92.9536Z" fill="#E9663A"/>
<path d="M57.7986 90.0542C57.5181 91.0825 57.2356 92.1232 57.2175 93.1797C57.2225 93.8378 57.2787 94.4949 57.3858 95.1462L57.5962 96.6762C57.6684 97.1921 57.7385 97.7063 57.8407 98.2169C57.9059 98.4799 57.9414 98.748 57.9469 99.0173C57.9272 99.2827 57.8796 99.5459 57.8046 99.8035C57.6786 100.345 57.6082 100.894 57.5942 101.447C57.5722 102.33 57.6964 103.213 57.7746 104.097C57.9306 105.857 57.9071 107.626 57.7044 109.383C57.6235 109.857 57.7403 110.341 58.033 110.745C58.1518 110.873 58.2497 111.014 58.3236 111.166C58.4739 111.57 58.1232 111.975 58.033 112.39C57.9754 112.714 58.0658 113.045 58.2844 113.31C58.5031 113.575 58.8321 113.752 59.1992 113.804C60.8022 113.972 62.4492 113.896 63.8939 114.542C64.0462 114.15 63.7135 113.705 63.8658 113.305C63.962 113.058 64.2265 112.897 64.4068 112.689C64.6491 112.371 64.7698 111.994 64.7515 111.611C64.7585 111.112 64.6579 110.616 64.4549 110.15C64.2846 109.761 64.0401 109.378 64.0542 108.961C64.0542 108.756 64.1363 108.54 64.0421 108.351C63.9776 108.243 63.8898 108.146 63.7837 108.067C63.1848 107.488 62.8168 106.753 62.7357 105.973C62.6576 105.199 62.6858 104.42 62.8199 103.652C62.9181 102.92 63.0503 102.148 63.5773 101.577C63.3329 99.8469 63.4766 98.091 64.0001 96.4094C64.0522 96.254 64.1343 96.0738 64.3146 96.0367C64.3863 96.0302 64.4586 96.039 64.5256 96.0624C64.5926 96.0857 64.6522 96.123 64.6994 96.1709C65.0139 96.4307 65.1642 96.807 65.3005 97.1674C65.4507 97.5579 65.603 97.9748 65.4888 98.3741C65.4407 98.5508 65.3445 98.7063 65.2884 98.8759C65.1665 99.2168 65.1879 99.5849 65.3486 99.913C65.4269 100.033 65.476 100.166 65.4928 100.303C65.4742 100.422 65.4336 100.536 65.3726 100.643C65.2983 100.852 65.2747 101.072 65.3033 101.29C65.332 101.508 65.4122 101.717 65.5389 101.906C65.7943 102.281 66.1094 102.622 66.4746 102.918C66.3001 103.597 66.3453 104.304 66.6049 104.961C66.6236 104.99 66.6356 105.023 66.64 105.057C66.6445 105.09 66.6414 105.124 66.6309 105.157C66.5949 105.224 66.5027 105.249 66.4306 105.297C66.2302 105.441 66.3544 105.715 66.4887 105.904C66.8566 106.423 67.2629 106.92 67.7049 107.392C68.1057 107.814 68.0696 108.629 68.6667 108.781C68.9176 108.828 69.1772 108.828 69.4281 108.781C70.0172 108.701 70.6744 108.551 70.9629 108.092C71.0812 107.903 71.1292 107.673 71.3136 107.532C71.4979 107.39 71.7364 107.365 71.8386 107.196C71.9407 107.026 71.8265 106.804 71.8606 106.607C71.8947 106.411 72.089 106.254 72.1511 106.047C72.2994 105.57 71.6682 105.178 71.5821 104.69C71.4578 103.984 72.4677 103.454 72.4256 102.747C72.3375 101.212 72.2814 99.6692 72.1912 98.1339C72.078 96.7585 72.062 95.3784 72.1431 94.0013C72.2132 93.1444 72.3435 92.2468 71.9868 91.45C71.4739 90.3263 70.0593 89.6956 68.6907 89.5754C67.3222 89.4553 65.9577 89.7415 64.6012 89.9288C62.3498 90.2347 60.0625 90.2769 57.7986 90.0542Z" fill="#3F3D56"/>
<path d="M61.8664 73.1671C63.6392 73.1671 65.0763 71.8999 65.0763 70.3367C65.0763 68.7735 63.6392 67.5062 61.8664 67.5062C60.0936 67.5062 58.6565 68.7735 58.6565 70.3367C58.6565 71.8999 60.0936 73.1671 61.8664 73.1671Z" fill="#FBBEBE"/>
<path d="M60.5599 73.6954C60.4509 73.9193 60.2675 74.1088 60.034 74.239C59.8005 74.3693 59.5277 74.4341 59.2515 74.4251C59.1353 74.8491 59.4138 75.2767 59.7324 75.6106C60.394 76.2894 61.2489 76.8004 62.209 77.0907C63.1691 77.3811 64.1997 77.4404 65.1945 77.2626C65.5816 77.2014 65.9489 77.0664 66.2705 76.8668C66.7041 76.5476 66.9952 76.1031 67.092 75.6124C67.1842 75.1251 67.2105 74.6298 67.1702 74.1371C67.1814 74.0398 67.1498 73.9424 67.082 73.865C67.0019 73.8103 66.9028 73.7816 66.8015 73.7837C66.1242 73.7307 65.4169 73.7077 64.8218 73.4144C64.2267 73.1212 63.8039 72.4586 64.0905 71.9144C64.0444 71.9992 62.8742 72.0399 62.7199 72.0575C62.237 72.1176 61.7542 72.1848 61.2733 72.2625C61.0422 72.2737 60.8138 72.3117 60.594 72.3756C60.3035 72.5081 60.4117 72.4427 60.4798 72.683C60.582 73.0505 60.7323 73.3137 60.5599 73.6954Z" fill="#FBBEBE"/>
<path d="M63.0024 75.4163C62.5701 75.4207 62.1388 75.3786 61.718 75.2909C61.2932 75.2034 60.9188 74.983 60.6641 74.6707C60.5158 74.4728 60.4196 74.2237 60.1832 74.1124C59.7965 73.9357 59.3557 74.2343 59.0471 74.5082C58.7661 74.7782 58.4405 75.0093 58.0813 75.1937C57.6525 75.3933 57.1516 75.464 56.7468 75.699C56.4306 75.9097 56.1593 76.1681 55.9454 76.4623L53.1061 79.8722C51.966 81.2432 50.9742 82.715 49.9583 84.162C49.0787 85.4147 48.6178 86.8564 47.9546 88.208C47.9021 88.2907 47.8803 88.3859 47.8925 88.4801C47.9165 88.572 48.0428 88.6462 48.1309 88.5932C47.8324 88.8547 48.0949 89.2999 48.0247 89.6674C47.945 89.9245 47.7787 90.1543 47.5479 90.3264C47.9889 90.2757 48.4366 90.2942 48.8703 90.3812C49.3185 90.4932 49.7415 90.6725 50.1206 90.9112C50.3631 90.8776 50.341 90.4978 50.5213 90.3564C50.6295 90.2734 50.7898 90.284 50.9321 90.2593C51.4671 90.1674 51.6795 89.6002 52.0902 89.2805C52.4329 89.0137 52.9178 88.9271 53.2804 88.6762C53.8695 88.2681 53.9958 87.5419 54.3043 86.9394C54.5668 86.4288 54.9796 85.9836 55.21 85.4606C55.3603 85.1214 55.4324 84.7539 55.6468 84.4412C55.9894 83.9359 56.6346 83.6673 57.2498 83.4252C57.6385 83.2715 58.0512 83.1125 58.47 83.1373C58.448 83.9588 58.3298 84.768 58.5321 85.5702C58.6023 85.8528 58.7004 86.1285 58.7846 86.4094C59.1673 87.6744 59.2575 88.9925 59.2755 90.2964C60.1961 90.1106 61.1364 90.0111 62.0807 89.9995C62.8241 89.9801 63.5654 90.0649 64.3088 90.0525C65.1904 90.0384 66.062 89.8882 66.9437 89.8352C67.8253 89.7822 68.747 89.8352 69.5264 90.1886C69.4632 89.0689 69.4987 87.9465 69.6326 86.8316L69.845 85.0755C69.893 84.5652 69.982 84.0586 70.1115 83.5595C70.2277 83.1567 70.3961 82.768 70.5243 82.3669C70.9751 80.9535 70.893 79.4446 70.8068 77.9729C70.7627 77.2167 70.4321 76.4729 70.0434 75.7997C69.9027 75.5497 69.742 75.3088 69.5625 75.0788C69.0928 74.5082 68.4668 74.0517 67.7429 73.752C67.019 73.4523 66.2209 73.3192 65.4229 73.365C65.3209 73.3678 65.2204 73.387 65.1263 73.4216C64.9572 73.5171 64.8251 73.6557 64.7476 73.8191C64.3331 74.4761 63.7316 75.0266 63.0024 75.4163Z" fill="#3F3D56"/>
<path d="M59.0431 71.2749C59.1333 71.0982 59.3757 71.0328 59.524 70.8915C59.8085 70.6229 59.6803 70.1936 59.7244 69.8314C59.7965 69.3014 60.2954 68.8579 60.8665 68.6688C61.4488 68.504 62.0685 68.4694 62.6698 68.5681C62.9593 68.5868 63.2389 68.6687 63.4833 68.8067C63.5875 68.8738 63.6837 68.9604 63.7819 69.0222C63.9608 69.1176 64.175 69.1475 64.3787 69.1056C64.5823 69.0637 64.7593 68.9532 64.8719 68.7978C64.1626 68.0452 63.3771 67.2501 62.2991 67.0186C61.9293 66.9521 61.5525 66.9207 61.1751 66.925C60.6761 66.9162 60.1612 66.9091 59.7003 67.0769C59.0732 67.3049 58.6323 67.8296 58.4059 68.395C58.2079 68.9681 58.102 69.5628 58.0914 70.1618C58.0503 70.5614 58.0503 70.9636 58.0914 71.3632C58.1688 71.909 58.3988 72.4293 58.7606 72.8774C58.8095 72.947 58.8787 73.0037 58.961 73.0417C59.8746 73.3951 58.969 71.4215 59.0431 71.2749Z" fill="#3F3D56"/>
<path d="M64.7676 68.3613C64.6574 67.5292 63.9842 66.8419 63.2689 66.2889C62.6923 65.8093 62.0055 65.4448 61.2551 65.2199C60.4997 65.0238 59.6301 65.0662 58.9829 65.4638C58.462 65.7835 58.1314 66.2924 57.8769 66.8048C57.5426 67.4094 57.377 68.0757 57.394 68.7482C57.4441 69.4161 57.8128 70.0928 58.47 70.4303C58.7064 70.1228 59.1172 69.9638 59.5119 69.8384C61.2323 69.2628 62.9868 68.7697 64.7676 68.3613Z" fill="#FED253"/>
<path opacity="0.1" d="M58.6906 68.0151C58.7547 68.0151 58.7968 68.0734 58.8288 68.1211C58.992 68.3452 59.1321 68.5818 59.2476 68.8278C59.0132 68.872 58.6104 68.9215 58.4942 68.7395C58.4321 68.6476 58.5062 68.0063 58.6906 68.0151Z" fill="black"/>
<path opacity="0.1" d="M63.257 67.6158C63.2089 67.6565 63.1528 67.5734 63.1528 67.5134V66.8279C63.1515 66.8088 63.1564 66.7898 63.1668 66.7731C63.1751 66.7647 63.1853 66.7579 63.1966 66.753C63.208 66.7482 63.2203 66.7454 63.2329 66.7448C63.3952 66.7289 63.5295 66.8508 63.6337 66.9674C63.7918 67.1564 63.9293 67.3581 64.0444 67.5699L63.1969 67.5469" fill="black"/>
<path d="M73.8343 78.9675C74.0187 78.8132 74.2156 78.6709 74.4234 78.5417C74.9784 78.2149 75.6496 78.0859 76.2728 77.8774C76.8959 77.6689 77.5291 77.3315 77.7716 76.7837C77.8929 76.4413 77.9325 76.0803 77.8878 75.7237C77.8936 75.5743 77.8635 75.4256 77.7996 75.2873C77.7233 75.165 77.6147 75.0607 77.483 74.9834C76.6375 74.4321 75.5034 74.388 74.4534 74.4445C72.1387 74.5711 69.8698 75.0705 67.7591 75.918C67.6475 75.9505 67.5496 76.0121 67.4786 76.0947C67.4375 76.1713 67.4189 76.2557 67.4245 76.3403C67.3871 76.8613 67.464 77.3838 67.6509 77.8792C67.9274 78.5082 68.4964 79.0152 68.7349 79.6566C68.8431 79.9446 68.8791 80.2502 68.9733 80.54C69.0506 80.8392 69.2513 81.1025 69.5364 81.2785C70.3278 81.6955 71.0752 81.1354 71.6242 80.7008L73.8343 78.9675Z" fill="#3F3D56"/>
<path d="M63.4693 81.4145L62.4534 79.4604C62.3044 79.1896 62.1759 78.9105 62.0687 78.6247C61.9525 78.2837 61.8964 77.9304 61.7882 77.5876C61.4315 76.4463 60.5318 75.4957 60.093 74.3773C60.0653 74.2763 60.0087 74.1833 59.9287 74.107C59.8647 74.0671 59.7915 74.04 59.7142 74.0278C59.637 74.0156 59.5577 74.0185 59.4819 74.0363C58.8688 74.13 58.3899 74.5416 57.8288 74.7749C57.5684 74.8809 57.2878 74.9515 57.0274 75.0734C56.8972 75.1278 56.7818 75.2063 56.6891 75.3036C56.5964 75.4008 56.5287 75.5146 56.4904 75.6371C56.4283 75.9074 56.5805 76.1671 56.7088 76.4303C57.2538 77.5152 57.378 78.7272 57.4021 79.9145C57.4201 80.7131 57.374 81.57 56.839 82.2114C55.8111 83.4481 56.4683 85.2644 56.853 86.7609C56.8991 86.9376 56.9532 87.1284 56.9853 87.3157C57.0192 87.55 57.0346 87.7862 57.0314 88.0224C57.0314 88.8157 56.9813 89.6337 56.6046 90.3528C56.9765 90.5273 57.3864 90.6297 57.8068 90.6532C58.9703 90.7839 60.1384 90.8758 61.3113 90.9288C61.6787 90.9592 62.0493 90.9426 62.4113 90.8793C62.8413 90.7769 63.2202 90.551 63.4884 90.2375C63.7565 89.9239 63.8986 89.5405 63.892 89.1478C63.9562 89.6372 64.0744 90.1691 64.4771 90.5083C64.8799 90.8475 65.467 90.8987 66.014 90.9253C67.5578 90.9974 69.1057 90.959 70.6425 90.8104C70.7406 90.8065 70.8371 90.7867 70.927 90.7521C71.2236 90.6214 71.2396 90.2609 71.2156 89.9712C71.1715 89.4288 71.1254 88.8863 71.0513 88.3475C70.9884 88.0039 70.9563 87.6566 70.9551 87.3086C70.9857 86.9506 71.0527 86.5958 71.1555 86.2485C71.424 85.146 71.6364 84.0206 71.5462 82.8916C71.5106 82.6165 71.4978 82.3396 71.5081 82.0629C71.5602 81.4393 71.9329 80.8456 71.8628 80.2255C71.6624 78.4021 71.5001 76.5311 70.923 74.7713C70.8188 74.4568 70.6866 74.1194 70.376 73.9392C69.9753 73.7024 69.4122 73.8261 68.9534 73.6759C68.7381 73.5875 68.5334 73.4804 68.3423 73.3561C67.9271 73.1271 67.4511 72.998 66.9617 72.9815C66.593 72.9692 66.1823 73.0416 65.9599 73.3031C65.8569 73.4503 65.7887 73.6144 65.7595 73.7854C65.469 74.8632 65.1283 75.9286 64.7877 76.994L64.4611 78.0152L63.5855 80.7573C63.4993 81.0488 63.5574 81.1389 63.4693 81.4145Z" fill="#E9663A"/>
<path d="M68.5926 70.7166L87.9745 88.6762V90.1992H79.3325L64.7676 73.4374" fill="#F1C0C0"/>
<path opacity="0.1" d="M68.5926 70.7166L87.9745 88.6762V90.1992H79.3325L64.7676 73.4374" fill="black"/>
<path opacity="0.1" d="M65.0761 73.2007L65.1383 73.2201L79.4567 88.6762H87.9745V90.1992H79.3325L64.7676 73.4374L65.0761 73.2007Z" fill="black"/>
<path d="M67.3063 73.5787C66.605 73.849 65.8256 74.1953 65.6152 74.8455C65.5736 74.9596 65.5647 75.081 65.5891 75.1989C65.6404 75.3375 65.7381 75.4591 65.8694 75.5478C66.0007 75.6364 66.1594 75.6879 66.3245 75.6953C66.6545 75.7024 66.9825 75.6494 67.2883 75.5398L71.4259 74.3349C71.5381 74.3031 71.6664 74.2554 71.6944 74.1582C71.7016 74.0971 71.6877 74.0355 71.6544 73.9815C71.5261 73.7059 71.3999 73.1423 71.1314 72.9497C70.911 72.7942 70.4742 72.849 70.2077 72.8525C69.1818 72.8596 68.218 73.2253 67.3063 73.5787Z" fill="#E9663A"/>
<path d="M70.9952 74.4781C71.6923 74.4763 72.3853 74.5711 73.049 74.759C73.7157 74.9499 74.3061 75.3055 74.7501 75.7838C74.8794 75.9174 74.9714 76.076 75.0186 76.2467C75.0587 76.4233 75.7119 76.5294 75.5677 76.6495C76.0065 76.5877 75.9023 76.7696 76.3471 76.7661C76.7919 76.7626 77.2728 76.6619 77.5393 76.3491C77.7244 76.0922 77.8069 75.7881 77.7737 75.4852C77.7796 75.2754 77.7345 75.067 77.6415 74.8739C77.4411 74.5028 76.9803 74.3032 76.5555 74.1318L72.9769 72.6883C72.7693 72.5909 72.5464 72.5213 72.3156 72.4816C72.1214 72.4654 71.9257 72.4696 71.7326 72.494L70.1116 72.6583C70.4661 72.8606 70.7547 73.1408 70.949 73.4714C71.1433 73.8019 71.2366 74.1714 71.2196 74.5435" fill="#3F3D56"/>
</g>
<defs>
<clipPath id="clip0">
<rect width="236" height="128" fill="white"/>
</clipPath>
</defs>
</svg>
