 <svg width="236" height="128" viewBox="0 0 236 128" fill="none" xmlns="http://www.w3.org/2000/svg">
<g clip-path="url(#clip0)">
<path d="M118.757 128C182.751 128 234.627 124.575 234.627 120.349C234.627 116.123 182.751 112.698 118.757 112.698C54.7638 112.698 2.88696 116.123 2.88696 120.349C2.88696 124.575 54.7638 128 118.757 128Z" fill="#F2F2F2"/>
<path d="M114.316 36.5903C95.4378 36.5903 81.8833 48.6709 81.8833 76.8589C81.8833 108.805 95.4378 117.262 114.316 117.262C133.195 117.262 147.557 108 147.557 76.8589C147.557 43.5702 133.195 36.5903 114.316 36.5903ZM114.44 106.658C101.365 106.658 94.5335 99.0063 94.5335 76.8795C94.5335 57.3559 101.644 47.0602 114.72 47.0602C127.796 47.0602 134.906 53.823 134.906 76.8795C134.906 98.4485 127.516 106.658 114.44 106.658Z" fill="#2F2E41"/>
<path d="M70.579 94.9798H62.7736V72.0542C62.7736 70.8365 62.2886 69.6687 61.4254 68.8077C60.5621 67.9467 59.3913 67.463 58.1705 67.463H56.3415C55.737 67.463 55.1384 67.5817 54.5799 67.8125C54.0215 68.0432 53.514 68.3814 53.0866 68.8077C52.6591 69.2341 52.3201 69.7402 52.0887 70.2972C51.8574 70.8543 51.7383 71.4513 51.7383 72.0542V94.9798H29.7219C29.269 94.9798 28.8237 94.863 28.4294 94.6408C28.035 94.4186 27.7049 94.0986 27.4712 93.7116C27.2374 93.3247 27.1078 92.8841 27.0951 92.4325C27.0823 91.9809 27.1868 91.5337 27.3984 91.1343L50.7004 47.1451C50.9909 46.5966 51.167 45.9952 51.218 45.377C51.269 44.7588 51.1939 44.1367 50.9973 43.5483C50.8006 42.9598 50.4864 42.4172 50.0737 41.9532C49.661 41.4893 49.1583 41.1135 48.596 40.8486L47.2204 40.2007C46.1523 39.6976 44.9311 39.6234 43.8097 39.9932C42.6882 40.3631 41.7522 41.1489 41.1953 42.1879L12.7755 95.2151C12.2915 96.1181 12.0383 97.1262 12.0383 98.1501C12.0383 98.9677 12.1998 99.7772 12.5135 100.533C12.8271 101.288 13.2869 101.974 13.8665 102.552C14.4461 103.13 15.1342 103.589 15.8915 103.902C16.6488 104.215 17.4604 104.376 18.2801 104.376H51.7383V118.872C51.7383 119.595 51.8811 120.311 52.1583 120.979C52.4356 121.646 52.842 122.253 53.3544 122.764C53.8668 123.275 54.475 123.68 55.1445 123.957C55.8139 124.233 56.5314 124.376 57.256 124.376H57.256C57.9805 124.376 58.698 124.233 59.3675 123.957C60.0369 123.68 60.6451 123.275 61.1575 122.764C61.6699 122.253 62.0763 121.646 62.3536 120.979C62.6309 120.311 62.7736 119.595 62.7736 118.872V104.376H70.579C71.8282 104.376 73.0263 103.881 73.9096 103C74.7929 102.119 75.2892 100.924 75.2892 99.6778C75.2892 98.4318 74.7929 97.2369 73.9096 96.3558C73.0263 95.4748 71.8282 94.9798 70.579 94.9798Z" fill="#E9663A"/>
<path d="M215.114 94.9798H207.309V72.0542C207.309 70.8365 206.824 69.6687 205.96 68.8077C205.097 67.9467 203.926 67.463 202.705 67.463H200.876C200.272 67.463 199.673 67.5817 199.115 67.8125C198.556 68.0432 198.049 68.3814 197.621 68.8077C197.194 69.2341 196.855 69.7402 196.624 70.2972C196.392 70.8543 196.273 71.4513 196.273 72.0542V94.9798H174.257C173.804 94.9798 173.359 94.863 172.964 94.6408C172.57 94.4186 172.24 94.0986 172.006 93.7116C171.772 93.3247 171.643 92.8841 171.63 92.4325C171.617 91.9809 171.722 91.5337 171.933 91.1343L195.235 47.1451C195.526 46.5966 195.702 45.9952 195.753 45.377C195.804 44.7588 195.729 44.1367 195.532 43.5483C195.336 42.9598 195.021 42.4172 194.609 41.9532C194.196 41.4893 193.693 41.1135 193.131 40.8486L191.755 40.2007C190.687 39.6976 189.466 39.6234 188.345 39.9932C187.223 40.3631 186.287 41.1489 185.73 42.1879L157.31 95.2151C156.826 96.1181 156.573 97.1262 156.573 98.1501C156.573 99.8013 157.231 101.385 158.401 102.552C159.572 103.72 161.16 104.376 162.815 104.376H196.273V118.872C196.273 120.332 196.855 121.732 197.889 122.764C198.924 123.796 200.327 124.376 201.791 124.376C203.254 124.376 204.658 123.796 205.692 122.764C206.727 121.732 207.308 120.332 207.308 118.872V104.376H215.114C216.363 104.376 217.561 103.881 218.445 103C219.328 102.119 219.824 100.924 219.824 99.6778C219.824 98.4318 219.328 97.2369 218.445 96.3558C217.561 95.4748 216.363 94.9798 215.114 94.9798Z" fill="#E9663A"/>
<path d="M72.7321 92.2952H64.9267V69.3697C64.9267 68.7667 64.8076 68.1697 64.5763 67.6127C64.345 67.0556 64.0059 66.5495 63.5784 66.1232C63.151 65.6968 62.6436 65.3586 62.0851 65.1279C61.5266 64.8972 60.928 64.7784 60.3235 64.7784H58.4946C57.2737 64.7784 56.1029 65.2621 55.2396 66.1232C54.3764 66.9842 53.8914 68.152 53.8914 69.3697V92.2952H31.875C31.422 92.2952 30.9768 92.1785 30.5824 91.9563C30.1881 91.7341 29.858 91.414 29.6242 91.0271C29.3904 90.6401 29.2609 90.1995 29.2482 89.7479C29.2354 89.2964 29.3399 88.8492 29.5515 88.4497L52.8535 44.4605C53.144 43.9121 53.3201 43.3106 53.3711 42.6924C53.4221 42.0742 53.347 41.4521 53.1504 40.8637C52.9537 40.2753 52.6395 39.7327 52.2268 39.2687C51.8141 38.8047 51.3114 38.4289 50.749 38.1641L49.3735 37.5162C48.3054 37.0131 47.0842 36.9388 45.9627 37.3087C44.8412 37.6786 43.9052 38.4643 43.3484 39.5033L14.9285 92.5306C14.4446 93.4336 14.1914 94.4417 14.1914 95.4656V95.4656C14.1914 97.1167 14.849 98.7002 16.0196 99.8678C17.1902 101.035 18.7778 101.691 20.4332 101.691H53.8914V116.188C53.8914 116.911 54.0341 117.626 54.3114 118.294C54.5887 118.962 54.9951 119.568 55.5075 120.079C56.0198 120.59 56.6281 120.996 57.2975 121.272C57.967 121.549 58.6845 121.691 59.409 121.691H59.409C60.8724 121.691 62.2758 121.111 63.3106 120.079C64.3453 119.047 64.9267 117.647 64.9267 116.188V101.691H72.7321C73.3506 101.691 73.9631 101.57 74.5346 101.334C75.1061 101.098 75.6253 100.751 76.0627 100.315C76.5001 99.879 76.847 99.3611 77.0837 98.7911C77.3204 98.2211 77.4423 97.6102 77.4423 96.9932V96.9932C77.4423 96.3763 77.3204 95.7654 77.0837 95.1954C76.847 94.6254 76.5001 94.1075 76.0627 93.6713C75.6253 93.235 75.1061 92.889 74.5346 92.6529C73.9631 92.4168 73.3506 92.2952 72.7321 92.2952V92.2952Z" stroke="#3F3D56" stroke-miterlimit="10"/>
<path d="M219.151 92.2952H211.346V69.3697C211.346 68.152 210.861 66.9842 209.998 66.1232C209.134 65.2621 207.963 64.7784 206.743 64.7784H204.914C204.309 64.7784 203.711 64.8972 203.152 65.1279C202.594 65.3586 202.086 65.6968 201.659 66.1232C201.231 66.5495 200.892 67.0556 200.661 67.6127C200.43 68.1697 200.311 68.7667 200.311 69.3697V92.2952H178.294C177.841 92.2952 177.396 92.1785 177.002 91.9563C176.607 91.7341 176.277 91.414 176.043 91.0271C175.81 90.6401 175.68 90.1995 175.667 89.7479C175.655 89.2964 175.759 88.8492 175.971 88.4497L199.273 44.4605C199.563 43.9121 199.739 43.3106 199.79 42.6924C199.841 42.0742 199.766 41.4521 199.57 40.8637C199.373 40.2753 199.059 39.7327 198.646 39.2687C198.233 38.8047 197.731 38.4289 197.168 38.1641L195.793 37.5162C194.725 37.0131 193.503 36.9388 192.382 37.3087C191.26 37.6786 190.324 38.4643 189.768 39.5033L161.348 92.5306C160.864 93.4336 160.611 94.4417 160.611 95.4656C160.611 97.1167 161.268 98.7002 162.439 99.8678C163.609 101.035 165.197 101.691 166.852 101.691H200.311V116.188C200.311 117.647 200.892 119.047 201.927 120.079C202.961 121.111 204.365 121.691 205.828 121.691V121.691C207.292 121.691 208.695 121.111 209.73 120.079C210.764 119.047 211.346 117.647 211.346 116.188V101.691H219.151C219.77 101.691 220.382 101.57 220.954 101.334C221.525 101.098 222.044 100.751 222.482 100.315C222.919 99.879 223.266 99.3611 223.503 98.7911C223.74 98.2211 223.861 97.6102 223.861 96.9932V96.9932C223.861 95.7473 223.365 94.5523 222.482 93.6713C221.599 92.7902 220.4 92.2952 219.151 92.2952V92.2952Z" stroke="#3F3D56" stroke-miterlimit="10"/>
<path d="M118.623 34.1743C99.7442 34.1743 86.1897 46.2549 86.1897 74.4429C86.1897 106.389 99.7442 114.846 118.623 114.846C137.501 114.846 151.863 105.584 151.863 74.4429C151.863 41.1542 137.501 34.1743 118.623 34.1743ZM118.747 104.242C105.671 104.242 98.8399 96.5903 98.8399 74.4635C98.8399 54.9399 105.951 44.6441 119.026 44.6441C132.102 44.6441 139.213 51.407 139.213 74.4635C139.213 96.0325 131.822 104.242 118.747 104.242V104.242Z" stroke="#3F3D56" stroke-miterlimit="10"/>
<path d="M103.49 6.82507C105.055 6.82507 106.324 5.55959 106.324 3.99853C106.324 2.43748 105.055 1.172 103.49 1.172C101.925 1.172 100.656 2.43748 100.656 3.99853C100.656 5.55959 101.925 6.82507 103.49 6.82507Z" fill="#2F2E41"/>
<path d="M110.402 20.5441C114.792 20.5441 118.351 15.9451 118.351 10.272C118.351 4.59895 114.792 0 110.402 0C106.012 0 102.454 4.59895 102.454 10.272C102.454 15.9451 106.012 20.5441 110.402 20.5441Z" fill="#2F2E41"/>
<path opacity="0.1" d="M110.402 17.4418C106.42 17.4418 103.122 13.658 102.544 8.72095C102.484 9.23581 102.453 9.75374 102.454 10.2721C102.454 15.9452 106.012 20.5441 110.402 20.5441C114.792 20.5441 118.351 15.9452 118.351 10.2721C118.351 9.75374 118.321 9.23581 118.261 8.72095C117.682 13.658 114.384 17.4418 110.402 17.4418Z" fill="black"/>
<path d="M126.577 40.3542C126.406 41.0538 125.67 41.6142 124.855 42.0057C123.141 42.8287 121.027 43.0744 118.977 43.1568C118.454 43.1885 117.929 43.1788 117.408 43.1279C116.397 43.0304 115.449 42.5957 114.717 41.8941C114.664 41.8601 114.622 41.8135 114.592 41.7585C114.563 41.7036 114.548 41.6421 114.549 41.5799C114.55 41.5177 114.567 41.4567 114.598 41.4027C114.629 41.3487 114.673 41.3034 114.726 41.271C115.818 40.075 117.639 39.3417 119.474 38.8137C120.866 38.4133 123.292 37.3762 124.81 37.5162C126.28 37.6518 126.792 39.4708 126.577 40.3542Z" fill="#3F3D56"/>
<path opacity="0.1" d="M126.577 40.3542C126.406 41.0538 125.67 41.6142 124.855 42.0057C123.141 42.8287 121.027 43.0744 118.977 43.1568C118.454 43.1885 117.929 43.1788 117.408 43.1279C116.397 43.0304 115.449 42.5957 114.717 41.8941C114.664 41.8601 114.622 41.8135 114.592 41.7585C114.563 41.7036 114.548 41.6421 114.549 41.5799C114.55 41.5177 114.567 41.4567 114.598 41.4027C114.629 41.3487 114.673 41.3034 114.726 41.271C115.818 40.075 117.639 39.3417 119.474 38.8137C120.866 38.4133 123.292 37.3762 124.81 37.5162C126.28 37.6518 126.792 39.4708 126.577 40.3542Z" fill="black"/>
<path d="M104.787 35.125C104.264 36.1476 104.169 37.3356 104.524 38.4278C104.884 39.5117 105.559 40.4646 106.463 41.1657C108.68 42.9385 111.732 43.1825 114.574 43.1579C117.064 43.1363 119.551 42.9662 122.022 42.6487C122.849 42.5756 123.663 42.3872 124.438 42.0891C125.366 41.6888 126.181 40.9547 126.511 40.0021C126.841 39.0494 126.607 37.8829 125.822 37.2472C125.133 36.6885 124.183 36.6117 123.297 36.5586L118.225 36.2546C118.726 35.7489 119.394 35.4628 120.004 35.0951C120.813 34.6073 121.351 33.7884 121.94 33.05C122.847 31.9689 123.833 30.957 124.892 30.0228C125.057 30.9672 125.656 31.7426 126.36 32.3942C127.065 33.0458 127.878 33.5704 128.611 34.1908C130.385 35.6934 131.663 37.7329 133.529 39.1205C134.813 38.784 136.013 38.1863 137.054 37.3651L136.329 36.0546C136.269 35.9197 136.175 35.8026 136.056 35.7144C135.85 35.5884 135.586 35.6533 135.347 35.6177C134.71 35.5224 134.432 34.7886 134.182 34.1963C133.495 32.5703 132.181 31.3087 131.059 29.9451C130.23 28.9386 129.495 27.8589 128.863 26.7195C128.486 26.0399 128.141 25.3324 127.629 24.747C127.118 24.1615 126.401 23.7012 125.622 23.6996C124.934 23.6981 124.299 24.0465 123.708 24.397C121.906 25.4644 120.172 26.6424 118.517 27.9241C117.651 28.5949 116.79 29.3036 115.774 29.715C115.346 29.8881 114.895 30.0065 114.484 30.2172C113.766 30.5862 113.22 31.2106 112.632 31.7649C110.537 33.7418 107.669 35.0226 104.787 35.125Z" fill="#3F3D56"/>
<path d="M115.391 21.0542C115.368 21.6585 115.239 22.2541 115.01 22.8143C114.894 23.0936 114.722 23.3462 114.504 23.5563C114.286 23.7664 114.027 23.9294 113.743 24.0352C113.34 24.1429 112.917 24.1566 112.508 24.0752C112.151 24.038 111.807 23.9211 111.502 23.7332C111.026 23.4071 110.789 22.8253 110.703 22.2558C110.616 21.6871 110.655 21.1059 110.6 20.533C110.546 20.0703 110.458 19.6122 110.336 19.1625C110.298 19.0129 110.26 18.864 110.223 18.7151C110.186 18.5662 110.151 18.4173 110.117 18.2684C110.087 18.1284 110.059 17.9878 110.034 17.8465C110.014 17.7272 109.996 17.6072 109.983 17.4866C109.971 17.1289 109.911 16.7745 109.806 16.4325C109.706 16.2107 109.582 16.0009 109.435 15.8072C109.372 15.7176 109.311 15.628 109.255 15.5349C109.094 15.293 109.018 15.0037 109.042 14.7138C109.049 14.669 109.059 14.6249 109.074 14.5821C109.08 14.5656 109.086 14.5491 109.093 14.5332C109.155 14.5164 109.212 14.4846 109.259 14.4408C109.306 14.3969 109.342 14.3423 109.363 14.2816C109.387 14.1511 109.376 14.0168 109.331 13.8921C109.279 13.7178 109.208 13.5497 109.12 13.3909C109.062 13.2861 108.865 13.0972 108.864 12.9772C108.861 12.7359 109.334 12.5415 109.525 12.4464C110.109 12.1545 110.761 12.0227 111.413 12.0644C111.831 12.0927 112.285 12.2209 112.516 12.5705C112.723 12.8855 112.695 13.2936 112.784 13.6597C112.793 13.7129 112.816 13.7629 112.85 13.8052C112.895 13.8462 112.951 13.8722 113.012 13.8796C113.114 13.8999 113.219 13.9041 113.323 13.892H113.324C113.351 13.8899 113.378 13.886 113.405 13.8803C113.567 13.8506 113.719 13.7849 113.852 13.688C113.938 13.6652 114.024 13.6466 114.111 13.6321C114.115 13.6318 114.118 13.6311 114.121 13.6301C114.468 14.72 114.513 15.8885 114.796 16.9985C114.936 17.5507 115.137 18.096 115.166 18.6641C115.168 18.6889 115.169 18.7144 115.169 18.7399C115.173 18.9226 115.159 19.1067 115.166 19.2887C115.169 19.3706 115.178 19.4522 115.194 19.5327C115.225 19.6621 115.264 19.7897 115.31 19.9146L115.312 19.9208C115.325 19.9608 115.337 20.0015 115.348 20.0422C115.355 20.0718 115.362 20.1008 115.368 20.1304L115.368 20.1325C115.419 20.4371 115.427 20.7474 115.391 21.0542Z" fill="#FBBEBE"/>
<path d="M110.54 13.9259C112.793 13.9259 114.618 12.1049 114.618 9.85847C114.618 7.61208 112.793 5.79102 110.54 5.79102C108.288 5.79102 106.462 7.61208 106.462 9.85847C106.462 12.1049 108.288 13.9259 110.54 13.9259Z" fill="#FBBEBE"/>
<path d="M136.431 32.0199C136.313 30.9102 135.917 29.8478 135.281 28.93C135.386 29.5573 135.492 30.1845 135.599 30.8114C135.467 30.8495 135.326 30.8483 135.195 30.808C135.064 30.7677 134.947 30.6901 134.859 30.5846C134.687 30.3707 134.556 30.1275 134.471 29.8669C134.008 28.7197 133.402 27.6351 132.668 26.6384C130.072 26.4227 127.506 25.3493 125.223 24.098C122.939 22.8474 120.802 21.348 118.549 20.0443C118.158 19.8088 117.751 19.6015 117.331 19.4239C116.626 19.1419 115.834 18.9957 115.166 18.6641C115.121 18.6421 115.076 18.6186 115.032 18.5945C114.881 18.5126 114.738 18.4168 114.605 18.3084C114.533 18.2501 114.464 18.1875 114.4 18.1209C114.067 17.7339 113.802 17.2927 113.618 16.8166C113.26 16.0251 113.132 15.0703 112.774 14.2789C112.938 14.1255 113.123 13.9954 113.323 13.8921H113.324C113.353 13.877 113.382 13.8625 113.412 13.8487C113.553 13.7821 113.701 13.7284 113.852 13.6881C113.938 13.6653 114.024 13.6467 114.111 13.6322C114.115 13.6319 114.118 13.6312 114.121 13.6301C114.525 13.5645 114.939 13.5972 115.328 13.7253C115.896 13.9169 116.375 14.2996 116.852 14.6615C117.628 15.2067 118.373 15.7955 119.081 16.425C119.475 16.8014 119.835 17.215 120.259 17.557C120.611 17.828 120.982 18.0734 121.369 18.2912C123.662 19.6534 125.955 21.0154 128.248 22.3772C129.024 22.8385 129.801 23.2997 130.56 23.7878C131.713 24.5296 132.824 25.3334 133.935 26.1365C134.59 26.6095 135.244 27.0826 135.898 27.556C136.113 27.6926 136.301 27.8663 136.454 28.0689C136.59 28.299 136.674 28.5556 136.701 28.8211C136.865 29.8937 136.773 30.9898 136.431 32.0199Z" fill="#FBBEBE"/>
<path d="M116.402 24.1131C116.127 25.3437 114.88 26.0876 114.229 27.1685C113.419 28.5101 113.749 30.0695 114.053 31.6062C113.497 32.084 112.941 32.5617 112.385 33.0395C112.078 33.3021 111.772 33.5662 111.441 33.7985C110.959 34.1205 110.456 34.4088 109.934 34.6616C109.442 34.9139 108.95 35.1665 108.458 35.4193C108 35.6758 107.516 35.8807 107.013 36.0301C106.043 36.2783 105.013 36.1045 104.054 35.8171C103.941 35.7875 103.832 35.7432 103.73 35.6854C103.67 35.6498 103.618 35.6027 103.577 35.5468C103.482 35.3777 103.448 35.1816 103.479 34.9905C103.577 33.38 103.972 31.8034 104.365 30.2384C104.575 29.2996 104.858 28.3783 105.21 27.4829C105.556 26.7157 105.953 25.9726 106.4 25.2589C106.892 24.3609 107.476 23.5157 108.141 22.7364C108.465 22.4365 108.738 22.0858 108.949 21.6982C109.194 21.1397 109.099 20.4993 109.149 19.8912C109.187 19.4344 109.309 18.9884 109.508 18.5752V18.5745C109.614 18.3519 109.743 18.1404 109.891 17.943C109.958 18.0988 110.025 18.2544 110.092 18.4097C110.136 18.5118 110.18 18.6136 110.223 18.7151C110.28 18.8461 110.336 18.9767 110.392 19.1067C110.553 19.4804 110.714 19.8538 110.874 20.227C111.048 20.697 111.295 21.1366 111.607 21.5293C111.75 21.7303 111.942 21.8911 112.165 21.9959C112.389 22.1006 112.636 22.1458 112.882 22.127C113.128 22.1081 113.365 22.026 113.57 21.8885C113.775 21.751 113.94 21.5628 114.05 21.3424C114.283 20.9311 114.451 20.4868 114.549 20.025C114.686 19.4627 114.705 18.8783 114.605 18.3084C114.438 17.2109 113.97 16.0899 113.63 15.0703C113.492 14.7303 113.412 14.3696 113.393 14.0031C113.394 13.9619 113.398 13.9209 113.405 13.8804C113.408 13.87 113.41 13.859 113.412 13.8487C113.553 13.7821 113.701 13.7284 113.852 13.688C113.938 13.6653 114.024 13.6467 114.111 13.6322C114.41 15.2482 114.71 16.8641 115.01 18.4801C115.017 18.518 115.025 18.5559 115.032 18.5945C115.075 18.8261 115.118 19.0578 115.167 19.2887C115.21 19.4983 115.257 19.7072 115.31 19.9147L115.312 19.9209C115.33 19.9912 115.348 20.0608 115.368 20.1305L115.368 20.1325C115.422 20.3228 115.481 20.5117 115.548 20.6979C115.955 21.8195 116.663 22.9487 116.402 24.1131Z" fill="#E9663A"/>
<path d="M132.953 41.4066C132.94 41.6437 132.986 41.8802 133.087 42.0953C133.342 42.5605 133.954 42.6663 134.484 42.7098C137.58 42.9636 140.694 42.8689 143.768 42.4277C143.935 42.4163 144.097 42.3662 144.241 42.2814C144.678 41.9757 144.408 41.2308 143.931 40.9924C143.454 40.7539 142.887 40.8114 142.364 40.7081C141.843 40.5775 141.348 40.3632 140.897 40.0736C139.835 39.465 138.788 38.8305 137.757 38.1701C137.143 37.7769 136.419 37.3573 135.728 37.5904C133.855 38.2223 132.94 39.3918 132.953 41.4066Z" fill="#3F3D56"/>
<path d="M110.133 18.1823V18.183C110.129 18.2119 110.124 18.2402 110.117 18.2684C110.11 18.3153 110.101 18.3629 110.092 18.4098C110.006 18.8475 109.901 19.2832 109.78 19.7162C109.448 20.9123 109.004 22.0891 108.563 23.2487C107.38 26.3578 106.196 29.4673 105.012 32.5769C104.714 33.3601 104.416 34.1439 104.077 34.9112C103.963 35.167 103.846 35.4248 103.73 35.6854C103.314 36.6182 102.915 37.5813 102.782 38.574C102.658 39.2273 102.644 39.8966 102.74 40.5546C102.872 41.2054 103.269 41.841 103.889 42.0816C104.191 42.1995 104.625 42.3574 104.542 42.6711C104.497 42.8434 104.3 42.9275 104.124 42.9565C103.891 42.9935 103.653 42.9789 103.427 42.9139C103.2 42.8488 102.991 42.7349 102.814 42.5801C102.483 42.2871 102.228 41.8314 101.788 41.7825C101.483 41.7494 101.203 41.9314 100.923 42.0589C99.7843 42.578 98.4572 42.2147 97.2607 41.8459C97.3547 41.3626 97.8413 41.0441 98.3245 40.9476C98.8076 40.8504 99.3073 40.9193 99.8001 40.9062C99.958 40.9146 100.115 40.8744 100.249 40.7911C100.369 40.681 100.453 40.5373 100.491 40.3788C100.808 39.4406 101.044 38.477 101.196 37.4985C101.355 36.4762 101.422 35.4379 101.648 34.4279C101.825 33.64 102.097 32.8768 102.331 32.1033C102.782 30.5107 103.153 28.8964 103.442 27.2665C103.588 26.5893 103.693 25.9039 103.755 25.2141C103.795 24.6419 103.776 24.067 103.831 23.4968C103.924 22.7551 104.079 22.0224 104.295 21.3066C104.506 20.5255 104.718 19.7449 104.929 18.9647C105.242 17.81 105.578 16.6104 106.371 15.7128C106.647 15.3968 106.985 15.1407 107.363 14.9602C107.742 14.7797 108.154 14.6787 108.574 14.6636C108.731 14.6634 108.888 14.6803 109.042 14.7139C109.068 14.7201 109.093 14.7263 109.119 14.7332C109.286 14.7769 109.447 14.8432 109.596 14.9304C109.841 14.7753 109.965 14.8297 110.128 15.0689C110.27 15.3221 110.337 15.6105 110.321 15.9004C110.335 16.6653 110.272 17.4298 110.133 18.1823Z" fill="#FBBEBE"/>
<path d="M110.402 19.0963L110.392 19.1067L110.336 19.1625L109.78 19.7161L109.508 18.5752L108.574 14.6635C108.731 14.6633 108.888 14.6802 109.042 14.7138C109.049 14.669 109.059 14.6249 109.074 14.5822L109.119 14.7331L109.435 15.8072L110.034 17.8465L110.133 18.1822V18.1829L110.402 19.0963Z" fill="#E9663A"/>
<path d="M113.929 6.61716C113.928 6.97936 113.856 7.33792 113.717 7.67234C113.577 8.00677 113.373 8.31049 113.116 8.56616C113.023 8.65922 112.923 8.74536 112.817 8.82389C112.34 9.18252 111.759 9.37663 111.162 9.37691H107.846C107.113 9.37578 106.411 9.08467 105.893 8.56749C105.375 8.05031 105.084 7.34934 105.084 6.61851C105.084 5.88767 105.375 5.18671 105.893 4.66953C106.411 4.15235 107.113 3.86124 107.846 3.86011H111.162C111.895 3.86201 112.597 4.15301 113.115 4.66957C113.634 5.18613 113.926 5.88629 113.929 6.61716Z" fill="#2F2E41"/>
<path d="M117.038 6.82507C118.603 6.82507 119.872 5.55959 119.872 3.99853C119.872 2.43748 118.603 1.172 117.038 1.172C115.473 1.172 114.204 2.43748 114.204 3.99853C114.204 5.55959 115.473 6.82507 117.038 6.82507Z" fill="#2F2E41"/>
<path opacity="0.1" d="M116.969 1.172C116.934 1.172 116.899 1.17337 116.865 1.17461C117.598 1.20119 118.292 1.51035 118.801 2.03703C119.311 2.56372 119.595 3.26687 119.595 3.99854C119.595 4.73021 119.311 5.43335 118.801 5.96004C118.292 6.48672 117.598 6.79588 116.865 6.82246C116.899 6.8237 116.934 6.82507 116.969 6.82507C117.72 6.82507 118.441 6.52728 118.973 5.9972C119.504 5.46712 119.803 4.74818 119.803 3.99854C119.803 3.24889 119.504 2.52995 118.973 1.99987C118.441 1.46979 117.72 1.172 116.969 1.172Z" fill="black"/>
<path opacity="0.1" d="M103.491 1.172C103.525 1.172 103.56 1.17337 103.594 1.17461C102.861 1.20119 102.167 1.51035 101.658 2.03703C101.149 2.56372 100.864 3.26687 100.864 3.99854C100.864 4.73021 101.149 5.43335 101.658 5.96004C102.167 6.48672 102.861 6.79588 103.594 6.82246C103.56 6.8237 103.525 6.82507 103.491 6.82507C102.739 6.82441 102.019 6.52633 101.488 5.99632C100.957 5.46631 100.659 4.74775 100.659 3.99854C100.659 3.24932 100.957 2.53076 101.488 2.00075C102.019 1.47074 102.739 1.17266 103.491 1.172Z" fill="black"/>
<path opacity="0.1" d="M112.817 8.82385C112.34 9.18248 111.759 9.37659 111.162 9.37687H107.846C107.248 9.37659 106.667 9.18248 106.19 8.82385H112.817Z" fill="black"/>
<path d="M134.231 29.3047C134.231 29.3047 134.945 31.358 135.599 30.8113L135.078 28.1274L134.231 29.3047Z" fill="#FBBEBE"/>
<path d="M221.167 91.9198C221.832 92.161 222.545 92.2449 223.248 92.1646C223.952 92.0844 224.627 91.8423 225.22 91.4574C225.814 91.0726 226.31 90.5554 226.669 89.9468C227.028 89.3382 227.24 88.6547 227.289 87.9502C227.338 87.2457 227.223 86.5395 226.951 85.8872C226.68 85.2349 226.261 84.6544 225.726 84.1913C225.192 83.7283 224.556 83.3955 223.871 83.2191C223.185 83.0426 222.468 83.0274 221.776 83.1747L221.89 85.5216L220.777 83.5103C219.684 84.0223 218.84 84.9461 218.43 86.0786C218.284 86.4753 218.196 86.8906 218.167 87.312C218.097 88.3009 218.352 89.2857 218.893 90.1172C219.434 90.9487 220.232 91.5815 221.167 91.9198Z" fill="#57B894"/>
<path d="M226.675 119.14C226.282 117.144 227.985 115.375 229.667 114.225C231.349 113.075 233.315 111.945 233.889 109.993C234.713 107.187 232.256 104.618 230.344 102.403C228.925 100.759 227.707 98.9528 226.715 97.0226C226.317 96.2487 225.951 95.4396 225.846 94.5762C225.696 93.3327 226.096 92.0954 226.5 90.9093C227.844 86.9581 229.281 83.04 230.811 79.155" stroke="#3F3D56" stroke-miterlimit="10"/>
<path d="M221.355 91.3155C222.02 91.5568 222.733 91.6406 223.436 91.5604C224.14 91.4802 224.815 91.2381 225.408 90.8532C226.002 90.4683 226.498 89.9512 226.857 89.3426C227.216 88.7339 227.429 88.0504 227.478 87.3459C227.527 86.6414 227.411 85.9352 227.14 85.2829C226.868 84.6306 226.449 84.0501 225.914 83.5871C225.38 83.1241 224.745 82.7912 224.059 82.6148C223.373 82.4384 222.656 82.4232 221.964 82.5704L222.078 84.9174L220.965 82.906C219.872 83.4181 219.028 84.3418 218.618 85.4743C218.473 85.871 218.384 86.2863 218.355 86.7078C218.285 87.6967 218.54 88.6815 219.081 89.513C219.622 90.3444 220.421 90.9772 221.355 91.3155V91.3155Z" stroke="#3F3D56" stroke-miterlimit="10"/>
<path d="M226.116 78.3445C226.378 77.6258 226.816 76.9843 227.391 76.4789C227.966 75.9736 228.659 75.6208 229.407 75.453L229.783 77.6842L230.481 75.3408C231.45 75.3552 232.389 75.6762 233.164 76.2577C233.938 76.8392 234.506 77.6511 234.788 78.576C235.069 79.5009 235.048 80.4911 234.729 81.4035C234.409 82.316 233.807 83.1035 233.009 83.6524C232.212 84.2013 231.26 84.4832 230.291 84.4573C229.322 84.4314 228.387 84.0992 227.62 83.5085C226.853 82.9178 226.294 82.0993 226.024 81.1711C225.753 80.2429 225.786 79.2531 226.116 78.3445H226.116Z" fill="#57B894"/>
<path d="M226.368 77.5388C226.629 76.8201 227.067 76.1786 227.642 75.6733C228.217 75.168 228.91 74.8151 229.658 74.6473L230.035 76.8785L230.732 74.5352C231.701 74.5495 232.641 74.8706 233.415 75.4521C234.189 76.0336 234.758 76.8454 235.039 77.7703C235.32 78.6952 235.3 79.6854 234.98 80.5978C234.66 81.5103 234.058 82.2978 233.261 82.8467C232.463 83.3956 231.511 83.6775 230.542 83.6516C229.574 83.6258 228.638 83.2935 227.871 82.7028C227.104 82.1122 226.545 81.2936 226.275 80.3654C226.005 79.4372 226.037 78.4474 226.368 77.5388H226.368Z" stroke="#3F3D56" stroke-miterlimit="10"/>
<path d="M229.542 102.448C230.597 102.83 231.756 102.811 232.799 102.395C233.841 101.979 234.693 101.195 235.193 100.193C235.693 99.1904 235.806 98.0395 235.51 96.9595C235.214 95.8795 234.53 94.9459 233.588 94.3367L233.052 96.1374L232.671 93.88C232.668 93.8782 232.664 93.8767 232.66 93.8756C232.095 93.671 231.496 93.5793 230.896 93.6058C230.296 93.6323 229.707 93.7764 229.163 94.03C228.619 94.2836 228.13 94.6416 227.725 95.0836C227.32 95.5256 227.006 96.0429 226.801 96.606C226.596 97.1691 226.505 97.7669 226.531 98.3653C226.558 98.9637 226.703 99.5509 226.958 100.093C227.212 100.636 227.572 101.123 228.015 101.527C228.458 101.931 228.977 102.244 229.542 102.448H229.542Z" fill="#57B894"/>
<path d="M229.759 101.632C230.814 102.014 231.974 101.995 233.016 101.579C234.058 101.163 234.911 100.379 235.411 99.3769C235.911 98.3745 236.023 97.2236 235.727 96.1435C235.431 95.0635 234.747 94.13 233.805 93.5208L233.269 95.3215L232.889 93.064C232.885 93.0623 232.881 93.0608 232.877 93.0596C232.313 92.855 231.713 92.7634 231.113 92.7899C230.513 92.8164 229.924 92.9605 229.38 93.2141C228.836 93.4677 228.348 93.8257 227.942 94.2677C227.537 94.7097 227.223 95.227 227.018 95.7901C226.813 96.3532 226.722 96.951 226.749 97.5494C226.776 98.1478 226.921 98.735 227.175 99.2775C227.43 99.8201 227.789 100.307 228.232 100.711C228.676 101.115 229.194 101.428 229.759 101.632H229.759Z" stroke="#3F3D56" stroke-miterlimit="10"/>
<path d="M224.782 110.021C224.964 111.05 225.495 111.987 226.286 112.672C227.077 113.358 228.081 113.751 229.129 113.787C230.177 113.822 231.204 113.497 232.04 112.866C232.876 112.234 233.469 111.336 233.719 110.321C233.97 109.305 233.863 108.235 233.416 107.289C232.969 106.344 232.21 105.58 231.266 105.126C230.321 104.672 229.249 104.556 228.229 104.797C227.209 105.038 226.303 105.622 225.663 106.45L227.7 109.508L224.917 107.885C224.701 108.576 224.655 109.308 224.782 110.021Z" fill="#57B894"/>
<path d="M224.971 109.416C225.152 110.446 225.683 111.382 226.474 112.068C227.266 112.754 228.269 113.147 229.317 113.182C230.365 113.217 231.393 112.892 232.228 112.261C233.064 111.63 233.657 110.732 233.908 109.717C234.158 108.701 234.051 107.631 233.604 106.685C233.157 105.739 232.398 104.975 231.454 104.522C230.509 104.068 229.437 103.952 228.417 104.193C227.397 104.434 226.491 105.017 225.852 105.846L227.888 108.903L225.105 107.28C224.89 107.971 224.843 108.704 224.971 109.416V109.416Z" stroke="#3F3D56" stroke-miterlimit="10"/>
<path d="M1.97865 103.027C2.41584 103.186 2.88397 103.241 3.34614 103.188C3.8083 103.136 4.25188 102.977 4.64191 102.724C5.03193 102.471 5.35774 102.131 5.59365 101.731C5.82957 101.331 5.96913 100.882 6.00136 100.419C6.03358 99.9565 5.95758 99.4925 5.77934 99.0639C5.6011 98.6354 5.3255 98.254 4.97426 97.9497C4.62302 97.6455 4.20574 97.4269 3.75531 97.3109C3.30488 97.195 2.83361 97.185 2.37865 97.2818L2.45384 98.8238L1.7224 97.5023C1.00454 97.8387 0.449956 98.4457 0.180532 99.1897C0.084848 99.4504 0.0266792 99.7232 0.00776101 100C-0.0384076 100.65 0.129018 101.297 0.484667 101.843C0.840316 102.389 1.3648 102.805 1.97865 103.027Z" fill="#57B894"/>
<path d="M5.59783 120.912C5.33963 119.601 6.45845 118.438 7.56359 117.682C8.66873 116.927 9.96002 116.184 10.3371 114.902C10.879 113.059 9.26479 111.371 8.0084 109.915C7.07627 108.835 6.2758 107.648 5.62372 106.38C5.34022 105.882 5.14713 105.338 5.05333 104.773C4.95427 103.956 5.21742 103.143 5.48253 102.364C6.36569 99.7676 7.30995 97.1934 8.3153 94.6409" stroke="#3F3D56" stroke-miterlimit="10"/>
<path d="M2.10219 102.63C2.53938 102.789 3.0075 102.844 3.46967 102.791C3.93184 102.739 4.37542 102.58 4.76544 102.327C5.15546 102.074 5.48127 101.734 5.71718 101.334C5.95309 100.934 6.09266 100.485 6.12489 100.022C6.15711 99.5595 6.08111 99.0955 5.90287 98.667C5.72463 98.2384 5.44903 97.857 5.09779 97.5528C4.74655 97.2486 4.32927 97.0299 3.87884 96.914C3.42841 96.798 2.95715 96.7881 2.50219 96.8848L2.57737 98.4268L1.84593 97.1053C1.12807 97.4417 0.573491 98.0487 0.304067 98.7927C0.208384 99.0534 0.150216 99.3262 0.131297 99.6031C0.0851254 100.253 0.25255 100.9 0.6082 101.446C0.96385 101.992 1.48834 102.408 2.10219 102.63V102.63Z" stroke="#3F3D56" stroke-miterlimit="10"/>
<path d="M5.23065 94.1083C5.40222 93.6362 5.69017 93.2146 6.06799 92.8827C6.4458 92.5507 6.90131 92.3188 7.39255 92.2086L7.63986 93.6745L8.09837 92.1349C8.73498 92.1443 9.35212 92.3553 9.86069 92.7373C10.3693 93.1194 10.7429 93.6527 10.9278 94.2604C11.1126 94.8681 11.099 95.5187 10.889 96.1182C10.679 96.7177 10.2834 97.2351 9.75938 97.5957C9.23532 97.9563 8.60992 98.1415 7.97347 98.1245C7.33701 98.1075 6.72244 97.8892 6.21848 97.5012C5.71452 97.1131 5.34724 96.5753 5.16969 95.9655C4.99213 95.3556 5.01348 94.7053 5.23065 94.1083Z" fill="#57B894"/>
<path d="M5.39544 93.579C5.56701 93.1069 5.85497 92.6854 6.23278 92.3534C6.61059 92.0214 7.06611 91.7895 7.55735 91.6793L7.80465 93.1452L8.26316 91.6056C8.89978 91.615 9.51692 91.826 10.0255 92.208C10.5341 92.5901 10.9077 93.1235 11.0926 93.7311C11.2774 94.3388 11.2638 94.9894 11.0538 95.5889C10.8438 96.1884 10.4482 96.7058 9.92417 97.0664C9.40012 97.427 8.77472 97.6122 8.13826 97.5952C7.50181 97.5782 6.88723 97.36 6.38327 96.9719C5.87931 96.5838 5.51204 96.046 5.33448 95.4362C5.15693 94.8263 5.17827 94.176 5.39544 93.579V93.579Z" stroke="#3F3D56" stroke-miterlimit="10"/>
<path d="M7.48094 109.945C8.17427 110.196 8.93591 110.183 9.62067 109.91C10.3054 109.637 10.8655 109.122 11.194 108.463C11.5225 107.804 11.5965 107.048 11.402 106.339C11.2075 105.629 10.758 105.016 10.1392 104.616L9.78686 105.799L9.53703 104.315C9.53456 104.314 9.53201 104.313 9.52939 104.313C9.15853 104.178 8.76473 104.118 8.3705 104.135C7.97627 104.152 7.58933 104.247 7.2318 104.414C6.87427 104.58 6.55316 104.816 6.28681 105.106C6.02047 105.396 5.81412 105.736 5.67954 106.106C5.54497 106.476 5.48483 106.869 5.50254 107.262C5.52025 107.656 5.61547 108.041 5.78276 108.398C5.95006 108.754 6.18614 109.074 6.47752 109.34C6.7689 109.605 7.10987 109.811 7.48094 109.945Z" fill="#57B894"/>
<path d="M7.62377 109.409C8.3171 109.659 9.07874 109.647 9.7635 109.374C10.4483 109.101 11.0083 108.586 11.3368 107.927C11.6653 107.268 11.7394 106.512 11.5448 105.803C11.3503 105.093 10.9008 104.48 10.282 104.079L9.92969 105.262L9.67986 103.779C9.6774 103.778 9.67484 103.777 9.67222 103.776C9.30144 103.642 8.9078 103.582 8.51378 103.6C8.11975 103.617 7.73305 103.712 7.37577 103.879C6.65419 104.215 6.09621 104.824 5.82457 105.571C5.55293 106.318 5.58988 107.142 5.92729 107.861C6.26471 108.581 6.87495 109.138 7.62377 109.409V109.409Z" stroke="#3F3D56" stroke-miterlimit="10"/>
<path d="M4.35425 114.92C4.47346 115.596 4.82229 116.212 5.34223 116.662C5.86217 117.113 6.52161 117.371 7.20994 117.394C7.89828 117.417 8.57366 117.204 9.12281 116.789C9.67196 116.374 10.0615 115.784 10.2261 115.117C10.3906 114.45 10.3202 113.747 10.0267 113.125C9.73317 112.504 9.23433 112.002 8.61385 111.704C7.99336 111.406 7.28897 111.33 6.6188 111.488C5.94863 111.646 5.35344 112.03 4.93305 112.574L6.27128 114.583L4.44275 113.517C4.30098 113.971 4.27062 114.452 4.35425 114.92Z" fill="#57B894"/>
<path d="M4.47778 114.523C4.597 115.2 4.94582 115.815 5.46576 116.265C5.98571 116.716 6.64514 116.974 7.33348 116.997C8.02182 117.02 8.69719 116.807 9.24634 116.392C9.79549 115.978 10.185 115.387 10.3496 114.72C10.5142 114.053 10.4438 113.35 10.1502 112.729C9.85671 112.107 9.35787 111.605 8.73738 111.307C8.11689 111.009 7.4125 110.933 6.74233 111.091C6.07216 111.249 5.47697 111.633 5.05658 112.177L6.39482 114.186L4.56629 113.12C4.42451 113.574 4.39416 114.055 4.47778 114.523V114.523Z" stroke="#3F3D56" stroke-miterlimit="10"/>
<path d="M105.644 74.7355C107.706 74.7355 109.378 72.5775 109.378 69.9155C109.378 67.2535 107.706 65.0955 105.644 65.0955C103.582 65.0955 101.91 67.2535 101.91 69.9155C101.91 72.5775 103.582 74.7355 105.644 74.7355Z" fill="#2F2E41"/>
<path d="M125.962 74.8451C128.025 74.8451 129.697 72.6871 129.697 70.0251C129.697 67.3631 128.025 65.2051 125.962 65.2051C123.9 65.2051 122.228 67.3631 122.228 70.0251C122.228 72.6871 123.9 74.8451 125.962 74.8451Z" fill="#2F2E41"/>
<path d="M123.107 84.266C123.107 86.4437 120.058 88.2096 116.298 88.2096C112.537 88.2096 109.488 86.4437 109.488 84.266C109.488 82.3796 111.775 80.8021 114.83 80.4165C115.317 80.3525 115.807 80.3211 116.298 80.3223C117.12 80.3197 117.94 80.4079 118.743 80.5852C121.295 81.1527 123.107 82.5877 123.107 84.266Z" fill="#2F2E41"/>
<path d="M106.523 73.64C108.585 73.64 110.257 71.482 110.257 68.82C110.257 66.158 108.585 64 106.523 64C104.46 64 102.789 66.158 102.789 68.82C102.789 71.482 104.46 73.64 106.523 73.64Z" stroke="#3F3D56" stroke-miterlimit="10"/>
<path d="M126.841 73.7496C128.903 73.7496 130.575 71.5916 130.575 68.9296C130.575 66.2676 128.903 64.1096 126.841 64.1096C124.779 64.1096 123.107 66.2676 123.107 68.9296C123.107 71.5916 124.779 73.7496 126.841 73.7496Z" stroke="#3F3D56" stroke-miterlimit="10"/>
<path d="M117.176 87.1142C120.937 87.1142 123.986 85.3486 123.986 83.1706C123.986 80.9926 120.937 79.2269 117.176 79.2269C113.416 79.2269 110.367 80.9926 110.367 83.1706C110.367 85.3486 113.416 87.1142 117.176 87.1142Z" stroke="#3F3D56" stroke-miterlimit="10"/>
<path d="M118.824 80.9139C118.826 81.1894 118.722 81.4552 118.534 81.6571C118.445 81.7538 118.337 81.8311 118.217 81.8842C118.097 81.9373 117.967 81.965 117.835 81.9656H115.639C115.368 81.9562 115.112 81.8403 114.927 81.6432C114.742 81.4461 114.642 81.1839 114.65 80.9139C114.649 80.7003 114.712 80.4912 114.83 80.3133C115.317 80.2451 115.807 80.2115 116.298 80.2128C117.121 80.2101 117.942 80.3043 118.743 80.4933C118.797 80.6269 118.824 80.7698 118.824 80.9139Z" fill="white"/>
<path d="M106.523 68.601C107.129 68.601 107.621 68.1105 107.621 67.5055C107.621 66.9005 107.129 66.41 106.523 66.41C105.916 66.41 105.425 66.9005 105.425 67.5055C105.425 68.1105 105.916 68.601 106.523 68.601Z" fill="white"/>
<path d="M126.951 68.601C127.558 68.601 128.049 68.1105 128.049 67.5055C128.049 66.9005 127.558 66.41 126.951 66.41C126.345 66.41 125.853 66.9005 125.853 67.5055C125.853 68.1105 126.345 68.601 126.951 68.601Z" fill="white"/>
<path opacity="0.3" d="M128.049 78.8982C128.656 78.8982 129.148 78.4077 129.148 77.8027C129.148 77.1977 128.656 76.7073 128.049 76.7073C127.443 76.7073 126.951 77.1977 126.951 77.8027C126.951 78.4077 127.443 78.8982 128.049 78.8982Z" fill="#E9663A"/>
<path opacity="0.3" d="M101.251 78.8982C101.857 78.8982 102.349 78.4077 102.349 77.8027C102.349 77.1977 101.857 76.7073 101.251 76.7073C100.644 76.7073 100.153 77.1977 100.153 77.8027C100.153 78.4077 100.644 78.8982 101.251 78.8982Z" fill="#E9663A"/>
</g>
<defs>
<clipPath id="clip0">
<rect width="236" height="128" fill="white"/>
</clipPath>
</defs>
</svg>
