<svg height="512pt" viewBox="0 0 512 512" width="512pt" xmlns="http://www.w3.org/2000/svg"><path d="m256 0c-140.699219 0-256 115.300781-256 256s115.300781 256 256 256 256-115.300781 256-256-115.300781-256-256-256zm0 0" fill="#ffda2d"/><path d="m512 256c0 140.699219-115.300781 256-256 256v-512c140.699219 0 256 115.300781 256 256zm0 0" fill="#fdbf00"/><path d="m166 241c-24.8125 0-45-20.1875-45-45s20.1875-45 45-45 45 20.1875 45 45-20.1875 45-45 45zm0 0" fill="#895d3c"/><path d="m166 211c-8.277344 0-15-6.738281-15-15s6.722656-15 15-15 15 6.738281 15 15-6.722656 15-15 15zm0 0" fill="#fff5f5"/><path d="m346 241c-24.8125 0-45-20.1875-45-45s20.1875-45 45-45 45 20.1875 45 45-20.1875 45-45 45zm0 0" fill="#714c2f"/><path d="m346 211c-8.277344 0-15-6.738281-15-15s6.722656-15 15-15 15 6.738281 15 15-6.722656 15-15 15zm0 0" fill="#efe2dd"/><path d="m256 241c-41.398438 0-75 40.5-75 90s33.601562 90 75 90 75-40.5 75-90-33.601562-90-75-90zm0 0" fill="#ff637b"/><path d="m376 121h-60c-8.289062 0-15-6.710938-15-15s6.710938-15 15-15h60c8.289062 0 15 6.710938 15 15s-6.710938 15-15 15zm0 0" fill="#714c2f"/><path d="m196 121h-60c-8.289062 0-15-6.710938-15-15s6.710938-15 15-15h60c8.289062 0 15 6.710938 15 15s-6.710938 15-15 15zm0 0" fill="#895d3c"/><path d="m331 331c0 49.5-33.601562 90-75 90v-180c41.398438 0 75 40.5 75 90zm0 0" fill="#e63950"/></svg>