<svg width="212" height="157" viewBox="0 0 212 157" fill="none" xmlns="http://www.w3.org/2000/svg">
<g clip-path="url(#clip0)">
<g opacity="0.1">
<path opacity="0.1" d="M169.751 111.231C169.751 111.231 154.616 109.264 165.903 133.779C165.903 133.779 176.189 129.368 176.599 119.418C176.682 117.481 176.053 115.581 174.83 114.078C173.608 112.575 171.877 111.573 169.965 111.262L169.751 111.231Z" fill="#E9663A"/>
<path opacity="0.1" d="M169.973 111.194C169.973 111.194 173.399 124.863 165.915 133.781" stroke="#535461" stroke-miterlimit="10"/>
<path opacity="0.1" d="M165.71 135.044C165.71 135.044 171.159 121.603 181.335 116.617C185.62 114.553 189.12 111.153 191.308 106.928C192.331 104.916 193.167 102.814 193.807 100.648" stroke="#535461" stroke-width="2" stroke-miterlimit="10"/>
<path opacity="0.1" d="M200.201 97.471C199.14 98.8055 193.65 100.759 193.65 100.759C193.65 100.759 194.311 94.9569 195.372 93.6322C195.614 93.2863 195.924 92.9937 196.283 92.7724C196.642 92.551 197.043 92.4055 197.461 92.345C197.878 92.2844 198.304 92.3099 198.711 92.4201C199.118 92.5302 199.499 92.7226 199.829 92.9853C200.159 93.2481 200.432 93.5757 200.631 93.948C200.83 94.3203 200.95 94.7294 200.985 95.1502C201.021 95.5709 200.969 95.9944 200.835 96.3945C200.7 96.7946 200.485 97.163 200.203 97.4769L200.201 97.471Z" fill="#E9663A"/>
<path opacity="0.1" d="M198.317 108.04C196.701 108.584 191.036 107.232 191.036 107.232C191.036 107.232 194.736 102.729 196.352 102.186C196.743 102.026 197.163 101.947 197.586 101.956C198.009 101.964 198.425 102.059 198.81 102.235C199.194 102.411 199.539 102.664 199.822 102.979C200.105 103.293 200.32 103.663 200.455 104.064C200.59 104.465 200.641 104.89 200.605 105.311C200.569 105.733 200.447 106.143 200.247 106.516C200.046 106.888 199.772 107.216 199.44 107.478C199.108 107.74 198.726 107.932 198.317 108.04Z" fill="#E9663A"/>
<path opacity="0.1" d="M188.102 120.535C186.435 120.189 182.224 116.159 182.224 116.159C182.224 116.159 187.689 114.142 189.358 114.488C190.114 114.699 190.761 115.189 191.169 115.859C191.577 116.53 191.715 117.33 191.555 118.099C191.396 118.867 190.95 119.546 190.309 119.998C189.668 120.45 188.879 120.642 188.102 120.533V120.535Z" fill="#E9663A"/>
<path opacity="0.1" d="M178.247 128.248C176.545 128.188 171.714 124.929 171.714 124.929C171.714 124.929 176.761 122.013 178.464 122.075C179.244 122.154 179.965 122.528 180.481 123.119C180.997 123.711 181.268 124.477 181.241 125.262C181.213 126.046 180.889 126.791 180.333 127.345C179.777 127.9 179.032 128.221 178.247 128.246V128.248Z" fill="#E9663A"/>
<path opacity="0.1" d="M185.76 103.447C185.979 105.139 189.668 109.649 189.668 109.649C189.668 109.649 192.097 104.35 191.88 102.658C191.854 102.235 191.741 101.823 191.548 101.446C191.356 101.069 191.089 100.735 190.762 100.465C190.436 100.196 190.058 99.9964 189.652 99.879C189.245 99.7617 188.819 99.729 188.399 99.7831C187.98 99.8372 187.576 99.9769 187.212 100.194C186.849 100.41 186.534 100.699 186.286 101.043C186.039 101.386 185.865 101.777 185.774 102.19C185.684 102.604 185.679 103.031 185.76 103.447Z" fill="#E9663A"/>
<path opacity="0.1" d="M174.348 112.622C175.061 114.169 179.93 117.369 179.93 117.369C179.93 117.369 180.665 111.585 179.952 110.038C179.8 109.643 179.568 109.283 179.272 108.982C178.976 108.68 178.621 108.442 178.229 108.283C177.838 108.124 177.417 108.047 176.995 108.056C176.572 108.066 176.156 108.163 175.772 108.34C175.388 108.517 175.044 108.771 174.762 109.086C174.481 109.402 174.266 109.771 174.133 110.173C173.999 110.574 173.949 110.999 173.986 111.421C174.023 111.842 174.146 112.251 174.348 112.624V112.622Z" fill="#E9663A"/>
<path opacity="0.1" d="M164.477 123.053C164.918 124.701 169.179 128.677 169.179 128.677C169.179 128.677 170.879 123.102 170.437 121.454C170.354 121.038 170.188 120.644 169.947 120.296C169.706 119.947 169.397 119.652 169.037 119.428C168.678 119.204 168.276 119.057 167.858 118.995C167.439 118.933 167.012 118.957 166.603 119.067C166.194 119.176 165.812 119.369 165.481 119.633C165.149 119.896 164.875 120.225 164.676 120.599C164.477 120.972 164.356 121.383 164.322 121.805C164.288 122.228 164.341 122.652 164.477 123.053Z" fill="#E9663A"/>
<path opacity="0.25" d="M200.201 97.471C199.14 98.8055 193.65 100.759 193.65 100.759C193.65 100.759 194.311 94.9569 195.372 93.6322C195.614 93.2863 195.924 92.9937 196.283 92.7724C196.642 92.551 197.043 92.4055 197.461 92.345C197.878 92.2844 198.304 92.3099 198.711 92.4201C199.118 92.5302 199.499 92.7226 199.829 92.9853C200.159 93.2481 200.432 93.5757 200.631 93.948C200.83 94.3203 200.95 94.7294 200.985 95.1502C201.021 95.5709 200.969 95.9944 200.835 96.3945C200.7 96.7946 200.485 97.163 200.203 97.4769L200.201 97.471Z" fill="black"/>
<path opacity="0.25" d="M198.317 108.04C196.701 108.584 191.036 107.232 191.036 107.232C191.036 107.232 194.736 102.729 196.352 102.186C196.743 102.026 197.163 101.947 197.586 101.956C198.009 101.964 198.425 102.059 198.81 102.235C199.194 102.411 199.539 102.664 199.822 102.979C200.105 103.293 200.32 103.663 200.455 104.064C200.59 104.465 200.641 104.89 200.605 105.311C200.569 105.733 200.447 106.143 200.247 106.516C200.046 106.888 199.772 107.216 199.44 107.478C199.108 107.74 198.726 107.932 198.317 108.04Z" fill="black"/>
<path opacity="0.25" d="M188.102 120.535C186.435 120.189 182.224 116.159 182.224 116.159C182.224 116.159 187.689 114.142 189.358 114.488C190.114 114.699 190.761 115.189 191.169 115.859C191.577 116.53 191.715 117.33 191.555 118.099C191.396 118.867 190.95 119.546 190.309 119.998C189.668 120.45 188.879 120.642 188.102 120.533V120.535Z" fill="black"/>
<path opacity="0.25" d="M178.247 128.248C176.545 128.188 171.714 124.929 171.714 124.929C171.714 124.929 176.761 122.013 178.464 122.075C179.244 122.154 179.965 122.528 180.481 123.119C180.997 123.711 181.268 124.477 181.241 125.262C181.213 126.046 180.889 126.791 180.333 127.345C179.777 127.9 179.032 128.221 178.247 128.246V128.248Z" fill="black"/>
<path opacity="0.25" d="M185.76 103.447C185.979 105.139 189.668 109.649 189.668 109.649C189.668 109.649 192.097 104.35 191.88 102.658C191.854 102.235 191.741 101.823 191.548 101.446C191.356 101.069 191.089 100.735 190.762 100.465C190.436 100.196 190.058 99.9964 189.652 99.879C189.245 99.7617 188.819 99.729 188.399 99.7831C187.98 99.8372 187.576 99.9769 187.212 100.194C186.849 100.41 186.534 100.699 186.286 101.043C186.039 101.386 185.865 101.777 185.774 102.19C185.684 102.604 185.679 103.031 185.76 103.447Z" fill="black"/>
<path opacity="0.25" d="M174.348 112.622C175.061 114.169 179.93 117.369 179.93 117.369C179.93 117.369 180.665 111.585 179.952 110.038C179.8 109.643 179.568 109.283 179.272 108.982C178.976 108.68 178.621 108.442 178.229 108.283C177.838 108.124 177.417 108.047 176.995 108.056C176.572 108.066 176.156 108.163 175.772 108.34C175.388 108.517 175.044 108.771 174.762 109.086C174.481 109.402 174.266 109.771 174.133 110.173C173.999 110.574 173.949 110.999 173.986 111.421C174.023 111.842 174.146 112.251 174.348 112.624V112.622Z" fill="black"/>
<path opacity="0.25" d="M164.477 123.053C164.918 124.701 169.179 128.677 169.179 128.677C169.179 128.677 170.879 123.102 170.437 121.454C170.354 121.038 170.188 120.644 169.947 120.296C169.706 119.947 169.397 119.652 169.037 119.428C168.678 119.204 168.276 119.057 167.858 118.995C167.439 118.933 167.012 118.957 166.603 119.067C166.194 119.176 165.812 119.369 165.481 119.633C165.149 119.896 164.875 120.225 164.676 120.599C164.477 120.972 164.356 121.383 164.322 121.805C164.288 122.228 164.341 122.652 164.477 123.053Z" fill="black"/>
<path opacity="0.1" d="M172.968 141.159C172.968 141.159 178.417 127.718 188.593 122.732C192.876 120.667 196.374 117.266 198.56 113.041C199.583 111.029 200.419 108.927 201.059 106.762" stroke="#535461" stroke-width="2" stroke-miterlimit="10"/>
<path opacity="0.1" d="M207.449 103.582C206.388 104.917 200.898 106.87 200.898 106.87C200.898 106.87 201.559 101.068 202.62 99.7435C203.147 99.1576 203.877 98.7949 204.662 98.7295C205.446 98.664 206.227 98.9006 206.843 99.3912C207.459 99.8817 207.865 100.589 207.978 101.369C208.091 102.149 207.903 102.943 207.451 103.588L207.449 103.582Z" fill="#E9663A"/>
<path opacity="0.1" d="M205.569 114.151C203.954 114.695 198.288 113.343 198.288 113.343C198.288 113.343 201.989 108.841 203.604 108.297C204.363 108.096 205.17 108.191 205.862 108.563C206.553 108.936 207.077 109.558 207.328 110.303C207.578 111.048 207.535 111.86 207.209 112.575C206.882 113.29 206.296 113.853 205.569 114.151Z" fill="#E9663A"/>
<path opacity="0.1" d="M195.355 126.654C193.687 126.308 189.476 122.278 189.476 122.278C189.476 122.278 194.941 120.261 196.611 120.607C197.366 120.818 198.013 121.308 198.421 121.978C198.829 122.649 198.967 123.449 198.808 124.218C198.648 124.986 198.202 125.665 197.561 126.117C196.92 126.569 196.131 126.761 195.355 126.652V126.654Z" fill="#E9663A"/>
<path opacity="0.1" d="M185.497 134.357C183.795 134.297 178.964 131.039 178.964 131.039C178.964 131.039 184.011 128.126 185.714 128.186C186.494 128.266 187.215 128.639 187.731 129.231C188.247 129.823 188.518 130.588 188.491 131.373C188.463 132.158 188.139 132.903 187.583 133.457C187.027 134.011 186.282 134.333 185.497 134.357Z" fill="#E9663A"/>
<path opacity="0.1" d="M193.011 109.566C193.229 111.258 196.918 115.768 196.918 115.768C196.918 115.768 199.347 110.469 199.13 108.777C199.104 108.354 198.991 107.942 198.799 107.565C198.606 107.188 198.339 106.854 198.013 106.585C197.686 106.315 197.308 106.115 196.902 105.998C196.495 105.881 196.069 105.848 195.65 105.902C195.23 105.956 194.826 106.096 194.463 106.313C194.099 106.529 193.784 106.818 193.537 107.162C193.289 107.505 193.115 107.896 193.024 108.309C192.934 108.723 192.929 109.151 193.011 109.566Z" fill="#E9663A"/>
<path opacity="0.1" d="M181.6 118.725C182.313 120.272 187.183 123.473 187.183 123.473C187.183 123.473 187.917 117.689 187.204 116.141C186.83 115.45 186.207 114.927 185.461 114.679C184.716 114.431 183.904 114.476 183.191 114.805C182.478 115.134 181.916 115.723 181.621 116.451C181.325 117.18 181.318 117.993 181.6 118.727V118.725Z" fill="#E9663A"/>
<path opacity="0.1" d="M171.73 129.169C172.17 130.816 176.431 134.792 176.431 134.792C176.431 134.792 178.132 129.217 177.689 127.569C177.436 126.826 176.91 126.207 176.218 125.837C175.526 125.467 174.719 125.375 173.962 125.578C173.204 125.782 172.552 126.266 172.137 126.932C171.723 127.599 171.577 128.398 171.73 129.169Z" fill="#E9663A"/>
</g>
<path opacity="0.1" d="M2.28979 83.1541C5.64438 97.504 12.7458 109.908 23.969 115.921C47.2927 128.416 99.8937 121.972 139.152 114.567C158.987 110.839 176.992 100.539 190.269 85.3259L2.28979 83.1541Z" fill="#E9663A"/>
<path opacity="0.1" d="M208.155 15.6089H186.615C186.121 15.6089 185.647 15.4126 185.298 15.0631C184.949 14.7137 184.753 14.2397 184.753 13.7455C184.753 13.2513 184.949 12.7774 185.298 12.4279C185.647 12.0785 186.121 11.8822 186.615 11.8822H190.338C189.844 11.8822 189.371 11.6859 189.022 11.3364C188.673 10.987 188.476 10.513 188.476 10.0188C188.476 9.52462 188.673 9.05067 189.022 8.70122C189.371 8.35178 189.844 8.15546 190.338 8.15546H187.679C187.186 8.15546 186.712 7.95914 186.363 7.60969C186.014 7.26024 185.817 6.78629 185.817 6.2921C185.817 5.7979 186.014 5.32395 186.363 4.9745C186.712 4.62505 187.186 4.42874 187.679 4.42874H198.922C196.427 3.26837 193.511 2.44257 190.153 2.00936C159.498 -1.93203 148.553 0.674938 144.692 3.36313C139.929 6.67018 134.615 9.10309 128.935 10.2751C110.019 14.1758 74.6474 18.8753 42.5875 8.76659C26.6532 3.73832 14.8097 12.2322 7.71216 26.4197H211.894C211.627 22.2965 210.829 18.4905 209.364 15.1564C209.028 15.4476 208.599 15.6083 208.155 15.6089Z" fill="#E9663A"/>
<path opacity="0.1" d="M0.46193 53.2029C-0.365024 61.5489 -0.083672 69.9678 1.29864 78.2399L190.416 85.1615C195.68 79.1007 200.1 72.3544 203.556 65.1064L0.46193 53.2029ZM75.26 71.063H71.5363C72.0301 71.063 72.5037 71.2593 72.8528 71.6087C73.202 71.9582 73.3982 72.4321 73.3982 72.9263C73.3982 73.4205 73.202 73.8945 72.8528 74.2439C72.5037 74.5934 72.0301 74.7897 71.5363 74.7897H49.9962C49.5024 74.7897 49.0289 74.5934 48.6797 74.2439C48.3306 73.8945 48.1344 73.4205 48.1344 72.9263C48.1344 72.4321 48.3306 71.9582 48.6797 71.6087C49.0289 71.2593 49.5024 71.063 49.9962 71.063H53.7199C53.2261 71.063 52.7525 70.8667 52.4034 70.5172C52.0542 70.1678 51.8581 69.6938 51.8581 69.1996C51.8581 68.7054 52.0542 68.2315 52.4034 67.882C52.7525 67.5326 53.2261 67.3363 53.7199 67.3363H51.061C50.5672 67.3363 50.0936 67.1399 49.7444 66.7905C49.3953 66.441 49.1991 65.9671 49.1991 65.4729C49.1991 64.9787 49.3953 64.5047 49.7444 64.1553C50.0936 63.8058 50.5672 63.6095 51.061 63.6095H72.6011C73.0948 63.6095 73.5684 63.8058 73.9176 64.1553C74.2667 64.5047 74.4629 64.9787 74.4629 65.4729C74.4629 65.9671 74.2667 66.441 73.9176 66.7905C73.5684 67.1399 73.0948 67.3363 72.6011 67.3363H75.26C75.7538 67.3363 76.2273 67.5326 76.5765 67.882C76.9257 68.2315 77.1218 68.7054 77.1218 69.1996C77.1218 69.6938 76.9257 70.1678 76.5765 70.5172C76.2273 70.8667 75.7538 71.063 75.26 71.063Z" fill="#E9663A"/>
<path opacity="0.1" d="M211.903 26.5493L5.43181 31.5775C2.92166 38.0389 1.26562 45.3434 0.492676 52.9148H208.286C209.643 48.4672 210.646 43.9192 211.287 39.3133C211.905 34.8633 212.153 30.5583 211.903 26.5493ZM42.4096 43.0207H38.6859C39.1797 43.0207 39.6533 43.217 40.0024 43.5665C40.3516 43.9159 40.5478 44.3899 40.5478 44.8841C40.5478 45.3783 40.3516 45.8522 40.0024 46.2017C39.6533 46.5511 39.1797 46.7474 38.6859 46.7474H17.1458C16.652 46.7474 16.1785 46.5511 15.8293 46.2017C15.4801 45.8522 15.284 45.3783 15.284 44.8841C15.284 44.3899 15.4801 43.9159 15.8293 43.5665C16.1785 43.217 16.652 43.0207 17.1458 43.0207H20.8695C20.3757 43.0207 19.9021 42.8244 19.553 42.4749C19.2038 42.1255 19.0077 41.6515 19.0077 41.1573C19.0077 40.6632 19.2038 40.1892 19.553 39.8397C19.9021 39.4903 20.3757 39.294 20.8695 39.294H18.2106C17.7168 39.294 17.2432 39.0977 16.894 38.7482C16.5449 38.3988 16.3487 37.9248 16.3487 37.4306C16.3487 36.9364 16.5449 36.4625 16.894 36.113C17.2432 35.7636 17.7168 35.5673 18.2106 35.5673H39.7506C40.2444 35.5673 40.718 35.7636 41.0672 36.113C41.4163 36.4625 41.6125 36.9364 41.6125 37.4306C41.6125 37.9248 41.4163 38.3988 41.0672 38.7482C40.718 39.0977 40.2444 39.294 39.7506 39.294H42.4096C42.9034 39.294 43.3769 39.4903 43.7261 39.8397C44.0753 40.1892 44.2714 40.6632 44.2714 41.1573C44.2714 41.6515 44.0753 42.1255 43.7261 42.4749C43.3769 42.8244 42.9034 43.0207 42.4096 43.0207Z" fill="#E9663A"/>
<path d="M181.387 156.901C181.387 156.901 172.777 109.636 156.357 101.966C142.444 95.4617 127.399 91.0774 123.121 89.8881C122.482 88.8582 121.743 87.8936 120.916 87.0084C115.069 80.8991 111.556 81.0132 110.987 81.0886C110.718 79.8771 110.524 78.6498 110.408 77.4141C110.39 77.2207 110.373 77.0408 110.357 76.8494L110.408 76.8242C110.373 76.4587 110.342 76.0816 110.315 75.6929C112.702 74.4179 114.9 72.816 116.844 70.9334C116.87 71.0166 116.891 71.0997 116.918 71.1848C121.132 67.6199 125.259 63.9583 129.299 60.2C130.458 59.1151 131.675 57.9373 132.07 56.4075C132.196 55.8811 132.245 55.339 132.214 54.7985C132.267 53.6381 131.992 52.4526 131.946 51.2768C131.946 51.0834 131.967 50.9035 131.992 50.7198C132.263 48.7955 133.6 47.2155 134.698 45.6006C137.44 41.5197 138.871 36.6979 138.8 31.7806C138.83 29.4244 138.504 27.0772 137.834 24.8184C136.978 21.9523 135.196 18.9411 132.23 18.3145C131.082 18.0728 129.89 18.2236 128.719 18.1482C123.871 17.8388 120.242 13.8935 116.375 11.0022C111.656 7.4906 106.075 5.32271 100.224 4.72851C98.398 4.53511 96.512 4.52158 94.7748 5.10176C90.8734 6.40138 88.5043 10.4143 84.7459 12.064C81.9671 13.2901 78.7555 13.0909 75.857 14.0115C71.542 15.3846 67.8802 19.8133 67.7835 24.3639C67.7835 24.5322 67.7835 24.7004 67.7835 24.8687C67.7835 24.8977 67.7835 24.9267 67.7835 24.9538C67.7352 27.2532 68.5565 29.5952 68.6222 31.9489C68.6222 32.1616 68.6254 32.375 68.6318 32.589C68.6106 35.1302 68.3072 37.6791 67.3816 40.0676C66.8831 41.3537 66.2415 42.8428 66.3459 44.1289C66.2879 44.916 66.4405 45.6548 66.9874 46.2562L67.9207 45.4324C67.6077 47.1279 67.4505 48.8486 67.4512 50.5728C67.4512 59.264 71.4009 67.0462 77.6309 72.2833C77.667 72.8622 77.7017 73.4824 77.7352 74.1438C77.8821 77.0099 77.998 80.6051 77.9652 84.5233L68.8521 92.907L45.4241 103.544C45.4241 103.544 23.998 108.073 28.6125 138.198L30.8154 156.903H50.3768L50.3323 157.002H79.3661L79.3835 156.903H148.462L148.448 157.002H151.154V156.903L181.387 156.901ZM111.159 81.5682C111.752 82.7942 112.218 84.0771 112.551 85.3974C111.867 84.1269 111.362 82.7681 111.049 81.3593L111.078 81.4116L111.159 81.5682ZM77.9575 85.4361C77.9575 85.8048 77.951 86.1768 77.9381 86.552L77.8918 86.6178C77.8886 86.2197 77.9106 85.8218 77.9575 85.4264V85.4361Z" fill="#E9663A"/>
<path d="M118.802 90.1801L114.937 127.119L94.2608 133.694C94.2608 133.694 67.4009 128.666 74.3574 114.161C79.3062 103.843 79.169 85.4052 78.6782 75.6194C78.4849 71.6471 78.2221 69.1 78.2221 69.1C78.2221 69.1 113.391 38.3503 110.493 66.0057C109.932 71.3608 109.899 75.5478 110.211 78.8201C111.515 92.4428 118.802 90.1801 118.802 90.1801Z" fill="#FDC2CC"/>
<path opacity="0.03" d="M118.802 90.1801L114.937 127.119L94.2608 133.694C94.2608 133.694 67.4009 128.666 74.3574 114.161C79.3062 103.843 79.169 85.4052 78.6782 75.6194C78.4849 71.6471 78.2221 69.1 78.2221 69.1C78.2221 69.1 113.391 38.3503 110.493 66.0057C109.932 71.3608 109.899 75.5478 110.211 78.8201C111.515 92.4428 118.802 90.1801 118.802 90.1801Z" fill="black"/>
<path opacity="0.1" d="M110.493 65.4255C109.932 70.7806 109.899 74.9676 110.211 78.2399C105.246 80.9527 99.5768 82.0988 93.949 81.5275C88.3213 80.9563 82.9978 78.6944 78.6782 75.0392C78.485 71.0669 78.2222 68.5198 78.2222 68.5198C78.2222 68.5198 113.391 37.7701 110.493 65.4255Z" fill="black"/>
<path d="M96.773 80.5123C112.248 80.5123 124.792 67.9573 124.792 52.47C124.792 36.9827 112.248 24.4277 96.773 24.4277C81.2983 24.4277 68.7537 36.9827 68.7537 52.47C68.7537 67.9573 81.2983 80.5123 96.773 80.5123Z" fill="#FDC2CC"/>
<path opacity="0.03" d="M96.773 80.5123C112.248 80.5123 124.792 67.9573 124.792 52.47C124.792 36.9827 112.248 24.4277 96.773 24.4277C81.2983 24.4277 68.7537 36.9827 68.7537 52.47C68.7537 67.9573 81.2983 80.5123 96.773 80.5123Z" fill="black"/>
<path opacity="0.1" d="M50.5894 127.505C50.5894 127.505 59.6715 146.071 60.1546 156.998L50.5894 127.505Z" fill="black"/>
<path opacity="0.1" d="M149.527 138.144L146.918 157H149.527V138.144Z" fill="black"/>
<path opacity="0.1" d="M52.6184 156.998L67.0145 124.218C67.0145 124.218 71.0725 116.482 72.0387 108.746C73.0049 101.01 78.2223 88.8263 78.2223 88.8263C78.2223 88.8263 91.1691 72.3877 97.1595 74.7085C103.15 77.0292 91.9421 85.732 91.9421 85.732C91.9421 85.732 108.367 92.114 97.1595 111.067C85.9517 130.019 85.7585 126.538 85.7585 126.538L80.2513 156.998H52.6184Z" fill="black"/>
<path d="M52.2319 156.998L66.6281 124.218C66.6281 124.218 70.686 116.482 71.6522 108.746C72.2667 103.828 74.5991 97.1114 76.2165 92.8702C77.2722 90.0975 78.8256 87.5414 80.8 85.3278C84.9855 80.6399 92.5875 73.0801 96.773 74.7047C102.763 77.0254 91.5556 85.7282 91.5556 85.7282C91.5556 85.7282 107.981 92.1102 96.773 111.063C85.5653 130.016 85.372 126.535 85.372 126.535L79.8648 156.994L52.2319 156.998Z" fill="#FDC2CC"/>
<path opacity="0.15" d="M105.372 37.2885C105.692 37.2885 105.952 37.0288 105.952 36.7083C105.952 36.3879 105.692 36.1281 105.372 36.1281C105.052 36.1281 104.792 36.3879 104.792 36.7083C104.792 37.0288 105.052 37.2885 105.372 37.2885Z" fill="white"/>
<path opacity="0.15" d="M102.667 38.4489C102.987 38.4489 103.246 38.1891 103.246 37.8687C103.246 37.5482 102.987 37.2885 102.667 37.2885C102.346 37.2885 102.087 37.5482 102.087 37.8687C102.087 38.1891 102.346 38.4489 102.667 38.4489Z" fill="white"/>
<path opacity="0.1" d="M76.8677 17.1309C79.6638 16.2258 82.7672 16.4212 85.4494 15.2183C89.0764 13.5899 91.3624 9.64848 95.1266 8.37207C96.8039 7.80349 98.6242 7.82476 100.385 8.00655C106.045 8.59618 111.436 10.728 115.971 14.1701C119.702 17.011 123.204 20.8847 127.882 21.1884C129.013 21.2618 130.162 21.1129 131.27 21.3508C134.137 21.9658 135.855 24.9228 136.68 27.7328C137.635 31.0631 137.859 34.5605 137.336 37.9853C136.814 41.4102 135.558 44.6816 133.654 47.5752C132.595 49.161 131.304 50.714 131.044 52.6034C130.788 54.4562 131.577 56.3766 131.117 58.1906C130.731 59.6933 129.571 60.8498 128.443 61.9154C124.546 65.6041 120.563 69.198 116.495 72.6972C114.381 65.9748 117.482 58.736 116.999 51.7061C116.806 48.9676 115.84 45.9777 113.426 44.6858C111.167 43.4791 108.28 44.1057 105.994 42.9453C103.444 41.6592 102.396 38.6132 100.468 36.5052C97.1827 32.9081 91.4803 32.4439 86.887 34.0685C82.2938 35.693 78.5392 39.0348 74.9064 42.2936L68.3035 48.2211C67.0146 46.7668 67.9924 44.535 68.6899 42.7171C69.7296 39.9922 69.9576 37.0545 69.888 34.1613C69.832 31.8406 69.032 29.5488 69.0783 27.29C69.1711 22.8341 72.7035 18.4789 76.8677 17.1309Z" fill="black"/>
<path d="M76.1518 14.0701C79.0953 13.1275 82.3622 13.3309 85.1857 12.078C89.0039 10.3821 91.4104 6.27707 95.373 4.94768C97.1387 4.35549 99.0549 4.37765 100.908 4.56699C106.867 5.18109 112.542 7.40137 117.316 10.9863C121.244 13.9452 124.93 17.9797 129.855 18.296C131.045 18.3725 132.255 18.2174 133.421 18.4652C136.44 19.1057 138.248 22.1854 139.117 25.1121C140.121 28.5806 140.357 32.2232 139.807 35.7902C139.257 39.3573 137.935 42.7644 135.931 45.7781C134.816 47.4298 133.457 49.0472 133.183 51.0151C132.914 52.9447 133.744 54.9449 133.26 56.8342C132.853 58.3993 131.633 59.6038 130.445 60.7136C126.342 64.5554 122.15 68.2985 117.867 71.9429C115.642 64.9415 118.907 57.4022 118.398 50.0805C118.195 47.2284 117.178 44.1144 114.637 42.7689C112.259 41.512 109.22 42.1646 106.813 40.956C104.128 39.6166 103.026 36.4442 100.996 34.2487C97.5374 30.5022 91.5345 30.0188 86.6992 31.7107C81.8639 33.4027 77.9114 36.8833 74.0871 40.2773L67.1362 46.4509C65.7794 44.9362 66.8087 42.6117 67.5431 40.7184C68.6375 37.8803 68.8775 34.8207 68.8043 31.8074C68.7453 29.3903 67.9031 27.0035 67.9519 24.6509C68.0496 20.0101 71.7681 15.474 76.1518 14.0701Z" fill="#865A61"/>
</g>
<defs>
<clipPath id="clip0">
<rect width="212" height="157" fill="white"/>
</clipPath>
</defs>
</svg>
