<svg width="30" height="30" viewBox="0 0 30 30" fill="none" xmlns="http://www.w3.org/2000/svg">
<path d="M30 7.63536V27.1142C30 28.7054 28.4213 30 26.481 30H10.4259C8.48555 30 6.90693 28.7054 6.90693 27.1142V14.4487C7.40889 14.5172 7.92094 14.5616 8.44645 14.5616C8.81912 14.5616 9.18489 14.5389 9.54615 14.5038V27.1142C9.54615 27.5119 9.9407 27.8356 10.4259 27.8356H26.481C26.966 27.8356 27.3607 27.5119 27.3607 27.1142V7.63536C27.3607 7.23749 26.9659 6.91394 26.481 6.91394H17.7722C17.7722 6.16152 17.6343 5.43634 17.3872 4.74966H26.481C28.4213 4.7496 30 6.04417 30 7.63536ZM8.2995 13.6121C3.72301 13.6121 0 10.559 0 6.80612C7.26739e-05 3.05311 3.72301 0 8.2995 0C12.8759 0 16.599 3.05311 16.599 6.80612C16.599 10.559 12.8759 13.6121 8.2995 13.6121ZM8.2995 12.1692C11.9054 12.1692 14.8394 9.76358 14.8394 6.80612C14.8394 3.84849 11.9059 1.44291 8.2995 1.44291C4.69299 1.44291 1.75951 3.84849 1.75951 6.80612C1.75951 9.76358 4.69343 12.1692 8.2995 12.1692ZM13.277 7.52761C13.7626 7.52761 14.1567 7.20441 14.1567 6.80618C14.1567 6.40796 13.7626 6.08476 13.277 6.08476H9.17922V3.2527C9.17922 2.85447 8.78511 2.53127 8.2995 2.53127C7.8139 2.53127 7.41979 2.85447 7.41979 3.2527V6.80618C7.41979 7.20441 7.8139 7.52761 8.2995 7.52761H13.277ZM23.4307 13.377H13.9003C13.4147 13.377 13.0205 13.7002 13.0205 14.0984C13.0205 14.4967 13.4147 14.8198 13.9003 14.8198H23.4307C23.9165 14.8198 24.3104 14.4966 24.3104 14.0984C24.3105 13.7002 23.9165 13.377 23.4307 13.377ZM23.4462 17.7531H13.9157C13.4301 17.7531 13.036 18.0761 13.036 18.4745C13.036 18.873 13.4301 19.196 13.9157 19.196H23.4462C23.932 19.196 24.3258 18.873 24.3258 18.4745C24.3258 18.0761 23.9325 17.7531 23.4462 17.7531ZM23.4462 22.3104H13.9157C13.4301 22.3104 13.036 22.6338 13.036 23.0318C13.036 23.4302 13.4301 23.7532 13.9157 23.7532H23.4462C23.932 23.7532 24.3258 23.4302 24.3258 23.0318C24.3259 22.6337 23.9325 22.3104 23.4462 22.3104Z" fill="#242424" fill-opacity="1"/>
</svg>
