<svg width="25" height="25" viewBox="0 0 25 25" fill="none" xmlns="http://www.w3.org/2000/svg">
<g clip-path="url(#clip0)">
<path d="M24.6866 12.2072C25.1397 11.7088 25.096 10.9449 24.5889 10.5014L13.416 0.725108C12.9089 0.28162 12.0958 0.29091 11.5994 0.746052L0.388577 11.0226C-0.107881 11.4778 -0.132247 12.2407 0.334628 12.726L0.615699 13.0187C1.082 13.504 1.83574 13.5619 2.29813 13.1476L3.13596 12.3973V23.3819C3.13596 24.0559 3.68205 24.6015 4.35551 24.6015H8.72551C9.39897 24.6015 9.94506 24.0559 9.94506 23.3819V15.6971H15.519V23.3819C15.5093 24.0554 15.9912 24.601 16.6647 24.601H21.2958C21.9692 24.601 22.5153 24.0554 22.5153 23.3814V12.5519C22.5153 12.5519 22.7468 12.7547 23.0322 13.0056C23.3172 13.256 23.9158 13.0552 24.369 12.5563L24.6866 12.2072Z" fill="#E9663A"/>
</g>
<defs>
<clipPath id="clip0">
<rect width="25" height="25" fill="white"/>
</clipPath>
</defs>
</svg>
