<svg width="25" height="25" viewBox="0 0 25 25" fill="none" xmlns="http://www.w3.org/2000/svg">
<path d="M24.6868 12.2072C25.14 11.7087 25.0962 10.9448 24.5891 10.5013L13.4163 0.725047C12.9091 0.281559 12.0961 0.290849 11.5996 0.74599L0.388821 11.0226C-0.107637 11.4777 -0.132003 12.2406 0.334872 12.7259L0.615943 13.0187C1.08225 13.504 1.83598 13.5618 2.29837 13.1475L3.13621 12.3972V23.3819C3.13621 24.0558 3.68229 24.6014 4.35576 24.6014H8.72576C9.39922 24.6014 9.94531 24.0558 9.94531 23.3819V15.697H15.5193V23.3819C15.5096 24.0553 15.9915 24.6009 16.6649 24.6009H21.296C21.9695 24.6009 22.5156 24.0553 22.5156 23.3814V12.5519C22.5156 12.5519 22.747 12.7546 23.0325 13.0055C23.3175 13.256 23.916 13.0552 24.3692 12.5563L24.6868 12.2072Z" fill="#242424" fill-opacity="1"/>
</svg>
