<svg width="26" height="26" viewBox="0 0 26 26" fill="none" xmlns="http://www.w3.org/2000/svg">
<path fill-rule="evenodd" clip-rule="evenodd" d="M22.3777 13C22.3777 13.425 22.3402 13.825 22.2902 14.225L24.9277 16.2875C25.1652 16.475 25.2277 16.8125 25.0777 17.0875L22.5777 21.4125C22.4652 21.6125 22.2527 21.725 22.0402 21.725C21.9652 21.725 21.8902 21.7125 21.8152 21.6875L18.7027 20.4375C18.0527 20.925 17.3527 21.35 16.5902 21.6625L16.1152 24.975C16.0777 25.275 15.8152 25.5 15.5027 25.5H10.5027C10.1902 25.5 9.92773 25.275 9.89023 24.975L9.41523 21.6625C8.65273 21.35 7.95273 20.9375 7.30273 20.4375L4.19023 21.6875C4.12773 21.7125 4.05273 21.725 3.97773 21.725C3.75273 21.725 3.54023 21.6125 3.42773 21.4125L0.927729 17.0875C0.777729 16.8125 0.840229 16.475 1.07773 16.2875L3.71523 14.225C3.66523 13.825 3.62773 13.4125 3.62773 13C3.62773 12.5875 3.66523 12.175 3.71523 11.775L1.07773 9.7125C0.840229 9.525 0.765229 9.1875 0.927729 8.9125L3.42773 4.5875C3.54023 4.3875 3.75273 4.275 3.96523 4.275C4.04023 4.275 4.11523 4.2875 4.19023 4.3125L7.30273 5.5625C7.95273 5.075 8.65273 4.65 9.41523 4.3375L9.89023 1.025C9.92773 0.725 10.1902 0.5 10.5027 0.5H15.5027C15.8152 0.5 16.0777 0.725 16.1152 1.025L16.5902 4.3375C17.3527 4.65 18.0527 5.0625 18.7027 5.5625L21.8152 4.3125C21.8777 4.2875 21.9527 4.275 22.0277 4.275C22.2527 4.275 22.4652 4.3875 22.5777 4.5875L25.0777 8.9125C25.2277 9.1875 25.1652 9.525 24.9277 9.7125L22.2902 11.775C22.3402 12.175 22.3777 12.575 22.3777 13ZM19.8777 13C19.8777 12.7375 19.8652 12.475 19.8152 12.0875L19.6402 10.675L20.7527 9.8L22.0902 8.7375L21.2152 7.225L19.6277 7.8625L18.3027 8.4L17.1652 7.525C16.6652 7.15 16.1652 6.8625 15.6277 6.6375L14.3027 6.1L14.1027 4.6875L13.8652 3H12.1277L11.8777 4.6875L11.6777 6.1L10.3527 6.6375C9.84023 6.85 9.32773 7.15 8.79023 7.55L7.66523 8.4L6.36523 7.875L4.77773 7.2375L3.90273 8.75L5.25273 9.8L6.36523 10.675L6.19023 12.0875C6.15273 12.4625 6.12773 12.75 6.12773 13C6.12773 13.25 6.15273 13.5375 6.19023 13.925L6.36523 15.3375L5.25273 16.2125L3.90273 17.2625L4.77773 18.775L6.36523 18.1375L7.69023 17.6L8.82773 18.475C9.32773 18.85 9.82773 19.1375 10.3652 19.3625L11.6902 19.9L11.8902 21.3125L12.1277 23H13.8777L14.1277 21.3125L14.3277 19.9L15.6527 19.3625C16.1652 19.15 16.6777 18.85 17.2152 18.45L18.3402 17.6L19.6402 18.125L21.2277 18.7625L22.1027 17.25L20.7527 16.2L19.6402 15.325L19.8152 13.9125C19.8527 13.5375 19.8777 13.2625 19.8777 13ZM13.0027 8C10.2402 8 8.00273 10.2375 8.00273 13C8.00273 15.7625 10.2402 18 13.0027 18C15.7652 18 18.0027 15.7625 18.0027 13C18.0027 10.2375 15.7652 8 13.0027 8ZM10.5027 13C10.5027 14.375 11.6277 15.5 13.0027 15.5C14.3777 15.5 15.5027 14.375 15.5027 13C15.5027 11.625 14.3777 10.5 13.0027 10.5C11.6277 10.5 10.5027 11.625 10.5027 13Z" fill="#242424" fill-opacity="0.8"/>
</svg>
